<?xml version="1.0" encoding="utf-8"?>
<!-- Generator: Adobe Illustrator 19.2.1, SVG Export Plug-In . SVG Version: 6.00 Build 0)  -->
<svg version="1.1" id="Слой_1" xmlns="http://www.w3.org/2000/svg" xmlns:xlink="http://www.w3.org/1999/xlink" x="0px" y="0px"
	 viewBox="0 0 150 150" style="enable-background:new 0 0 150 150;" xml:space="preserve">
<style type="text/css">
	.st0{fill:#222221;}
</style>
<g>
	<path class="st0" d="M147.5,32.6c0.1-4.3-1.4-8.3-4.4-11.3s-7-4.5-11.3-4.4c-4.3,0.1-8.3,1.9-11.4,5l-0.9,0.9V4.5
		c0-3.9-2.8-4.5-4.4-4.5H42.2c-0.5,0-1,0.2-1.4,0.5l-37.5,30c-0.5,0.4-0.8,1.1-0.8,1.8v111c0,2.8,3.1,6.8,6.1,6.8h106.5
		c3.1,0,4.4-3.4,4.4-6.8V67.1l23-23C145.6,41,147.4,36.9,147.5,32.6z M131.9,21.4c3-0.1,5.9,1,8,3.1c2.1,2.1,3.2,4.9,3.1,8
		c-0.1,3.1-1.4,6.1-3.7,8.4l-1,1l-15.8-15.8l1-1C125.8,22.8,128.8,21.5,131.9,21.4z M116.2,64c-0.4,0.2-0.7,0.5-1,1L81.7,98.5
		L65.9,82.7L118,30.6c0.6-0.2,1.1-0.7,1.3-1.3l0,0L135.2,45L116.2,64z M45,103.6l0.5-0.5l15.8,15.8l-0.5,0.5l-21.9,6.1L45,103.6z
		 M64.5,115.7L48.8,99.9l14-14l15.8,15.8L64.5,115.7z M38.5,8.1v23.4H9.3L38.5,8.1z M115,143.3c0,0.9-0.2,1.8-0.4,2.3l-105.9,0
		c-0.6-0.2-1.7-1.6-1.7-2.3V36h33.8c1.2,0,2.3-1,2.3-2.3V4.5l0,0h72c0,0,0,0,0,0v22.8l-3.9,3.9L103,23l4.6-4.6
		c0.9-0.9,0.9-2.3,0-3.2c-0.9-0.9-2.3-0.9-3.2,0l-6.2,6.2c0,0,0,0,0,0s0,0,0,0L72.9,46.7c-0.9,0.9-0.9,2.3,0,3.2
		c0.4,0.4,1,0.7,1.6,0.7s1.2-0.2,1.6-0.7l23.7-23.7l8.1,8.1l-66.5,66.5c-0.3,0.3-0.5,0.6-0.6,1l-7.4,26.4c-0.2,0.8,0,1.6,0.6,2.2
		c0.4,0.4,1,0.7,1.6,0.7c0.2,0,0.4,0,0.6-0.1l26.4-7.4c0.4-0.1,0.7-0.3,1-0.6L115,71.6V143.3z"/>
	<path class="st0" d="M20.5,60h30c1.2,0,2.3-1,2.3-2.3s-1-2.3-2.3-2.3h-30c-1.2,0-2.3,1-2.3,2.3S19.2,60,20.5,60z"/>
	<path class="st0" d="M52.7,72.8c0-1.2-1-2.3-2.3-2.3h-30c-1.2,0-2.3,1-2.3,2.3s1,2.3,2.3,2.3h30C51.7,75,52.7,74,52.7,72.8z"/>
</g>
</svg>
