<?xml version="1.0" encoding="utf-8"?>
<!-- Generator: Adobe Illustrator 19.2.1, SVG Export Plug-In . SVG Version: 6.00 Build 0)  -->
<svg version="1.1" id="Слой_1" xmlns="http://www.w3.org/2000/svg" xmlns:xlink="http://www.w3.org/1999/xlink" x="0px" y="0px"
	 viewBox="0 0 150 150" style="enable-background:new 0 0 150 150;" xml:space="preserve">
<g>
	<g>
		<path d="M75.3,100.5h-0.5C57.3,100.5,43,86.3,43,68.8V31.7C43,14.2,57.3,0,74.7,0h0.5C92.7,0,107,14.2,107,31.7v37.1
			C107,86.3,92.7,100.5,75.3,100.5z M74.7,4C59.5,4,47.1,16.5,47.1,31.7v37.1c0,15.2,12.4,27.7,27.7,27.7h0.5
			c15.2,0,27.7-12.4,27.7-27.7V31.7C102.9,16.5,90.5,4,75.3,4H74.7z"/>
	</g>
	<g>
		<path d="M99.9,150H50.1c-1.1,0-2-0.9-2-2c0-1.1,0.9-2,2-2h49.8c1.1,0,2,0.9,2,2C101.9,149.1,101,150,99.9,150z"/>
	</g>
	<g>
		<path d="M75,117.9c-26.2,0-47.4-21.3-47.4-47.4V50.3c0-1.1,0.9-2,2-2s2,0.9,2,2v20.2c0,23.9,19.5,43.4,43.4,43.4
			s43.4-19.5,43.4-43.4V50.8c0-1.1,0.9-2,2-2c1.1,0,2,0.9,2,2v19.6C122.4,96.6,101.2,117.9,75,117.9z"/>
	</g>
	<g>
		<path d="M75,150c-1.1,0-2-0.9-2-2v-32.1c0-1.1,0.9-2,2-2s2,0.9,2,2V148C77,149.1,76.1,150,75,150z"/>
	</g>
	<g>
		<path d="M65.3,30.2H46.4c-1.1,0-2-0.9-2-2s0.9-2,2-2h18.9c1.1,0,2,0.9,2,2S66.5,30.2,65.3,30.2z"/>
	</g>
	<g>
		<path d="M65.3,75.1H46.4c-1.1,0-2-0.9-2-2c0-1.1,0.9-2,2-2h18.9c1.1,0,2,0.9,2,2C67.4,74.2,66.5,75.1,65.3,75.1z"/>
	</g>
	<g>
		<path d="M65.3,60.1H46.4c-1.1,0-2-0.9-2-2s0.9-2,2-2h18.9c1.1,0,2,0.9,2,2S66.5,60.1,65.3,60.1z"/>
	</g>
	<g>
		<path d="M65.3,45.2H46.4c-1.1,0-2-0.9-2-2s0.9-2,2-2h18.9c1.1,0,2,0.9,2,2S66.5,45.2,65.3,45.2z"/>
	</g>
	<g>
		<path d="M103.6,30.2H84.7c-1.1,0-2-0.9-2-2s0.9-2,2-2h18.9c1.1,0,2,0.9,2,2S104.7,30.2,103.6,30.2z"/>
	</g>
	<g>
		<path d="M103.6,75.1H84.7c-1.1,0-2-0.9-2-2c0-1.1,0.9-2,2-2h18.9c1.1,0,2,0.9,2,2C105.6,74.2,104.7,75.1,103.6,75.1z"/>
	</g>
	<g>
		<path d="M103.6,60.1H84.7c-1.1,0-2-0.9-2-2s0.9-2,2-2h18.9c1.1,0,2,0.9,2,2S104.7,60.1,103.6,60.1z"/>
	</g>
	<g>
		<path d="M103.6,45.2H84.7c-1.1,0-2-0.9-2-2s0.9-2,2-2h18.9c1.1,0,2,0.9,2,2S104.7,45.2,103.6,45.2z"/>
	</g>
	<g>
		<path d="M29.6,52.3h-8c-1.1,0-2-0.9-2-2c0-1.1,0.9-2,2-2h8c1.1,0,2,0.9,2,2C31.6,51.4,30.7,52.3,29.6,52.3z"/>
	</g>
	<g>
		<path d="M128.4,52.3h-8c-1.1,0-2-0.9-2-2c0-1.1,0.9-2,2-2h8c1.1,0,2,0.9,2,2C130.5,51.4,129.5,52.3,128.4,52.3z"/>
	</g>
</g>
</svg>
