<?xml version="1.0" encoding="utf-8"?>
<!-- Generator: Adobe Illustrator 19.2.1, SVG Export Plug-In . SVG Version: 6.00 Build 0)  -->
<svg version="1.1" id="Слой_1" xmlns="http://www.w3.org/2000/svg" xmlns:xlink="http://www.w3.org/1999/xlink" x="0px" y="0px"
	 viewBox="0 0 150 150" style="enable-background:new 0 0 150 150;" xml:space="preserve">
<style type="text/css">
	.st0{fill:#222221;}
</style>
<g>
	<path class="st0" d="M109.9,75.2H75V43.3c0-1.3-1-2.3-2.3-2.3s-2.3,1-2.3,2.3v33.4c0,0.8,0.4,1.5,1.1,1.9c0.4,0.7,1.1,1.1,1.9,1.1
		h36.4c1.3,0,2.3-1,2.3-2.3S111.2,75.2,109.9,75.2z"/>
	<path class="st0" d="M120.1,131.8c17.3-13.5,28.5-34.5,28.5-58.1c0-20.8-8.8-40.7-24.2-54.6C110.8,6.8,93.3,0,75,0
		C34.4,0,1.4,33,1.4,73.6c0,23.4,11,44.2,28,57.7L19,146.4c-0.7,1-0.4,2.5,0.6,3.2c0.4,0.3,0.8,0.4,1.3,0.4c0.7,0,1.4-0.3,1.9-1
		L33,134.1c11.9,8.3,26.4,13.2,42,13.2c15.4,0,29.6-4.7,41.5-12.8l10,14.6c0.4,0.6,1.2,1,1.9,1c0.4,0,0.9-0.1,1.3-0.4
		c1-0.7,1.3-2.1,0.6-3.2L120.1,131.8z M5.9,73.6c0-38.1,31-69.1,69.1-69.1c17.2,0,33.6,6.3,46.3,17.8c14.5,13.1,22.7,31.8,22.7,51.2
		c0,38.1-31,69.1-69.1,69.1S5.9,111.7,5.9,73.6z"/>
	<path class="st0" d="M75,17.8c-31.2,0-56.6,25.4-56.6,56.6c0,31.2,25.4,56.6,56.6,56.6c31.2,0,56.6-25.4,56.6-56.6
		C131.6,43.2,106.2,17.8,75,17.8z M75,126.4c-28.7,0-52-23.3-52-52c0-28.7,23.3-52,52-52c28.7,0,52,23.3,52,52
		C127,103.1,103.7,126.4,75,126.4z"/>
</g>
</svg>
