<?xml version="1.0" encoding="utf-8"?>
<!-- Generator: Adobe Illustrator 19.2.1, SVG Export Plug-In . SVG Version: 6.00 Build 0)  -->
<svg version="1.1" id="Слой_1" xmlns="http://www.w3.org/2000/svg" xmlns:xlink="http://www.w3.org/1999/xlink" x="0px" y="0px"
	 viewBox="0 0 150 150" style="enable-background:new 0 0 150 150;" xml:space="preserve">
<g>
	<path d="M127,93.2V50.5c0-0.7-0.3-1.3-0.8-1.7c-0.5-0.4-1.2-0.6-1.9-0.4L86.7,57c-1,0.2-1.7,1.1-1.7,2.2v35.1
		c-1.3-0.8-2.8-1.2-4.5-1.2c-4.9,0-8.9,4-8.9,8.9s4,8.9,8.9,8.9c4.9,0,8.9-4,8.9-8.9V73.6l33.2-7.7v18.8c-1.3-0.8-2.8-1.2-4.5-1.2
		c-4.9,0-8.9,4-8.9,8.9c0,4.9,4,8.9,8.9,8.9c4.3,0,8-3.1,8.7-7.3C127,93.8,127,93.5,127,93.2z M80.5,106.4c-2.5,0-4.5-2-4.5-4.5
		s2-4.5,4.5-4.5s4.5,2,4.5,4.5S83,106.4,80.5,106.4z M89.4,69.1V61l33.2-7.7v8.1L89.4,69.1z M118.1,96.9c-2.5,0-4.5-2-4.5-4.5
		c0-2.5,2-4.5,4.5-4.5s4.5,2,4.5,4.5C122.6,94.9,120.6,96.9,118.1,96.9z"/>
	<path d="M149.8,127.1V2.2c0-0.7-0.3-1.4-0.9-1.8c-0.6-0.4-1.3-0.5-2-0.3L99.3,14.3L51.7,0.1C51.4,0,51.1,0,50.8,0
		c-0.3,0-0.6,0-0.9,0.1L1.7,14.5c-0.9,0.3-1.6,1.1-1.6,2.1v131.2c0,0.7,0.3,1.4,0.9,1.8c0.4,0.3,0.9,0.4,1.3,0.4
		c0.2,0,0.4,0,0.6-0.1l47.9-14.2l47.9,14.2c0.2,0.1,0.4,0.1,0.6,0.1c0,0,0,0,0.1,0c0.2,0,0.4,0,0.6-0.1l48.3-14.4
		c0.9-0.3,1.6-1.1,1.6-2.1v-5.2c0-0.1,0.1-0.1,0.1-0.2C149.9,127.7,149.9,127.4,149.8,127.1z M48.4,131.8l-43.9,13V66.4
		c1.2-0.8,2.4-1.5,3.6-2.2c1.1-0.6,1.4-2,0.8-3c-0.6-1.1-2-1.4-3-0.8c-0.5,0.3-1,0.6-1.4,0.9v-43l43.9-13V131.8z M101.5,144.8v-35.7
		c0-1.2-1-2.2-2.2-2.2c-1.2,0-2.2,1-2.2,2.2v35.7l-43.9-13V58.1c1.5,0.4,3,0.8,4.5,1.3c0.9,0.3,1.8,0.6,2.8,1
		c0.3,0.1,0.5,0.2,0.8,0.2c0.9,0,1.7-0.5,2.1-1.4c0.4-1.1-0.1-2.4-1.3-2.9c-1-0.4-2-0.7-2.9-1.1c-1.6-0.6-3.3-1-5-1.5
		c-0.3-0.1-0.6-0.1-1,0V5.2l43.9,13v24.5c0,1.2,1,2.2,2.2,2.2c1.2,0,2.2-1,2.2-2.2V18.2l43.9-13v119.9c-0.5-0.1-1.1-0.2-1.6-0.3
		c-1.2-0.2-2.4,0.5-2.6,1.7c-0.3,1.2,0.5,2.4,1.7,2.6c0.8,0.2,1.7,0.3,2.5,0.5v2.2L101.5,144.8z"/>
	<path d="M134.6,122.1c-1.1-0.4-2.2-0.9-3.2-1.3c-1.1-0.5-2.3-1-3.3-1.6c-1.1-0.6-2.4-0.1-3,0.9c-0.6,1.1-0.1,2.4,0.9,3
		c1.2,0.6,2.4,1.2,3.6,1.7c1.1,0.5,2.3,1,3.5,1.4c0.3,0.1,0.5,0.1,0.8,0.1c0.9,0,1.7-0.5,2.1-1.4
		C136.3,123.8,135.8,122.6,134.6,122.1z"/>
	<path d="M119.9,114.1c-1.1-0.8-2.3-1.7-3.3-2.7c-0.9-0.8-2.3-0.7-3.1,0.2c-0.8,0.9-0.7,2.3,0.2,3.1c1.2,1,2.4,1.9,3.6,2.8
		c0.4,0.3,0.9,0.4,1.3,0.4c0.7,0,1.3-0.3,1.8-0.9C121.1,116.2,120.9,114.8,119.9,114.1z"/>
	<path d="M16.8,60c0.3,0,0.5,0,0.8-0.1c2.4-0.9,4.9-1.6,7.4-2.2c1.2-0.3,1.9-1.5,1.7-2.6c-0.3-1.2-1.4-1.9-2.6-1.7
		c-2.7,0.6-5.4,1.4-8,2.3c-1.1,0.4-1.7,1.7-1.3,2.8C15,59.4,15.8,60,16.8,60z"/>
	<path d="M35.2,56.3c2.6-0.1,5.2-0.1,7.8,0.1c0.1,0,0.1,0,0.2,0c1.1,0,2.1-0.9,2.2-2c0.1-1.2-0.8-2.3-2-2.4
		c-2.8-0.2-5.6-0.2-8.3-0.1c-1.2,0.1-2.2,1.1-2.1,2.3S34,56.3,35.2,56.3z"/>
	<path d="M74.7,67.7c0.7,0,1.4-0.3,1.8-0.9c0.7-1,0.5-2.4-0.5-3.1c-1.2-0.9-2.5-1.7-3.8-2.5c-1-0.6-2.4-0.3-3,0.8
		c-0.6,1-0.3,2.4,0.8,3c1.2,0.7,2.4,1.5,3.6,2.3C73.8,67.6,74.2,67.7,74.7,67.7z"/>
</g>
</svg>
