<?xml version="1.0" encoding="utf-8"?>
<!-- Generator: Adobe Illustrator 19.2.1, SVG Export Plug-In . SVG Version: 6.00 Build 0)  -->
<svg version="1.1" id="Слой_1" xmlns="http://www.w3.org/2000/svg" xmlns:xlink="http://www.w3.org/1999/xlink" x="0px" y="0px"
	 viewBox="0 0 150 150" style="enable-background:new 0 0 150 150;" xml:space="preserve">
<style type="text/css">
	.st0{fill:#222221;}
</style>
<g>
	<path class="st0" d="M140.8,29.9c0-10.1-6.8-17-17-17h-11.5V2c0-1.1-0.9-2-2-2c-1.1,0-2,0.9-2,2v10.9H41.7V2c0-1.1-0.9-2-2-2
		c-1.1,0-2,0.9-2,2v10.9h-8.8c-9.7,0-19.7,6.3-19.7,17v82.8c0,0.5,0,1,0.1,1.5c-0.1,0.2-0.1,0.4-0.1,0.6v15.6
		c0,10.1,9.6,19.7,19.7,19.7h95c10.6,0,17-10,17-19.7v-15.6c0-0.2,0-0.3-0.1-0.5c0-0.5,0.1-1,0.1-1.6V29.9z M13.2,52.3h123.5v60.4
		c0,7.7-4.8,15.6-12.9,15.6h-95c-7.9,0-15.6-7.7-15.6-15.6V52.3z M28.8,17h8.8v12.2c0,1.1,0.9,2,2,2c1.1,0,2-0.9,2-2V17h66.5v12.2
		c0,1.1,0.9,2,2,2c1.1,0,2-0.9,2-2V17h11.5c7.8,0,12.9,5.1,12.9,12.9v18.3H13.2V29.9C13.2,21.8,21.2,17,28.8,17z M136.8,130.3
		c0,7.7-4.8,15.6-12.9,15.6h-95c-7.9,0-15.6-7.7-15.6-15.6V124c3.7,4.9,9.6,8.3,15.6,8.3h95c5.6,0,10-2.8,12.9-6.8V130.3z"/>
	<path class="st0" d="M69.6,103.5c0.4,0.4,0.9,0.6,1.4,0.6s1-0.2,1.4-0.6l32.1-32.1c0.8-0.8,0.8-2.1,0-2.9c-0.8-0.8-2.1-0.8-2.9,0
		L71.1,99.2L54.4,82.5c-0.8-0.8-2.1-0.8-2.9,0c-0.8,0.8-0.8,2.1,0,2.9L69.6,103.5z"/>
</g>
</svg>
