<?xml version="1.0" encoding="utf-8"?>
<!-- Generator: Adobe Illustrator 19.2.1, SVG Export Plug-In . SVG Version: 6.00 Build 0)  -->
<svg version="1.1" id="Слой_1" xmlns="http://www.w3.org/2000/svg" xmlns:xlink="http://www.w3.org/1999/xlink" x="0px" y="0px"
	 viewBox="0 0 150 150" style="enable-background:new 0 0 150 150;" xml:space="preserve">
<style type="text/css">
	.st0{fill:#222221;}
</style>
<g>
	<path class="st0" d="M30.5,105.4c-1.4,0-2.7-0.2-4.1-0.6c-3.6-1.1-6.5-3.5-8.2-6.8l-8.1-16c-1.7-3.3-1.9-7-0.6-10.5
		c1.3-3.4,3.8-6.1,7.1-7.8l15.8-8l43-41.8c0.8-0.7,2-0.7,2.7,0c0.7,0.8,0.7,2,0,2.7l-43.2,42c-0.1,0.1-0.3,0.2-0.5,0.3l-16,8.1
		c-2.5,1.3-4.3,3.3-5.2,5.7c-0.9,2.4-0.8,5.1,0.4,7.4l8.1,16c1.2,2.4,3.3,4.1,5.8,4.8c2.6,0.8,5.3,0.5,7.7-0.7l16-8.1
		c0.1-0.1,0.3-0.1,0.4-0.2l58.5-13.4c1-0.2,2.1,0.4,2.3,1.5c0.2,1-0.4,2.1-1.5,2.3L52.8,95.8l-15.8,8
		C34.9,104.9,32.7,105.4,30.5,105.4z"/>
</g>
<g>
	<path class="st0" d="M52.1,95.4c-0.7,0-1.4-0.4-1.7-1.1L33.1,60.2c-0.5-1-0.1-2.1,0.9-2.6c1-0.5,2.1-0.1,2.6,0.9l17.3,34.1
		c0.5,1,0.1,2.1-0.9,2.6C52.7,95.3,52.4,95.4,52.1,95.4z"/>
</g>
<g>
	<path class="st0" d="M117.3,85.9c-0.9,0-1.8-0.1-2.6-0.4c-2.1-0.7-3.9-2.2-4.9-4.2l-33.5-66c-1-2-1.2-4.3-0.5-6.4
		C76.4,6.8,77.9,5,79.9,4l0,0c2-1,4.3-1.2,6.4-0.5c2.1,0.7,3.9,2.2,4.9,4.2l33.5,66c1,2,1.2,4.3,0.5,6.4c-0.7,2.1-2.2,3.9-4.2,4.9
		C119.9,85.6,118.6,85.9,117.3,85.9z M81.7,7.5C80.6,8,79.8,9,79.4,10.1c-0.4,1.2-0.3,2.4,0.3,3.5l33.5,66c0.6,1.1,1.5,1.9,2.6,2.3
		c1.2,0.4,2.4,0.3,3.5-0.3c1.1-0.6,1.9-1.5,2.3-2.7c0.4-1.2,0.3-2.4-0.3-3.5l-33.5-66c-0.6-1.1-1.5-1.9-2.6-2.3S82.8,6.9,81.7,7.5
		L81.7,7.5z"/>
</g>
<g>
	<path class="st0" d="M16.5,102.9c-4.5,0-8.9-2.5-11-6.8c-1.5-2.9-1.8-6.3-0.7-9.4s3.2-5.7,6.1-7.2c1-0.5,2.1-0.1,2.6,0.9
		c0.5,1,0.1,2.1-0.9,2.6c-2,1-3.5,2.8-4.2,4.9c-0.7,2.2-0.5,4.4,0.5,6.5c2.1,4.2,7.2,5.8,11.4,3.7c1-0.5,2.1-0.1,2.6,0.9
		c0.5,1,0.1,2.1-0.9,2.6C20.3,102.4,18.3,102.9,16.5,102.9z"/>
</g>
<g>
	<path class="st0" d="M114,55.6c-0.7,0-1.4-0.4-1.7-1.1c-0.5-1-0.1-2.1,0.9-2.6c3.1-1.6,5.4-4.2,6.4-7.5c1.1-3.3,0.8-6.8-0.8-9.9
		c-3.2-6.4-11-8.9-17.4-5.7c-1,0.5-2.1,0.1-2.6-0.9c-0.5-1-0.1-2.1,0.9-2.6c8.3-4.2,18.4-0.9,22.6,7.4c2,4,2.4,8.6,1,12.8
		c-1.4,4.3-4.4,7.7-8.4,9.8C114.6,55.5,114.3,55.6,114,55.6z"/>
</g>
<g>
	<path class="st0" d="M63.9,150c-1,0-2.1-0.2-3.1-0.5c-2.5-0.8-4.6-2.6-5.8-5l-20.1-39.6c-0.5-1-0.1-2.1,0.9-2.6
		c1-0.5,2.1-0.1,2.6,0.9l20.1,39.6c0.7,1.4,2,2.5,3.5,3c1.6,0.5,3.2,0.4,4.6-0.3c3-1.5,4.2-5.2,2.7-8.2L49.2,97.6
		c-0.5-1-0.1-2.1,0.9-2.6c1-0.5,2.1-0.1,2.6,0.9l20.1,39.6c2.5,4.9,0.5,10.9-4.4,13.4C67,149.6,65.4,150,63.9,150z"/>
</g>
<g>
	<path class="st0" d="M42.8,116.3c-0.7,0-1.4-0.4-1.7-1.1c-0.5-1-0.1-2.1,0.9-2.6l19.4-9.6c1-0.5,2.1-0.1,2.6,0.9
		c0.5,1,0.1,2.1-0.9,2.6l-19.4,9.6C43.4,116.2,43.1,116.3,42.8,116.3z"/>
</g>
<g>
	<path class="st0" d="M114.2,14.5c-0.2,0-0.4,0-0.6-0.1c-1-0.3-1.6-1.4-1.3-2.4l3.3-10.7c0.3-1,1.4-1.6,2.4-1.3
		c1,0.3,1.6,1.4,1.3,2.4l-3.3,10.7C115.8,14,115,14.5,114.2,14.5z"/>
</g>
<g>
	<path class="st0" d="M144,53.7c-0.2,0-0.4,0-0.6-0.1l-9.9-3.1c-1-0.3-1.6-1.4-1.3-2.4c0.3-1,1.4-1.6,2.4-1.3l9.9,3.1
		c1,0.3,1.6,1.4,1.3,2.4C145.6,53.1,144.8,53.7,144,53.7z"/>
</g>
<g>
	<path class="st0" d="M131.6,29.2c-0.7,0-1.3-0.4-1.7-1c-0.5-0.9-0.2-2.1,0.8-2.6l7.9-4.3c0.9-0.5,2.1-0.2,2.6,0.8
		c0.5,0.9,0.2,2.1-0.8,2.6l-7.9,4.3C132.2,29.1,131.9,29.2,131.6,29.2z"/>
</g>
</svg>
