<?xml version="1.0" encoding="utf-8"?>
<!-- Generator: Adobe Illustrator 19.2.1, SVG Export Plug-In . SVG Version: 6.00 Build 0)  -->
<svg version="1.1" id="Слой_1" xmlns="http://www.w3.org/2000/svg" xmlns:xlink="http://www.w3.org/1999/xlink" x="0px" y="0px"
	 viewBox="0 0 150 150" style="enable-background:new 0 0 150 150;" xml:space="preserve">
<g>
	<g>
		<path d="M24.9,48.7c-13.4,0-24.3-10.9-24.3-24.3S11.5,0,24.9,0c1.2,0,2.2,1,2.2,2.2s-1,2.2-2.2,2.2c-11,0-20,9-20,20s9,20,20,20
			s20-9,20-20c0-1.2,1-2.2,2.2-2.2c1.2,0,2.2,1,2.2,2.2C49.3,37.8,38.4,48.7,24.9,48.7z"/>
	</g>
	<g>
		<path d="M125.1,48.7c-13.4,0-24.3-10.9-24.3-24.3c0-1.2,1-2.2,2.2-2.2c1.2,0,2.2,1,2.2,2.2c0,11,9,20,20,20s20-9,20-20
			s-9-20-20-20c-1.2,0-2.2-1-2.2-2.2s1-2.2,2.2-2.2c13.4,0,24.3,10.9,24.3,24.3S138.5,48.7,125.1,48.7z"/>
	</g>
	<g>
		<path d="M125.1,4.4H24.9c-1.2,0-2.2-1-2.2-2.2s1-2.2,2.2-2.2h100.1c1.2,0,2.2,1,2.2,2.2S126.3,4.4,125.1,4.4z"/>
	</g>
	<g>
		<path d="M125.1,59.4H24.9c-1.2,0-2.2-1-2.2-2.2c0-1.2,1-2.2,2.2-2.2h100.1c1.2,0,2.2,1,2.2,2.2C127.2,58.4,126.3,59.4,125.1,59.4z
			"/>
	</g>
	<g>
		<path d="M35.2,150c-1.2,0-2.2-1-2.2-2.2V44.1c0-1.2,1-2.2,2.2-2.2s2.2,1,2.2,2.2v103.7C37.4,149,36.4,150,35.2,150z"/>
	</g>
	<g>
		<path d="M114.8,150c-1.2,0-2.2-1-2.2-2.2V44c0-1.2,1-2.2,2.2-2.2s2.2,1,2.2,2.2v103.8C117,149,116,150,114.8,150z"/>
	</g>
	<g>
		<path d="M88.3,150c-1.2,0-2.2-1-2.2-2.2V57.2c0-1.2,1-2.2,2.2-2.2c1.2,0,2.2,1,2.2,2.2v90.6C90.4,149,89.5,150,88.3,150z"/>
	</g>
	<g>
		<path d="M75,150c-1.2,0-2.2-1-2.2-2.2V57.2c0-1.2,1-2.2,2.2-2.2s2.2,1,2.2,2.2v90.6C77.2,149,76.2,150,75,150z"/>
	</g>
	<g>
		<path d="M101.5,150c-1.2,0-2.2-1-2.2-2.2V57.2c0-1.2,1-2.2,2.2-2.2c1.2,0,2.2,1,2.2,2.2v90.6C103.7,149,102.7,150,101.5,150z"/>
	</g>
	<g>
		<path d="M61.7,150c-1.2,0-2.2-1-2.2-2.2V57.2c0-1.2,1-2.2,2.2-2.2c1.2,0,2.2,1,2.2,2.2v90.6C63.9,149,62.9,150,61.7,150z"/>
	</g>
	<g>
		<path d="M48.5,150c-1.2,0-2.2-1-2.2-2.2V57.2c0-1.2,1-2.2,2.2-2.2c1.2,0,2.2,1,2.2,2.2v90.6C50.7,149,49.7,150,48.5,150z"/>
	</g>
	<g>
		<path d="M102.9,26.5H47.1c-1.2,0-2.2-1-2.2-2.2c0-1.2,1-2.2,2.2-2.2h55.8c1.2,0,2.2,1,2.2,2.2C105.1,25.6,104.1,26.5,102.9,26.5z"
			/>
	</g>
	<g>
		<path d="M24.9,34.6c-5.3,0-9.5-4.3-9.5-9.5s4.3-9.5,9.5-9.5s9.5,4.3,9.5,9.5S30.2,34.6,24.9,34.6z M24.9,19.9
			c-2.9,0-5.2,2.3-5.2,5.2s2.3,5.2,5.2,5.2s5.2-2.3,5.2-5.2S27.8,19.9,24.9,19.9z"/>
	</g>
	<g>
		<path d="M125.1,34.6c-5.3,0-9.5-4.3-9.5-9.5s4.3-9.5,9.5-9.5s9.5,4.3,9.5,9.5S130.3,34.6,125.1,34.6z M125.1,19.9
			c-2.9,0-5.2,2.3-5.2,5.2s2.3,5.2,5.2,5.2c2.9,0,5.2-2.3,5.2-5.2S127.9,19.9,125.1,19.9z"/>
	</g>
	<g>
		<path d="M108.9,42.2H40.6c-1.2,0-2.2-1-2.2-2.2s1-2.2,2.2-2.2h68.3c1.2,0,2.2,1,2.2,2.2S110.1,42.2,108.9,42.2z"/>
	</g>
	<g>
		<path d="M108.9,15.6H40.6c-1.2,0-2.2-1-2.2-2.2s1-2.2,2.2-2.2h68.3c1.2,0,2.2,1,2.2,2.2S110.1,15.6,108.9,15.6z"/>
	</g>
</g>
</svg>
