<?xml version="1.0" encoding="utf-8"?>
<!-- Generator: Adobe Illustrator 19.2.1, SVG Export Plug-In . SVG Version: 6.00 Build 0)  -->
<svg version="1.1" id="Слой_1" xmlns="http://www.w3.org/2000/svg" xmlns:xlink="http://www.w3.org/1999/xlink" x="0px" y="0px"
	 viewBox="0 0 150 150" style="enable-background:new 0 0 150 150;" xml:space="preserve">
<g>
	<g>
		<path d="M134.1,146.8H15.9c-1.2,0-2.1-0.9-2.1-2.1V81.4c0-1.2,1-2.1,2.1-2.1s2.1,0.9,2.1,2.1v61.1H132V81.4c0-1.2,1-2.1,2.1-2.1
			s2.1,0.9,2.1,2.1v63.3C136.2,145.8,135.3,146.8,134.1,146.8z"/>
	</g>
	<g>
		<path d="M2.1,95.5c-0.3,0-0.6-0.1-0.8-0.2C0.5,95,0,94.3,0,93.4v-20c0-0.6,0.2-1.1,0.7-1.5L73.6,3.8c0.8-0.8,2.1-0.8,2.9,0
			l72.9,68.1c0.4,0.4,0.7,1,0.7,1.5v20c0,0.8-0.5,1.6-1.3,1.9c-0.8,0.3-1.7,0.2-2.3-0.4L75,28.2L3.6,95C3.2,95.4,2.6,95.5,2.1,95.5z
			 M75,23.2c0.5,0,1,0.2,1.4,0.6l69.3,64.8V74.4L75,8.2L4.2,74.4v14.2l69.3-64.8C74,23.4,74.5,23.2,75,23.2z"/>
	</g>
	<g>
		<path d="M122.9,132.1h-20.5c-1.2,0-2.1-0.9-2.1-2.1V93.5c0-1.2,1-2.1,2.1-2.1h20.5c1.2,0,2.1,0.9,2.1,2.1V130
			C125,131.1,124.1,132.1,122.9,132.1z M104.6,127.8h16.2V95.6h-16.2V127.8z"/>
	</g>
	<g>
		<path d="M89.5,145.8c-1.2,0-2.1-0.9-2.1-2.1v-48H63.9v48c0,1.2-1,2.1-2.1,2.1s-2.1-0.9-2.1-2.1V93.5c0-1.2,1-2.1,2.1-2.1h27.7
			c1.2,0,2.1,0.9,2.1,2.1v50.1C91.6,144.8,90.7,145.8,89.5,145.8z"/>
	</g>
	<g>
		<path d="M31.9,46.9c-1.2,0-2.1-0.9-2.1-2.1V17.7c0-1.2,1-2.1,2.1-2.1h16.9c1.2,0,2.1,0.9,2.1,2.1v11.5c0,1.2-1,2.1-2.1,2.1
			s-2.1-0.9-2.1-2.1v-9.4H34.1v25C34.1,46,33.1,46.9,31.9,46.9z"/>
	</g>
	<g>
		<path d="M122.9,107.5h-20.5c-1.2,0-2.1-0.9-2.1-2.1s1-2.1,2.1-2.1h20.5c1.2,0,2.1,0.9,2.1,2.1S124.1,107.5,122.9,107.5z"/>
	</g>
	<g>
		<path d="M48.9,132.1H28.4c-1.2,0-2.1-0.9-2.1-2.1V93.5c0-1.2,1-2.1,2.1-2.1h20.5c1.2,0,2.1,0.9,2.1,2.1V130
			C51,131.1,50,132.1,48.9,132.1z M30.5,127.8h16.2V95.6H30.5V127.8z"/>
	</g>
	<g>
		<path d="M48.9,107.5H28.4c-1.2,0-2.1-0.9-2.1-2.1s1-2.1,2.1-2.1h20.5c1.2,0,2.1,0.9,2.1,2.1S50,107.5,48.9,107.5z"/>
	</g>
	<g>
		<path d="M75,74.8c-7,0-12.7-5.7-12.7-12.7S68,49.3,75,49.3c7,0,12.7,5.7,12.7,12.7S82,74.8,75,74.8z M75,53.6
			c-4.7,0-8.5,3.8-8.5,8.5s3.8,8.5,8.5,8.5c4.7,0,8.5-3.8,8.5-8.5S79.7,53.6,75,53.6z"/>
	</g>
</g>
</svg>
