<?xml version="1.0" encoding="utf-8"?>
<!-- Generator: Adobe Illustrator 19.2.1, SVG Export Plug-In . SVG Version: 6.00 Build 0)  -->
<svg version="1.1" id="Слой_1" xmlns="http://www.w3.org/2000/svg" xmlns:xlink="http://www.w3.org/1999/xlink" x="0px" y="0px"
	 viewBox="0 0 150 150" style="enable-background:new 0 0 150 150;" xml:space="preserve">
<style type="text/css">
	.st0{fill:#222221;}
</style>
<g>
	<g>
		<g>
			<path class="st0" d="M30.8,131.5c-0.5,0-1-0.2-1.4-0.6L0.6,102.1c-0.4-0.4-0.6-0.9-0.6-1.4s0.2-1,0.6-1.4l5.1-5.1
				c1.9-1.9,4.5-2.9,7.4-2.7c2.6,0.2,5.2,1.4,7.1,3.3l17,17c1.9,1.9,3,4.4,3,6.9c0,2.6-1,5-3,7l-5.1,5.1
				C31.8,131.3,31.3,131.5,30.8,131.5z M4.7,100.7l26.1,26.1l3.7-3.7c1.2-1.2,1.8-2.7,1.8-4.2c0-1.5-0.7-3-1.8-4.2l-17-17
				c-1.2-1.2-2.9-2-4.7-2.2C11,95.4,9.5,95.9,8.4,97L4.7,100.7z"/>
		</g>
		<g>
			<path class="st0" d="M34.2,112.9c-0.5,0-1-0.2-1.4-0.6c-0.8-0.8-0.8-2,0-2.7l36.4-36.4c0.8-0.8,2-0.8,2.7,0c0.8,0.8,0.8,2,0,2.7
				l-36.4,36.4C35.2,112.7,34.7,112.9,34.2,112.9z"/>
		</g>
		<g>
			<path class="st0" d="M21.3,100c-0.5,0-1-0.2-1.4-0.6c-0.8-0.8-0.8-2,0-2.7l36.4-36.4c0.8-0.8,2-0.8,2.7,0c0.8,0.8,0.8,2,0,2.7
				L22.6,99.4C22.3,99.8,21.8,100,21.3,100z"/>
		</g>
		<g>
			<path class="st0" d="M109.3,61.3c-0.5,0-1-0.2-1.4-0.6L70.7,23.6c-0.8-0.8-0.8-2,0-2.7c0.8-0.8,2-0.8,2.7,0L110.7,58
				c0.8,0.8,0.8,2,0,2.7C110.3,61.1,109.8,61.3,109.3,61.3z"/>
		</g>
		<g>
			<path class="st0" d="M82.7,87.9c-0.5,0-1-0.2-1.4-0.6L44.2,50.1c-0.8-0.8-0.8-2,0-2.7c0.8-0.8,2-0.8,2.7,0l37.2,37.2
				c0.8,0.8,0.8,2,0,2.7C83.7,87.7,83.2,87.9,82.7,87.9z"/>
		</g>
		<g>
			<path class="st0" d="M39.9,53.5c-1.9,0-3.7-0.7-5-2.1L30,46.6c-1.3-1.3-2.1-3.1-2.1-5c0-1.9,0.7-3.7,2.1-5L61.4,5.1
				c1.3-1.3,3.1-2.1,5-2.1c1.9,0,3.7,0.7,5,2.1l4.8,4.8c0,0,0,0,0,0c2.8,2.8,2.8,7.3,0,10.1L44.9,51.4
				C43.5,52.7,41.8,53.5,39.9,53.5z M66.4,6.9c-0.8,0-1.7,0.3-2.3,0.9L32.8,39.3c-1.3,1.3-1.3,3.3,0,4.6l4.8,4.8
				c1.3,1.3,3.3,1.3,4.6,0l31.4-31.4c1.3-1.3,1.3-3.3,0-4.6l-4.8-4.8C68.1,7.2,67.2,6.9,66.4,6.9z"/>
		</g>
		<g>
			<path class="st0" d="M89.9,103.5c-1.9,0-3.7-0.7-5-2.1l-4.8-4.8c-2.8-2.8-2.8-7.3,0-10.1l31.4-31.4c1.3-1.3,3.1-2.1,5-2.1
				c1.9,0,3.7,0.7,5,2.1l4.8,4.8c1.3,1.3,2.1,3.1,2.1,5c0,1.9-0.7,3.7-2.1,5L95,101.5C93.6,102.8,91.8,103.5,89.9,103.5z M116.5,57
				c-0.9,0-1.7,0.3-2.3,0.9L82.8,89.3c-0.6,0.6-0.9,1.4-0.9,2.3c0,0.9,0.3,1.7,0.9,2.3l4.8,4.8c1.3,1.3,3.3,1.3,4.6,0l31.4-31.4
				c0.6-0.6,0.9-1.4,0.9-2.3c0-0.9-0.3-1.7-0.9-2.3c0,0,0,0,0,0l-4.8-4.8C118.2,57.3,117.4,57,116.5,57z"/>
		</g>
		<g>
			<path class="st0" d="M53.7,57.3c-0.5,0-1-0.2-1.4-0.6c-0.8-0.8-0.8-2,0-2.7l24.8-24.8c0.8-0.8,2-0.8,2.7,0c0.8,0.8,0.8,2,0,2.7
				L55,56.7C54.7,57.1,54.2,57.3,53.7,57.3z"/>
		</g>
		<g>
			<path class="st0" d="M76.5,80.1c-0.5,0-1-0.2-1.4-0.6c-0.8-0.8-0.8-2,0-2.7l25.1-25.1c0.8-0.8,2-0.8,2.7,0c0.8,0.8,0.8,2,0,2.7
				L77.9,79.6C77.5,80,77,80.1,76.5,80.1z"/>
		</g>
	</g>
	<g>
		<path class="st0" d="M150,142.5c0,2.5-2,4.5-4.5,4.5h-91c-2.5,0-4.5-2-4.5-4.5v-14c0-2.5,2-4.5,4.5-4.5h91c2.5,0,4.5,2,4.5,4.5
			V142.5z M146,128.6c0-0.4-0.3-0.6-0.6-0.6H54.6c-0.4,0-0.6,0.3-0.6,0.6v14.7c0,0.4,0.3,0.6,0.6,0.6h90.7c0.4,0,0.6-0.3,0.6-0.6
			V128.6z"/>
	</g>
	<g>
		<path class="st0" d="M70.5,145.9c-1.1,0-1.5-0.9-1.5-1.9v-18.1c0-1.1,0.4-1.9,1.5-1.9s1.5,0.9,1.5,1.9V144
			C72,145,71.6,145.9,70.5,145.9z"/>
	</g>
	<g>
		<path class="st0" d="M90,145.9c-1.1,0-2-0.9-2-1.9v-18.1c0-1.1,0.9-1.9,2-1.9s2,0.9,2,1.9V144C92,145,91.1,145.9,90,145.9z"/>
	</g>
	<g>
		<path class="st0" d="M110.5,145.9c-1.1,0-1.5-0.9-1.5-1.9v-18.1c0-1.1,0.4-1.9,1.5-1.9s1.5,0.9,1.5,1.9V144
			C112,145,111.6,145.9,110.5,145.9z"/>
	</g>
	<g>
		<path class="st0" d="M130,145.9c-1.1,0-2-0.9-2-1.9v-18.1c0-1.1,0.9-1.9,2-1.9s2,0.9,2,1.9V144C132,145,131.1,145.9,130,145.9z"/>
	</g>
</g>
</svg>
