<?xml version="1.0" encoding="utf-8"?>
<!-- Generator: Adobe Illustrator 19.2.1, SVG Export Plug-In . SVG Version: 6.00 Build 0)  -->
<svg version="1.1" id="Capa_1" xmlns="http://www.w3.org/2000/svg" xmlns:xlink="http://www.w3.org/1999/xlink" x="0px" y="0px"
	 viewBox="0 0 512 512" style="enable-background:new 0 0 512 512;" xml:space="preserve">
<path d="M255.8926392,0C142.7589111,0,50.6633301,92.0956421,50.6633301,205.2293701
	c0,12.8804932,1.1807251,25.8683472,3.6494751,38.5341797c0.1073608,0.7513428,0.5366821,3.0054321,1.3953857,6.8695679
	c3.112793,13.8465576,7.7283325,27.4784546,13.7391968,40.4662476
	c22.1115112,52.0587158,70.7354126,132.0251465,177.4289551,217.680481C249.5597534,510.9266357,252.7799072,512,256,512
	c3.2201538,0,6.4402466-1.0733643,9.1237183-3.2201538c106.5861206-85.6553345,155.3173828-165.6217651,177.428894-217.680481
	c6.0109253-12.987793,10.6264038-26.5123291,13.7391968-40.4662476c0.8587036-3.8641357,1.2880249-6.1182251,1.3953857-6.8695679
	c2.3613892-12.6658325,3.6494751-25.6536865,3.6494751-38.5341797C461.1220093,92.0956421,369.0264282,0,255.8926392,0z
	 M255.8926392,308.8100586c-55.9228516,0-101.3265991-45.5111084-101.3265991-101.3265991
	s45.5111084-101.3265991,101.3265991-101.3265991c55.8155518,0,101.3266602,45.5111084,101.3266602,101.3265991
	S311.8154907,308.8100586,255.8926392,308.8100586z"/>
</svg>
