<?xml version="1.0" encoding="utf-8"?>
<!-- Generator: Adobe Illustrator 19.2.1, SVG Export Plug-In . SVG Version: 6.00 Build 0)  -->
<svg version="1.1" id="Capa_1" xmlns="http://www.w3.org/2000/svg" xmlns:xlink="http://www.w3.org/1999/xlink" x="0px" y="0px"
	 viewBox="0 0 512 512" style="enable-background:new 0 0 512 512;" xml:space="preserve">
<g>
	<path d="M15.9935646,96.9663544l240.0059814,198.9890289L496.0055847,96.9663544
		c-3.4238281-1.5370331-7.1900635-2.4475937-11.1836853-2.4475937H27.1772518
		C23.1844845,94.5187607,19.4182243,95.4302368,15.9935646,96.9663544z"/>
	<path d="M0.000061,121.3741531v269.2424927c0,3.5675964,0.7397951,6.9635315,2.0206158,10.0744629l158.9859161-158.919342
		L2.4755318,110.3235245C0.9205259,113.6996536,0.000061,117.4281387,0.000061,121.3741531z"/>
	<path d="M509.9793091,400.6991882C511.2601929,397.5783386,512,394.1923218,512,390.6246948V121.3732376
		c0-3.9460144-0.9205322-7.673584-2.4755249-11.0506287L350.9934082,241.7708435L509.9793091,400.6991882z"/>
	<path d="M484.8209839,417.4720764c4.4026184,0,8.4997253-1.13797,12.180542-2.9779358L336.3464355,253.9046326
		l-74.2283325,61.5462341c-1.7644653,1.47052-3.9460144,2.2103271-6.1185608,2.2103271
		c-2.1725006,0-4.3540497-0.7398071-6.118576-2.2103271L175.65271,253.9046326L14.9976187,414.4940796
		c3.6799574,1.8391113,7.7787676,2.9779358,12.1796331,2.9779358v0.000061H484.8209839z"/>
</g>
</svg>
