<?xml version="1.0" encoding="utf-8"?>
<!-- Generator: Adobe Illustrator 19.2.1, SVG Export Plug-In . SVG Version: 6.00 Build 0)  -->
<svg version="1.1" id="Слой_1" xmlns="http://www.w3.org/2000/svg" xmlns:xlink="http://www.w3.org/1999/xlink" x="0px" y="0px"
	 viewBox="0 0 150 150" style="enable-background:new 0 0 150 150;" xml:space="preserve">
<path d="M107.9,40.9C94.6,28.5,87.6,14.3,87.6,0H72.5v89.7c-3.1-1.3-6.6-2-10.2-2c-8.8,0-17.8,4-24.7,11
	c-12.8,13.1-14.4,32.8-3.6,43.9c4.7,4.8,11.1,7.4,18.2,7.4c8.8,0,17.8-4,24.7-11.1c6-6.1,9.7-13.9,10.6-21.8
	c0.1-1.1,0.2-2.3,0.2-3.4h0V41.4c2.9,3.8,6.3,7.4,10,11c16,15.1,12.7,34.4,4.9,46.3l12.6,8.6C127.1,88.9,129.5,61.3,107.9,40.9z"/>
</svg>
