<?xml version="1.0" encoding="utf-8"?>
<!-- Generator: Adobe Illustrator 19.2.1, SVG Export Plug-In . SVG Version: 6.00 Build 0)  -->
<svg version="1.1" id="Слой_1" xmlns="http://www.w3.org/2000/svg" xmlns:xlink="http://www.w3.org/1999/xlink" x="0px" y="0px"
	 viewBox="0 0 150 150" style="enable-background:new 0 0 150 150;" xml:space="preserve">
<g>
	<path d="M149.9,72.2l-13.6-58.7c-0.5-2.3-2.8-3.7-5.1-3.2L26.8,34.5c-2.2,0.5-3.6,2.7-3.2,5H11.5C5.2,39.5,0,44.6,0,51v12.5v52.4
		v12.5c0,6.3,5.2,11.5,11.5,11.5h110c6.3,0,11.5-5.2,11.5-11.5V80.5l13.7-3.2C149,76.8,150.4,74.5,149.9,72.2z M121.5,136.1h-110
		c-4.1,0-7.5-3.2-7.8-7.3h3c1,0,1.8-0.8,1.8-1.8s-0.8-1.8-1.8-1.8h-3v-9.4V66.1h3c1,0,1.8-0.8,1.8-1.8s-0.8-1.8-1.8-1.8h-3V51
		c0-4.3,3.5-7.9,7.9-7.9h12.9h0.1l2.2,8.8H11.5c-1,0-1.8,0.8-1.8,1.8s0.8,1.8,1.8,1.8H101l0,0l0,0h20.4c4,0,7.3,3,7.8,6.9h-3
		c-1,0-1.8,0.8-1.8,1.8s0.8,1.8,1.8,1.8h3v11.2h-17.6c-8.1,0-14.7,6.6-14.7,14.7s6.6,14.7,14.7,14.7h17.6v18.5h-3
		c-1,0-1.8,0.8-1.8,1.8s0.8,1.8,1.8,1.8h3C129,132.9,125.6,136.1,121.5,136.1z M76.8,50.1c0-6.3,5.1-11.4,11.4-11.4
		s11.4,5.1,11.4,11.4c0,0.6-0.1,1.2-0.2,1.8H77C76.9,51.3,76.8,50.7,76.8,50.1z M129.4,103.1h-17.6c-6.1,0-11.1-5-11.1-11.1
		s5-11.1,11.1-11.1h17.6V103.1z M145.9,73.8l-12.9,3V63.4c0-6.3-5.2-11.5-11.5-11.5h-18.3c0.1-0.6,0.1-1.2,0.1-1.8
		c0-8.3-6.8-15.1-15.1-15.1s-15.1,6.8-15.1,15.1c0,0.6,0,1.2,0.1,1.8H30.4l-3.2-13.2c-0.1-0.3,0.1-0.7,0.5-0.7L132,13.9
		c0.2,0,0.4,0,0.5,0.1s0.2,0.2,0.3,0.4l13.6,58.7C146.4,73.4,146.2,73.7,145.9,73.8z"/>
	<path d="M106.6,92c0,4.3,3.5,7.7,7.7,7.7s7.7-3.5,7.7-7.7s-3.5-7.7-7.7-7.7S106.6,87.8,106.6,92z M114.3,87.9
		c2.3,0,4.1,1.8,4.1,4.1c0,2.3-1.8,4.1-4.1,4.1c-2.3,0-4.1-1.8-4.1-4.1C110.3,89.8,112.1,87.9,114.3,87.9z"/>
	<path d="M43.5,125.3h-9.2c-1,0-1.8,0.8-1.8,1.8s0.8,1.8,1.8,1.8h9.2c1,0,1.8-0.8,1.8-1.8S44.5,125.3,43.5,125.3z"/>
	<path d="M61.9,125.3h-9.2c-1,0-1.8,0.8-1.8,1.8s0.8,1.8,1.8,1.8h9.2c1,0,1.8-0.8,1.8-1.8S62.9,125.3,61.9,125.3z"/>
	<path d="M25.1,125.3h-9.2c-1,0-1.8,0.8-1.8,1.8s0.8,1.8,1.8,1.8h9.2c1,0,1.8-0.8,1.8-1.8S26.1,125.3,25.1,125.3z"/>
	<path d="M117.1,125.3h-9.2c-1,0-1.8,0.8-1.8,1.8s0.8,1.8,1.8,1.8h9.2c1,0,1.8-0.8,1.8-1.8S118.1,125.3,117.1,125.3z"/>
	<path d="M80.3,125.3h-9.2c-1,0-1.8,0.8-1.8,1.8s0.8,1.8,1.8,1.8h9.2c1,0,1.8-0.8,1.8-1.8S81.3,125.3,80.3,125.3z"/>
	<path d="M98.7,125.3h-9.2c-1,0-1.8,0.8-1.8,1.8s0.8,1.8,1.8,1.8h9.2c1,0,1.8-0.8,1.8-1.8S99.7,125.3,98.7,125.3z"/>
	<path d="M107.9,66.1h9.2c1,0,1.8-0.8,1.8-1.8s-0.8-1.8-1.8-1.8h-9.2c-1,0-1.8,0.8-1.8,1.8C106.1,65.3,106.9,66.1,107.9,66.1z"/>
	<path d="M52.7,66.1h9.2c1,0,1.8-0.8,1.8-1.8s-0.8-1.8-1.8-1.8h-9.2c-1,0-1.8,0.8-1.8,1.8C50.9,65.3,51.7,66.1,52.7,66.1z"/>
	<path d="M89.5,66.1h9.2c1,0,1.8-0.8,1.8-1.8s-0.8-1.8-1.8-1.8h-9.2c-1,0-1.8,0.8-1.8,1.8C87.7,65.3,88.5,66.1,89.5,66.1z"/>
	<path d="M80.3,62.5h-9.2c-1,0-1.8,0.8-1.8,1.8c0,1,0.8,1.8,1.8,1.8h9.2c1,0,1.8-0.8,1.8-1.8C82.1,63.3,81.3,62.5,80.3,62.5z"/>
	<path d="M25.1,62.5h-9.2c-1,0-1.8,0.8-1.8,1.8c0,1,0.8,1.8,1.8,1.8h9.2c1,0,1.8-0.8,1.8-1.8C26.9,63.3,26.1,62.5,25.1,62.5z"/>
	<path d="M43.5,62.5h-9.2c-1,0-1.8,0.8-1.8,1.8c0,1,0.8,1.8,1.8,1.8h9.2c1,0,1.8-0.8,1.8-1.8C45.3,63.3,44.5,62.5,43.5,62.5z"/>
</g>
</svg>
