<?xml version="1.0" encoding="utf-8"?>
<!-- Generator: Adobe Illustrator 19.2.1, SVG Export Plug-In . SVG Version: 6.00 Build 0)  -->
<svg version="1.1" id="Capa_1" xmlns="http://www.w3.org/2000/svg" xmlns:xlink="http://www.w3.org/1999/xlink" x="0px" y="0px"
	 viewBox="0 0 512 512" style="enable-background:new 0 0 512 512;" xml:space="preserve">
<g>
	<path d="M494.5007019,370.2592773c-21.4566345-21.6680298-42.9132996-43.0189819-63.7357483-63.6300659
		c-11.3096924-11.203949-24.5219116-17.1230469-38.3682861-17.1230469c-13.846405,0-27.0586243,5.9190979-38.2626038,17.0173645
		l-2.8538513,2.8538513c-11.3096924,11.203949-23.0421143,22.830719-34.3517761,34.4574585
		c-2.3253784-1.1626587-4.6506958-2.3253479-6.8703613-3.4880066c-5.1791992-2.5367432-10.1470032-4.967804-14.4806213-7.7159119
		c-34.034668-21.3509827-65.3212128-49.7836609-95.550766-87.0949707
		c-14.6919861-18.0743256-24.9446869-34.1403809-32.1321259-50.4178314
		c10.0412903-9.7241974,19.8711853-19.65979,29.4896851-29.3839874c2.4310455-2.4310455,4.9677887-4.9677887,7.3988342-7.3988495
		c23.5706177-23.6763,23.4649048-54.3286514-0.1056976-78.1106491c-7.1874542-7.2931519-14.5863037-14.5862961-21.668045-21.6680489
		c-3.170929-3.1709328-6.3418732-6.3418655-9.5128021-9.5127983c-3.3823242-3.382328-6.6589661-6.6589584-10.0412903-10.0412903
		c-7.1874542-7.2931442-14.6919861-14.7976875-22.1965332-22.0908318
		C129.9490509,5.813396,116.631134,0.0000181,102.890419,0.0000181S75.8317871,5.813396,64.6278229,16.9116631
		c-5.390583,5.3905869-10.8868675,10.7811718-16.0660629,16.0660591
		c-7.6102371,7.7159386-15.537571,15.6432686-23.4649048,23.2535095
		C10.2991667,70.2890396,2.0547409,88.0462646,0.4692742,109.0801163
		c-2.4310489,33.0834122,6.764658,62.9958878,15.0090837,85.403801
		c18.8142014,50.6292419,47.5639992,98.6160278,87.9405441,146.7085266
		c50.3121338,59.8249512,110.8769684,107.1775208,180.0033112,140.8951416
		c38.0512085,18.4971008,70.7118225,27.9042053,102.5268555,29.7010803
		c2.3253479,0.1057129,4.6506958,0.2113953,6.8703613,0.2113953c26.847229,0,48.9380493-9.5127869,65.6383057-28.1156006
		c7.187439-8.03302,14.9034119-15.5375671,23.0421143-23.4649048c4.1221924-4.01651,8.3501282-8.1387634,12.5780334-12.3666687
		C517.7542114,424.270874,517.8599243,393.8299255,494.5007019,370.2592773z"/>
</g>
</svg>
