<?xml version="1.0" encoding="utf-8"?>
<!-- Generator: Adobe Illustrator 19.2.1, SVG Export Plug-In . SVG Version: 6.00 Build 0)  -->
<svg version="1.1" id="Слой_1" xmlns="http://www.w3.org/2000/svg" xmlns:xlink="http://www.w3.org/1999/xlink" x="0px" y="0px"
	 viewBox="0 0 150 150" style="enable-background:new 0 0 150 150;" xml:space="preserve">
<g>
	<path d="M97.4,38.1H54.3c-1.1,0-1.9,0.9-1.9,1.9c0,1.1,0.9,1.9,1.9,1.9h43.1c1.1,0,1.9-0.9,1.9-1.9C99.3,38.9,98.5,38.1,97.4,38.1z
		"/>
	<path d="M55.9,93H30.2c-1.1,0-1.9,0.9-1.9,1.9s0.9,1.9,1.9,1.9h25.7c1.1,0,1.9-0.9,1.9-1.9S57,93,55.9,93z"/>
	<path d="M55.9,104H30.2c-1.1,0-1.9,0.9-1.9,1.9s0.9,1.9,1.9,1.9h25.7c1.1,0,1.9-0.9,1.9-1.9S57,104,55.9,104z"/>
	<path d="M55.9,114.9H30.2c-1.1,0-1.9,0.9-1.9,1.9c0,1.1,0.9,1.9,1.9,1.9h25.7c1.1,0,1.9-0.9,1.9-1.9
		C57.9,115.8,57,114.9,55.9,114.9z"/>
	<path d="M97.4,93H71.7c-1.1,0-1.9,0.9-1.9,1.9s0.9,1.9,1.9,1.9h25.7c1.1,0,1.9-0.9,1.9-1.9S98.5,93,97.4,93z"/>
	<path d="M97.4,104H71.7c-1.1,0-1.9,0.9-1.9,1.9s0.9,1.9,1.9,1.9h25.7c1.1,0,1.9-0.9,1.9-1.9S98.5,104,97.4,104z"/>
	<path d="M97.4,114.9H71.7c-1.1,0-1.9,0.9-1.9,1.9c0,1.1,0.9,1.9,1.9,1.9h25.7c1.1,0,1.9-0.9,1.9-1.9
		C99.3,115.8,98.5,114.9,97.4,114.9z"/>
	<path d="M138.4,20.2c0-11.1-9.1-20.2-20.2-20.2c-6.9,0-13,3.5-16.7,8.8c0,0,0,0,0,0H29.4c-2.5,0-4.5,2-4.5,4.5v6.9h-8.8
		c-2.5,0-4.5,2-4.5,4.5v120.8c0,2.5,2,4.5,4.5,4.5h95.4c2.5,0,4.5-2,4.5-4.5v-6.9h8.8c2.5,0,4.5-2,4.5-4.5V37.2c0-0.1,0-0.1,0-0.2
		C134.8,33.4,138.4,27.2,138.4,20.2z M28.8,13.3c0-0.4,0.3-0.6,0.6-0.6h70.1C98.6,15,98,17.5,98,20.2c0,0,0,0,0,0H28.8V13.3z
		 M112.2,145.5c0,0.4-0.3,0.6-0.6,0.6H16.1c-0.4,0-0.6-0.3-0.6-0.6V24.7c0-0.4,0.3-0.6,0.6-0.6h82.3c1.4,7.3,6.8,13.1,13.7,15.3
		V145.5z M125.5,134.1c0,0.4-0.3,0.6-0.6,0.6H116V40.2c0.7,0.1,1.5,0.1,2.2,0.1c2.6,0,5-0.5,7.2-1.4V134.1z M118.2,36.5
		c-9,0-16.3-7.3-16.3-16.3s7.3-16.3,16.3-16.3s16.3,7.3,16.3,16.3S127.2,36.5,118.2,36.5z"/>
	<path d="M131.8,15.5c-0.2-0.7-0.8-1.2-1.6-1.3l-7-1l-3.1-6.3c-0.3-0.7-1-1.1-1.7-1.1s-1.4,0.4-1.7,1.1l-3.1,6.3l-7,1
		c-0.7,0.1-1.3,0.6-1.6,1.3c-0.2,0.7,0,1.5,0.5,2l5.1,4.9l-1.2,7c-0.1,0.7,0.2,1.5,0.8,1.9c0.3,0.2,0.7,0.4,1.1,0.4
		c0.3,0,0.6-0.1,0.9-0.2l6.3-3.3l6.3,3.3c0.6,0.3,1.4,0.3,2-0.1c0.6-0.4,0.9-1.2,0.8-1.9l-1.2-7l5.1-4.9
		C131.9,17,132,16.2,131.8,15.5z M122.8,20.4c-0.5,0.4-0.7,1.1-0.6,1.7l0.7,4.1l-3.7-1.9c-0.6-0.3-1.2-0.3-1.8,0l-3.7,1.9l0.7-4.1
		c0.1-0.6-0.1-1.3-0.6-1.7l-3-2.9l4.1-0.6c0.6-0.1,1.2-0.5,1.5-1.1l1.9-3.8l1.9,3.8c0.3,0.6,0.8,1,1.5,1.1l4.1,0.6L122.8,20.4z"/>
	<path d="M34.6,46.8c0.4,0.4,0.9,0.6,1.4,0.6c0.5,0,1-0.2,1.4-0.6l9.3-9.3c0.8-0.8,0.8-2,0-2.7c-0.8-0.8-2-0.8-2.7,0l-7.9,7.9
		l-4.6-4.6c-0.8-0.8-2-0.8-2.7,0s-0.8,2,0,2.7L34.6,46.8z"/>
	<path d="M97.4,56.1H54.3c-1.1,0-1.9,0.9-1.9,1.9s0.9,1.9,1.9,1.9h43.1c1.1,0,1.9-0.9,1.9-1.9S98.5,56.1,97.4,56.1z"/>
	<path d="M34.6,64.8c0.4,0.4,0.9,0.6,1.4,0.6c0.5,0,1-0.2,1.4-0.6l9.3-9.3c0.8-0.8,0.8-2,0-2.7c-0.8-0.8-2-0.8-2.7,0l-7.9,7.9
		l-4.6-4.6c-0.8-0.8-2-0.8-2.7,0c-0.8,0.8-0.8,2,0,2.7L34.6,64.8z"/>
	<path d="M97.4,75.3H54.3c-1.1,0-1.9,0.9-1.9,1.9s0.9,1.9,1.9,1.9h43.1c1.1,0,1.9-0.9,1.9-1.9S98.5,75.3,97.4,75.3z"/>
	<path d="M34.6,84.1c0.4,0.4,0.9,0.6,1.4,0.6c0.5,0,1-0.2,1.4-0.6l9.3-9.3c0.8-0.8,0.8-2,0-2.7c-0.8-0.8-2-0.8-2.7,0L35.9,80
		l-4.6-4.6c-0.8-0.8-2-0.8-2.7,0c-0.8,0.8-0.8,2,0,2.7L34.6,84.1z"/>
</g>
</svg>
