<?xml version="1.0" encoding="utf-8"?>
<!-- Generator: Adobe Illustrator 19.2.1, SVG Export Plug-In . SVG Version: 6.00 Build 0)  -->
<svg version="1.1" id="Слой_1" xmlns="http://www.w3.org/2000/svg" xmlns:xlink="http://www.w3.org/1999/xlink" x="0px" y="0px"
	 viewBox="0 0 150 150" style="enable-background:new 0 0 150 150;" xml:space="preserve">
<g>
	<path d="M125.8,11.8h-7.4V7.6c0-4.2-3.4-7.6-7.6-7.6s-7.6,3.4-7.6,7.6v4.2H24.2c-2.6,0-4.8,2.1-4.8,4.8v128.6
		c0,2.6,2.1,4.8,4.8,4.8h101.6c2.6,0,4.8-2.1,4.8-4.8V16.6C130.6,14,128.4,11.8,125.8,11.8z M107.2,7.6c0-2,1.6-3.5,3.5-3.5
		c2,0,3.5,1.6,3.5,3.5v4.2h-7.1V7.6z M126.5,145.2c0,0.4-0.3,0.7-0.7,0.7H24.2c-0.4,0-0.7-0.3-0.7-0.7V16.6c0-0.4,0.3-0.7,0.7-0.7
		h90.1v11.4c0,2-1.6,3.5-3.5,3.5c-2,0-3.5-1.6-3.5-3.5V22c0-1.1-0.9-2.1-2.1-2.1s-2.1,0.9-2.1,2.1v5.3c0,4.2,3.4,7.6,7.6,7.6
		s7.6-3.4,7.6-7.6V15.9h7.4c0.4,0,0.7,0.3,0.7,0.7V145.2z"/>
	<path d="M75,75.2c12.3,0,22.2-10,22.2-22.2S87.3,30.7,75,30.7S52.8,40.7,52.8,53S62.7,75.2,75,75.2z M65.5,68.4
		c0.2-5.1,4.4-9.1,9.5-9.1c5.1,0,9.3,4.1,9.5,9.1c-2.8,1.7-6,2.7-9.5,2.7C71.5,71.1,68.3,70.1,65.5,68.4z M70.3,50.4
		c0-2.6,2.1-4.7,4.7-4.7c2.6,0,4.7,2.1,4.7,4.7c0,2.6-2.1,4.7-4.7,4.7C72.4,55.2,70.3,53,70.3,50.4z M75,34.8
		c10,0,18.1,8.1,18.1,18.1c0,4.8-1.9,9.2-5,12.4c-1-3.8-3.5-6.9-6.9-8.7c1.6-1.6,2.6-3.8,2.6-6.3c0-4.9-4-8.8-8.8-8.8
		c-4.9,0-8.8,4-8.8,8.8c0,2.4,1,4.7,2.6,6.3c-3.4,1.8-5.9,4.9-6.9,8.7c-3.1-3.2-5-7.6-5-12.4C56.9,43,65,34.8,75,34.8z"/>
	<path d="M110.8,89.3H39.2c-1.1,0-2.1,0.9-2.1,2.1s0.9,2.1,2.1,2.1h71.5c1.1,0,2.1-0.9,2.1-2.1S111.9,89.3,110.8,89.3z"/>
	<path d="M110.8,101H39.2c-1.1,0-2.1,0.9-2.1,2.1c0,1.1,0.9,2.1,2.1,2.1h71.5c1.1,0,2.1-0.9,2.1-2.1C112.8,102,111.9,101,110.8,101z
		"/>
	<path d="M110.8,112.8H39.2c-1.1,0-2.1,0.9-2.1,2.1s0.9,2.1,2.1,2.1h71.5c1.1,0,2.1-0.9,2.1-2.1S111.9,112.8,110.8,112.8z"/>
	<path d="M110.8,124.4H39.2c-1.1,0-2.1,0.9-2.1,2.1c0,1.1,0.9,2.1,2.1,2.1h71.5c1.1,0,2.1-0.9,2.1-2.1
		C112.8,125.3,111.9,124.4,110.8,124.4z"/>
</g>
</svg>
