<?xml version="1.0" encoding="utf-8"?>
<!-- Generator: Adobe Illustrator 19.2.1, SVG Export Plug-In . SVG Version: 6.00 Build 0)  -->
<svg version="1.1" id="Слой_1" xmlns="http://www.w3.org/2000/svg" xmlns:xlink="http://www.w3.org/1999/xlink" x="0px" y="0px"
	 viewBox="0 0 21 25" style="enable-background:new 0 0 21 25;" xml:space="preserve">
<path d="M21.0021,19.7350998l-0.0841999,0.1023006C18.1396999,23.1655998,14.4398003,25.0007,10.5005999,25.0007
	c-3.9393997,0-7.6389999-1.8351002-10.4174995-5.1632996l-0.0839-0.1023006l0.0196-0.1285
	c0.5368-3.4918995,2.3648-6.3000002,5.1482-7.9041996l0.1977-0.1140003l0.1577001,0.1666002
	C6.8371,13.1313,8.6049004,13.8880997,10.5,13.8880997c1.8952999,0,3.6631002-0.7567997,4.9773998-2.1330996l0.158-0.1666002
	l0.1978006,0.1140003c2.7833004,1.6041994,4.6113987,4.4123001,5.1483994,7.9041996L21.0021,19.7350998z M10.5005999,12.4826002
	c3.4470997,0,6.2519999-2.7993002,6.2519999-6.2415004S13.9476995-0.0004,10.5005999-0.0004
	c-3.447,0-6.2518997,2.7993-6.2518997,6.2414999S7.0535998,12.4826002,10.5005999,12.4826002z"/>
</svg>
