<?xml version="1.0" encoding="utf-8"?>
<!-- Generator: Adobe Illustrator 19.2.1, SVG Export Plug-In . SVG Version: 6.00 Build 0)  -->
<svg version="1.1" id="Слой_1" xmlns="http://www.w3.org/2000/svg" xmlns:xlink="http://www.w3.org/1999/xlink" x="0px" y="0px"
	 viewBox="0 0 150 150" style="enable-background:new 0 0 150 150;" xml:space="preserve">
<g>
	<g>
		<path d="M73.1,112c-13.2,0-25.6-5.1-34.9-14.4c-9.3-9.3-14.4-21.7-14.4-34.9s5.1-25.6,14.4-34.9c9.3-9.3,21.7-14.4,34.9-14.4
			c13.2,0,25.6,5.1,34.9,14.4c9.3,9.3,14.4,21.7,14.4,34.9s-5.1,25.6-14.4,34.9C98.6,106.9,86.3,112,73.1,112z M73.1,17.6
			c-12.1,0-23.4,4.7-31.9,13.2S28,50.6,28,62.7s4.7,23.4,13.2,31.9s19.9,13.2,31.9,13.2c12.1,0,23.4-4.7,31.9-13.2l0,0
			c8.5-8.5,13.2-19.9,13.2-31.9s-4.7-23.4-13.2-31.9S85.1,17.6,73.1,17.6z"/>
	</g>
	<g>
		<path d="M73.1,129.2c-17.2,0-34.5-6.6-47.6-19.7c-0.8-0.8-0.8-2.1,0-3c0.8-0.8,2.1-0.8,3,0c24.6,24.6,64.7,24.6,89.3,0
			c24.6-24.6,24.6-64.7,0-89.3c-0.8-0.8-0.8-2.1,0-3c0.8-0.8,2.1-0.8,3,0c26.3,26.3,26.3,69,0,95.2
			C107.6,122.6,90.3,129.2,73.1,129.2z"/>
	</g>
	<g>
		<path d="M118.6,73.3c-0.5,0-1.1-0.2-1.5-0.6L62.3,17.9c-0.8-0.8-0.8-2.1,0-3c0.8-0.8,2.1-0.8,3,0l54.8,54.8c0.8,0.8,0.8,2.1,0,3
			C119.6,73.1,119.1,73.3,118.6,73.3z"/>
	</g>
	<g>
		<path d="M81.2,110.7c-0.5,0-1.1-0.2-1.5-0.6L25.8,56.1c-0.8-0.8-0.8-2.1,0-3c0.8-0.8,2.1-0.8,3,0l53.9,53.9c0.8,0.8,0.8,2.1,0,3
			C82.3,110.5,81.8,110.7,81.2,110.7z"/>
	</g>
	<g>
		<path d="M106.5,98.2c-0.5,0-1.1-0.2-1.5-0.6L38.2,30.8c-0.8-0.8-0.8-2.1,0-3c0.8-0.8,2.1-0.8,3,0l66.8,66.8c0.8,0.8,0.8,2.1,0,3
			C107.5,98,107,98.2,106.5,98.2z"/>
	</g>
	<g>
		<path d="M39.7,98.2c-0.9,0-1.8-0.6-2-1.6c-0.3-1.2-7.1-30.7,15.8-53.5C76.3,20.2,105.7,27,107,27.3c1.1,0.3,1.8,1.4,1.5,2.5
			c-0.3,1.1-1.4,1.8-2.5,1.5c-0.3-0.1-28.4-6.5-49.6,14.7C35.2,67.2,41.7,95.3,41.7,95.6c0.3,1.1-0.4,2.3-1.5,2.5
			C40,98.1,39.9,98.2,39.7,98.2z"/>
	</g>
	<g>
		<path d="M51,99.1c-6.9,0-11.6-1.1-12.1-1.2c-1.1-0.3-1.8-1.4-1.5-2.5c0.3-1.1,1.4-1.8,2.5-1.5c0.3,0.1,28.6,6.6,49.7-14.5
			c21.2-21.2,14.6-49.5,14.5-49.7c-0.3-1.1,0.4-2.3,1.5-2.5c1.1-0.3,2.3,0.4,2.5,1.5c0.3,1.2,7.2,30.8-15.6,53.7
			C78.6,96.3,62,99.1,51,99.1z"/>
	</g>
	<g>
		<path d="M11.7,125.4c-0.5,0-1.1-0.2-1.5-0.6c-0.8-0.8-0.8-2.1,0-3L131.4,0.6c0.8-0.8,2.1-0.8,3,0c0.8,0.8,0.8,2.1,0,3L13.2,124.7
			C12.8,125.2,12.2,125.4,11.7,125.4z"/>
	</g>
	<g>
		<path d="M119.2,17.8c-0.5,0-1.1-0.2-1.5-0.6l-4.7-4.6c-0.8-0.8-0.8-2.1,0-3c0.8-0.8,2.1-0.8,3,0l4.7,4.6c0.8,0.8,0.8,2.1,0,3
			C120.3,17.6,119.8,17.8,119.2,17.8z"/>
	</g>
	<g>
		<path d="M26.9,110.1c-0.5,0-1.1-0.2-1.5-0.6l-5-5.1c-0.8-0.8-0.8-2.2,0-3c0.8-0.8,2.2-0.8,3,0l5,5.1c0.8,0.8,0.8,2.2,0,3
			C28,109.9,27.5,110.1,26.9,110.1z"/>
	</g>
	<g>
		<path d="M110.4,150H34.1c-1.2,0-2.1-0.9-2.1-2.1s0.9-2.1,2.1-2.1h76.3c1.2,0,2.1,0.9,2.1,2.1S111.6,150,110.4,150z"/>
	</g>
	<g>
		<path d="M72.9,150c-1.2,0-2.1-0.9-2.1-2.1v-20.8c0-1.2,0.9-2.1,2.1-2.1c1.2,0,2.1,0.9,2.1,2.1v20.8C75,149.1,74,150,72.9,150z"/>
	</g>
</g>
</svg>
