<?xml version="1.0" encoding="utf-8"?>
<!-- Generator: Adobe Illustrator 19.2.1, SVG Export Plug-In . SVG Version: 6.00 Build 0)  -->
<svg version="1.1" id="Слой_1" xmlns="http://www.w3.org/2000/svg" xmlns:xlink="http://www.w3.org/1999/xlink" x="0px" y="0px"
	 viewBox="0 0 150 150" style="enable-background:new 0 0 150 150;" xml:space="preserve">
<g>
	<path d="M130.8,113.7c-0.9,0-1.6-0.7-1.6-1.6V59.6c0-0.9,0.7-1.6,1.6-1.6s1.6,0.7,1.6,1.6v52.5C132.4,113,131.7,113.7,130.8,113.7z
		"/>
</g>
<g>
	<path d="M15.7,113.7c-0.9,0-1.6-0.7-1.6-1.6V46.2c0-3.3,2.7-5.9,5.9-5.9h93.9c0.9,0,1.6,0.7,1.6,1.6c0,0.9-0.7,1.6-1.6,1.6H20
		c-1.5,0-2.7,1.2-2.7,2.7v65.9C17.3,113,16.6,113.7,15.7,113.7z"/>
</g>
<g>
	<path d="M123.5,113.9c-0.9,0-1.6-0.7-1.6-1.6V57.5c0-0.9,0.7-1.6,1.6-1.6s1.6,0.7,1.6,1.6v54.8
		C125.1,113.2,124.4,113.9,123.5,113.9z"/>
</g>
<g>
	<path d="M22.9,113.9c-0.9,0-1.6-0.7-1.6-1.6V53.6c0-3,2.4-5.4,5.4-5.4H116c0.9,0,1.6,0.7,1.6,1.6c0,0.9-0.7,1.6-1.6,1.6H26.7
		c-1.2,0-2.1,1-2.1,2.1v58.7C24.5,113.2,23.8,113.9,22.9,113.9z"/>
</g>
<g>
	<path d="M130.1,126.4H16.4C7,126.4,0,120.6,0,113c0-0.9,0.7-1.6,1.6-1.6h143.2c0.9,0,1.6,0.7,1.6,1.6
		C146.5,120.6,139.4,126.4,130.1,126.4z M3.4,114.6c0.9,5.1,6.1,8.6,13,8.6h113.7c6.9,0,12.1-3.5,13-8.6H3.4z"/>
</g>
<g>
	<path d="M88,120.2H58.5c-5.1,0-9.2-3.1-9.2-6.8c0-0.9,0.7-1.6,1.6-1.6s1.6,0.7,1.6,1.6c0,1.9,2.8,3.6,6,3.6H88c3.2,0,6-1.7,6-3.6
		c0-0.9,0.7-1.6,1.6-1.6c0.9,0,1.6,0.7,1.6,1.6C97.2,117.1,93.1,120.2,88,120.2z"/>
</g>
<g>
	<path d="M61.2,88.1c-2.4,0-4.6-1.4-5.6-3.8c-0.6-1.5-0.6-3.1,0.1-4.6c0.6-1.5,1.8-2.6,3.3-3.2c1.5-0.6,3.1-0.6,4.6,0.1
		c1.5,0.6,2.6,1.8,3.2,3.3c0.6,1.5,0.6,3.1-0.1,4.6c-0.6,1.5-1.8,2.6-3.3,3.2C62.7,87.9,61.9,88.1,61.2,88.1z M61.2,79.3
		c-0.3,0-0.7,0.1-1,0.2l0,0c-0.7,0.3-1.2,0.8-1.5,1.5c-0.3,0.7-0.3,1.4,0,2.1c0.3,0.7,0.8,1.2,1.5,1.5c0.7,0.3,1.4,0.3,2.1,0
		c0.7-0.3,1.2-0.8,1.5-1.5c0.3-0.7,0.3-1.4,0-2.1c-0.3-0.7-0.8-1.2-1.5-1.5C62,79.4,61.6,79.3,61.2,79.3z M59.6,78L59.6,78L59.6,78z
		"/>
</g>
<g>
	<path d="M62.8,87.8c-0.6,0-1.3-0.4-1.5-1c-0.3-0.8,0.1-1.8,0.9-2.1l31-12c0.8-0.3,1.8,0.1,2.1,0.9c0.3,0.8-0.1,1.8-0.9,2.1l-31,12
		C63.2,87.7,63,87.8,62.8,87.8z"/>
</g>
<g>
	<path d="M73,100.3c-0.8,0-1.6-0.2-2.4-0.5c-1.5-0.6-2.6-1.8-3.2-3.3c-0.6-1.5-0.6-3.1,0.1-4.6c0.6-1.5,1.8-2.6,3.3-3.2
		c1.5-0.6,3.1-0.6,4.6,0.1c1.5,0.6,2.6,1.8,3.2,3.3c0.6,1.5,0.6,3.1-0.1,4.6l0,0c-0.6,1.5-1.8,2.6-3.3,3.2
		C74.5,100.1,73.8,100.3,73,100.3z M73,91.5c-0.3,0-0.7,0.1-1,0.2c-0.7,0.3-1.2,0.8-1.5,1.5c-0.3,0.7-0.3,1.4,0,2.1
		c0.3,0.7,0.8,1.2,1.5,1.5c0.7,0.3,1.4,0.3,2.1,0c0.7-0.3,1.2-0.8,1.5-1.5c0.3-0.7,0.3-1.4,0-2.1c-0.3-0.7-0.8-1.2-1.5-1.5
		C73.8,91.6,73.4,91.5,73,91.5z M77,96L77,96L77,96z"/>
</g>
<g>
	<path d="M69,94.2c-0.2,0-0.4,0-0.6-0.1c-0.8-0.4-1.2-1.3-0.8-2.1l13.1-30.5c0.4-0.8,1.3-1.2,2.1-0.8c0.8,0.4,1.2,1.3,0.8,2.1
		L70.5,93.2C70.2,93.8,69.6,94.2,69,94.2z"/>
</g>
<g>
	<path d="M131.7,60.2c-10.1,0-18.3-8.2-18.3-18.3s8.2-18.3,18.3-18.3c10.1,0,18.3,8.2,18.3,18.3S141.8,60.2,131.7,60.2z M131.7,26.8
		c-8.3,0-15.1,6.8-15.1,15.1S123.4,57,131.7,57c8.3,0,15.1-6.8,15.1-15.1S140,26.8,131.7,26.8z"/>
</g>
<g>
	<path d="M142.9,54.4c-0.4,0-0.8-0.2-1.1-0.5l-22.3-22.3c-0.6-0.6-0.6-1.7,0-2.3c0.6-0.6,1.7-0.6,2.3,0L144,51.7
		c0.6,0.6,0.6,1.7,0,2.3C143.7,54.3,143.3,54.4,142.9,54.4z"/>
</g>
</svg>
