<?xml version="1.0" encoding="utf-8"?>
<!-- Generator: Adobe Illustrator 19.2.1, SVG Export Plug-In . SVG Version: 6.00 Build 0)  -->
<svg version="1.1" id="Слой_1" xmlns="http://www.w3.org/2000/svg" xmlns:xlink="http://www.w3.org/1999/xlink" x="0px" y="0px"
	 viewBox="0 0 150 150" style="enable-background:new 0 0 150 150;" xml:space="preserve">
<g>
	<path d="M130.8,113.7c-0.9,0-1.6-0.7-1.6-1.6V59.6c0-0.9,0.7-1.6,1.6-1.6c0.9,0,1.6,0.7,1.6,1.6v52.5
		C132.4,113,131.7,113.7,130.8,113.7z"/>
</g>
<g>
	<path d="M15.7,113.7c-0.9,0-1.6-0.7-1.6-1.6V46.2c0-3.3,2.7-5.9,5.9-5.9h93.9c0.9,0,1.6,0.7,1.6,1.6c0,0.9-0.7,1.6-1.6,1.6H20
		c-1.5,0-2.7,1.2-2.7,2.7v65.9C17.3,113,16.6,113.7,15.7,113.7z"/>
</g>
<g>
	<path d="M123.5,113.9c-0.9,0-1.6-0.7-1.6-1.6V57.5c0-0.9,0.7-1.6,1.6-1.6s1.6,0.7,1.6,1.6v54.8
		C125.1,113.2,124.4,113.9,123.5,113.9z"/>
</g>
<g>
	<path d="M22.9,113.9c-0.9,0-1.6-0.7-1.6-1.6V53.6c0-3,2.4-5.4,5.4-5.4H116c0.9,0,1.6,0.7,1.6,1.6c0,0.9-0.7,1.6-1.6,1.6H26.7
		c-1.2,0-2.1,1-2.1,2.1v58.7C24.5,113.2,23.8,113.9,22.9,113.9z"/>
</g>
<g>
	<path d="M130.1,126.4H16.4C7,126.4,0,120.6,0,113c0-0.9,0.7-1.6,1.6-1.6h143.2c0.9,0,1.6,0.7,1.6,1.6
		C146.5,120.6,139.4,126.4,130.1,126.4z M3.4,114.6c0.9,5.1,6.1,8.6,13,8.6h113.7c6.9,0,12.1-3.5,13-8.6H3.4z"/>
</g>
<g>
	<path d="M88,120.2H58.5c-5.1,0-9.2-3.1-9.2-6.8c0-0.9,0.7-1.6,1.6-1.6s1.6,0.7,1.6,1.6c0,1.9,2.8,3.6,6,3.6H88c3.2,0,6-1.7,6-3.6
		c0-0.9,0.7-1.6,1.6-1.6c0.9,0,1.6,0.7,1.6,1.6C97.2,117.1,93.1,120.2,88,120.2z"/>
</g>
<g>
	<path d="M131.7,60.2c-10.1,0-18.3-8.2-18.3-18.3s8.2-18.3,18.3-18.3c10.1,0,18.3,8.2,18.3,18.3S141.8,60.2,131.7,60.2z M131.7,26.8
		c-8.3,0-15.1,6.8-15.1,15.1S123.4,57,131.7,57c8.3,0,15.1-6.8,15.1-15.1S140,26.8,131.7,26.8z"/>
</g>
<g>
	<path d="M142.9,54.4c-0.4,0-0.8-0.2-1.1-0.5l-22.3-22.3c-0.6-0.6-0.6-1.7,0-2.3c0.6-0.6,1.7-0.6,2.3,0L144,51.7
		c0.6,0.6,0.6,1.7,0,2.3C143.7,54.3,143.3,54.4,142.9,54.4z"/>
</g>
<g>
	<path d="M57.5,99.4c-0.4,0-0.8-0.2-1.1-0.5c-0.4-0.4-0.6-1-0.4-1.5l2.2-9.7c0.1-0.3,0.2-0.6,0.4-0.8L82.4,63c1.3-1.3,3.1-2,4.9-2
		c1.9,0,3.6,0.7,4.9,2c2.7,2.7,2.7,7.1,0,9.8L68.3,96.7c-0.2,0.2-0.5,0.4-0.8,0.4l-9.7,2.2C57.7,99.3,57.6,99.4,57.5,99.4z
		 M61.1,88.8l-1.5,6.8l6.8-1.5l23.6-23.5c1.5-1.5,1.5-3.8,0-5.3c-1.4-1.4-3.9-1.4-5.3,0L61.1,88.8z M67.2,95.5L67.2,95.5L67.2,95.5z
		"/>
</g>
<g>
	<path d="M67.2,97.2c-0.4,0-0.8-0.2-1.1-0.5l-7.5-7.5c-0.6-0.6-0.6-1.7,0-2.3c0.6-0.6,1.7-0.6,2.3,0l7.5,7.5c0.6,0.6,0.6,1.7,0,2.3
		C68,97,67.6,97.2,67.2,97.2z"/>
</g>
<g>
	<path d="M89.7,74.6c-0.4,0-0.8-0.2-1.1-0.5l-7.5-7.5c-0.6-0.6-0.6-1.7,0-2.3c0.6-0.6,1.7-0.6,2.3,0l7.5,7.5c0.6,0.6,0.6,1.7,0,2.3
		C90.6,74.5,90.2,74.6,89.7,74.6z"/>
</g>
<g>
	<path d="M63.7,93.1c-0.4,0-0.8-0.2-1.1-0.5c-0.6-0.6-0.6-1.7,0-2.3l22.3-22.3c0.6-0.6,1.7-0.6,2.3,0c0.6,0.6,0.6,1.7,0,2.3
		L64.8,92.7C64.5,93,64.1,93.1,63.7,93.1z"/>
</g>
</svg>
