<?xml version="1.0" encoding="utf-8"?>
<!-- Generator: Adobe Illustrator 19.2.1, SVG Export Plug-In . SVG Version: 6.00 Build 0)  -->
<svg version="1.1" id="Слой_1" xmlns="http://www.w3.org/2000/svg" xmlns:xlink="http://www.w3.org/1999/xlink" x="0px" y="0px"
	 viewBox="0 0 150 150" style="enable-background:new 0 0 150 150;" xml:space="preserve">
<g>
	<path d="M148.3,103.7h-12.8V37c0-3.3-2.7-6.1-6.1-6.1H20.5c-3.3,0-6.1,2.7-6.1,6.1v66.7H1.7c-0.9,0-1.7,0.7-1.7,1.7
		c0,7.9,7.2,13.8,16.8,13.8h116.4c9.6,0,16.8-5.9,16.8-13.8C150,104.4,149.3,103.7,148.3,103.7z M17.7,37c0-1.5,1.2-2.8,2.8-2.8
		h109.1c1.5,0,2.8,1.2,2.8,2.8v66.7h-4.1V44.6c0-3-2.5-5.5-5.5-5.5H27.3c-3,0-5.5,2.5-5.5,5.5v59.1h-4.1V37z M25.1,103.7V44.6
		c0-1.2,1-2.2,2.2-2.2h95.3c1.2,0,2.2,1,2.2,2.2v59.1H25.1z M95.8,107c-0.9,1.4-3.2,2.4-5.7,2.4H59.9c-2.6,0-4.9-1-5.7-2.4H95.8z
		 M133.2,115.8H16.8c-7.1,0-12.4-3.6-13.3-8.8h47.2c0.8,3.3,4.7,5.7,9.3,5.7h30.2c4.6,0,8.5-2.5,9.3-5.7h47.2
		C145.6,112.2,140.3,115.8,133.2,115.8z"/>
	<path d="M82.3,69.8l-8.4-6c-1.1-0.8-2.5-0.9-3.7-0.3c-1.2,0.6-1.9,1.8-1.9,3.2v12c0,1.3,0.7,2.5,1.9,3.2c0.5,0.3,1.1,0.4,1.6,0.4
		c0.7,0,1.4-0.2,2.1-0.7l8.4-6c0.9-0.7,1.5-1.7,1.5-2.9C83.8,71.5,83.3,70.5,82.3,69.8z M80.4,72.9l-8.4,6c0,0-0.1,0.1-0.3,0
		c-0.1-0.1-0.1-0.2-0.1-0.2v-12c0,0,0-0.2,0.1-0.2c0,0,0.1,0,0.1,0c0.1,0,0.1,0,0.1,0.1l8.4,6c0.1,0,0.1,0.1,0.1,0.2
		C80.5,72.8,80.5,72.8,80.4,72.9z"/>
	<path d="M112.6,71h-16c-0.1-1.6-0.4-3.1-0.8-4.6h9.1c0.9,0,1.7-0.7,1.7-1.7s-0.7-1.7-1.7-1.7h-9.8c-0.2,0-0.4,0-0.5,0.1
		c-3.5-7.3-11-12.3-19.6-12.3s-16.1,5-19.6,12.3c-0.2-0.1-0.3-0.1-0.5-0.1H44c-0.9,0-1.7,0.7-1.7,1.7s0.7,1.7,1.7,1.7h10.2
		c-0.4,1.5-0.7,3-0.8,4.6h-16c-0.9,0-1.7,0.7-1.7,1.7s0.7,1.7,1.7,1.7h16c0.1,1.6,0.4,3.1,0.8,4.6H44c-0.9,0-1.7,0.7-1.7,1.7
		s0.7,1.7,1.7,1.7h10.9c0.2,0,0.4,0,0.5-0.1c3.5,7.3,11,12.3,19.6,12.3s16.1-5,19.6-12.3c0.2,0.1,0.3,0.1,0.5,0.1h9.8
		c0.9,0,1.7-0.7,1.7-1.7s-0.7-1.7-1.7-1.7h-9.1c0.4-1.5,0.7-3,0.8-4.6h16c0.9,0,1.7-0.7,1.7-1.7S113.6,71,112.6,71z M75,91.1
		c-10.2,0-18.5-8.3-18.5-18.5S64.8,54.2,75,54.2s18.5,8.3,18.5,18.5S85.2,91.1,75,91.1z"/>
</g>
</svg>
