<?xml version="1.0" encoding="utf-8"?>
<!-- Generator: Adobe Illustrator 19.2.1, SVG Export Plug-In . SVG Version: 6.00 Build 0)  -->
<svg version="1.1" id="Слой_1" xmlns="http://www.w3.org/2000/svg" xmlns:xlink="http://www.w3.org/1999/xlink" x="0px" y="0px"
	 viewBox="0 0 150 150" style="enable-background:new 0 0 150 150;" xml:space="preserve">
<g>
	<path d="M145.9,48.4l-69.7-48c-0.7-0.5-1.6-0.5-2.3,0l-69.7,48c-0.7,0.5-1,1.4-0.8,2.2c0.3,0.8,1,1.4,1.9,1.4h6.4v10.4
		c0,3.7,2.8,6.8,6.4,7.3c0.2,2.6,1.6,5.1,3.9,6.8V121c-2,1.8-3.3,4.2-3.8,6.8c-3.7,0.4-6.6,3.5-6.6,7.3v12.6c0,0.1,0,0.1,0,0.2
		c0,0.1,0,0.1,0,0.2c0,1.1,0.9,2,2,2h122.8c1.1,0,2-0.9,2-2c0-0.1,0-0.1,0-0.2c0-0.1,0-0.1,0-0.2V135c0-3.7-2.7-6.7-6.2-7.2
		c-0.4-2.6-1.7-5-3.8-6.8V76.5c2.4-1.8,3.7-4.2,3.9-6.9c3.4-0.6,6.1-3.6,6.1-7.2V52h6.4c0.9,0,1.6-0.6,1.9-1.4
		C146.9,49.8,146.6,48.8,145.9,48.4z M75,4.4L138.3,48H11.7L75,4.4z M124.4,122c0,0.6,0.3,1.2,0.8,1.6c1.4,1.1,2.4,2.5,2.9,4.2h-16
		c0.4-1.6,1.4-3.1,2.9-4.2c0.5-0.4,0.8-1,0.8-1.6l0-46.1l0-0.4c0-0.7-0.4-1.4-1-1.7c-1.7-1-2.7-2.5-2.9-4h16.4c-0.2,1.5-1.3,3-2.9,4
		c-0.6,0.4-0.9,1-1,1.7l0,46.1L124.4,122z M107.8,69.7c0.2,2.6,1.6,5,3.9,6.8V121c-2,1.8-3.3,4.1-3.8,6.7h-5.8
		c-0.5-2.6-1.8-4.9-3.8-6.7V76.5c2.3-1.7,3.7-4.1,3.9-6.8H107.8z M94.5,122c0,0.6,0.3,1.2,0.8,1.6c1.4,1.1,2.4,2.5,2.9,4.2h-16
		c0.4-1.6,1.4-3.1,2.9-4.2c0.5-0.4,0.8-1,0.8-1.6l0-46.1l0-0.4c0-0.7-0.4-1.4-1-1.7c-1.7-1-2.7-2.5-3-4h16.4c-0.2,1.5-1.3,3-2.9,4
		c-0.6,0.4-0.9,1-1,1.7l0,46.1L94.5,122z M77.9,69.7c0.2,2.6,1.6,5,3.9,6.8V121c-2,1.8-3.3,4.1-3.8,6.7h-5.8
		c-0.5-2.6-1.8-4.9-3.8-6.7V76.5c2.3-1.7,3.7-4.1,3.9-6.8H77.9z M64.5,122c0,0.6,0.3,1.2,0.8,1.6c1.4,1.1,2.4,2.5,2.9,4.2h-16
		c0.4-1.6,1.4-3.1,2.9-4.2c0.5-0.4,0.8-1,0.8-1.6l0-46.1l0-0.4c0-0.7-0.4-1.4-1-1.7c-1.7-1-2.7-2.5-2.9-4h16.4c-0.2,1.5-1.3,3-2.9,4
		c-0.6,0.4-0.9,1-1,1.7l0,46.1L64.5,122z M48,69.7c0.2,2.6,1.6,5,3.9,6.8V121c-2,1.8-3.3,4.1-3.8,6.7h-5.8c-0.5-2.6-1.8-4.9-3.8-6.7
		V76.5c2.3-1.7,3.7-4.1,3.9-6.8H48z M34.6,122c0,0.6,0.3,1.2,0.8,1.6c1.4,1.1,2.4,2.5,2.9,4.2h-16c0.4-1.6,1.4-3.1,2.9-4.2
		c0.5-0.4,0.8-1,0.8-1.6l0-46.1l0-0.4c0-0.7-0.4-1.4-1-1.7c-1.7-1-2.7-2.5-3-4h16.4c-0.2,1.5-1.3,3-2.9,4c-0.6,0.4-0.9,1-1,1.7
		l0,46.1L34.6,122z M134.4,146H15.6v-5.1h118.8V146z M134.4,135v1.9H15.6V135c0-1.8,1.5-3.3,3.3-3.3h112.1
		C132.9,131.7,134.4,133.2,134.4,135z M131.1,65.7H18.9c-1.8,0-3.3-1.5-3.3-3.3v-1.3c0.1,0,0.2,0,0.3,0h118.2c0.1,0,0.2,0,0.3,0v1.3
		C134.4,64.2,132.9,65.7,131.1,65.7z M134.4,57.1c-0.1,0-0.2,0-0.3,0H15.9c-0.1,0-0.2,0-0.3,0V52h118.8V57.1z"/>
	<path d="M75,19.1c-6.2,0-11.2,5-11.2,11.2s5,11.2,11.2,11.2s11.2-5,11.2-11.2S81.2,19.1,75,19.1z M75,37.5c-4,0-7.2-3.2-7.2-7.2
		s3.2-7.2,7.2-7.2s7.2,3.2,7.2,7.2S79,37.5,75,37.5z"/>
</g>
</svg>
