<?xml version="1.0" encoding="utf-8"?>
<!-- Generator: Adobe Illustrator 19.2.1, SVG Export Plug-In . SVG Version: 6.00 Build 0)  -->
<svg version="1.1" id="Слой_1" xmlns="http://www.w3.org/2000/svg" xmlns:xlink="http://www.w3.org/1999/xlink" x="0px" y="0px"
	 viewBox="0 0 150 150" style="enable-background:new 0 0 150 150;" xml:space="preserve">
<path d="M146,129.6h-4.4l-10.3-34.3c0-0.1,0-0.1-0.1-0.2c1.4-3.7,2.4-7.6,3-11.6c2-1,3.4-3.1,3.4-5.4v-9c0-2.5-1.5-4.7-3.7-5.6
	c-1.5-7.7-4.4-14.9-8.7-21.5c0.2-0.6,0.3-1.1,0.4-1.7c0.1-1.6-0.5-3.2-1.5-4.4l-6-6.7c-1.1-1.2-2.6-1.9-4.2-2c-0.7,0-1.4,0-2.1,0.3
	c-7.3-5.6-15.9-9.5-24.9-11.3c-1-2.1-3.1-3.6-5.6-3.6h-9c-2.2,0-4.2,1.2-5.3,3C56.8,16.9,47,20.9,38.8,27.2
	c-0.1,0.1-0.1,0.1-0.2,0.2c-2-0.5-4.2,0.1-5.7,1.6l-6.3,6.3c-1.8,1.8-2.2,4.4-1.3,6.6c-4.3,6.6-7.2,13.8-8.7,21.5
	c-2.1,1-3.6,3.1-3.6,5.6v9c0,2.4,1.3,4.4,3.3,5.4c0,0.1,0,0.3,0,0.4c0.6,3.8,1.5,7.4,2.8,10.9c-0.1,0.1-0.2,0.3-0.3,0.5L8.4,129.6H4
	c-2.2,0-4,1.8-4,4c0,2.2,1.8,4,4,4h10.8c2.2,0,4-1.8,4-4c0-2.2-1.8-4-4-4h-3.7l9.4-31.2c1.3,3.1,2.9,6,4.8,8.9
	c-0.7,2.1-0.4,4.5,1.2,6.2l6,6.6c1.2,1.3,2.9,2,4.5,2c0.6,0,1.2-0.1,1.7-0.3c4.6,3.5,9.6,6.3,14.9,8.4c0,0.2,0,0.4,0,0.7
	c0,3.7,3,6.6,6.6,6.6h29.5c3.7,0,6.6-3,6.6-6.6c0-0.2,0-0.4,0-0.6c5.4-2.1,10.5-4.9,15.1-8.4c0.6,0.2,1.2,0.3,1.7,0.3
	c1.6,0,3.1-0.6,4.3-1.8l6.3-6.3c1.9-1.9,2.3-4.6,1.2-6.9c0-0.1,0.1-0.1,0.1-0.2c1.7-2.6,3.1-5.3,4.4-8.1l9.2,30.7h-3.7
	c-2.2,0-4,1.8-4,4c0,2.2,1.8,4,4,4H146c2.2,0,4-1.8,4-4C150,131.4,148.2,129.6,146,129.6z M16.1,133.6c0,0.8-0.6,1.4-1.4,1.4H4
	c-0.8,0-1.4-0.6-1.4-1.4c0-0.8,0.6-1.4,1.4-1.4h10.8C15.5,132.2,16.1,132.8,16.1,133.6z M134.9,69.1v9c0,1.9-1.6,3.5-3.5,3.5
	c-1.9,0-3.5-1.6-3.5-3.5v-9c0-1.9,1.6-3.5,3.5-3.5C133.4,65.6,134.9,67.1,134.9,69.1z M119.3,103.6c-1.5,0.1-2.9,0.7-4,1.8l-6.3,6.3
	c-1.3,1.3-1.9,3.1-1.8,4.9c-4.5,3.4-9.5,6.1-14.9,8c-0.1,0-0.1,0.1-0.2,0.1c-0.7-0.3-1.5-0.4-2.3-0.4h-0.3v-8.3c1.7-0.6,3-2.2,3-4.2
	v-3.1c0-2.5-2-4.4-4.4-4.4c-2.5,0-4.4,2-4.4,4.4v0.2h-7.3v-6.5c3.8-0.6,6.8-3.9,6.8-7.9c0-4.4-3.6-8.1-8.1-8.1S67,90,67,94.4
	c0,4,2.9,7.3,6.8,7.9v6.5H67v-0.2c0-2.5-2-4.4-4.4-4.4s-4.4,2-4.4,4.4v3.1c0,2,1.3,3.7,3.1,4.2v8.3h-0.9c-0.7,0-1.5,0.1-2.1,0.4
	c0,0,0,0,0,0c-5.4-1.8-10.5-4.6-15-8c0.2-1.6-0.4-3.4-1.6-4.7l-6-6.6c-1.2-1.4-3-2-4.7-2C26.7,97,24.1,90.1,23,82.7
	c1.3-1.1,2.2-2.8,2.2-4.7v-9c0-1.7-0.7-3.3-1.9-4.4c1.3-6.8,3.8-13.1,7.6-18.9c0,0,0,0,0,0c1.6,0,3.1-0.6,4.3-1.8l6.3-6.3
	c1.4-1.4,2-3.4,1.7-5.2c7.1-5.4,15.4-8.9,24.2-10.2c1.1,1.4,2.9,2.4,4.8,2.4h9c1.7,0,3.3-0.7,4.4-1.9c7.9,1.6,15.4,5,21.8,9.9
	c-0.1,1.6,0.4,3.3,1.5,4.6l6,6.7c1.1,1.2,2.6,1.9,4.2,2c0.1,0,0.2,0,0.4,0c0.1,0,0.1,0,0.2,0c3.7,5.8,6.3,12.1,7.5,18.8
	c-1.1,1.1-1.8,2.6-1.8,4.3v9c0,1.8,0.8,3.4,2.1,4.6C126.3,90.1,123.5,97.2,119.3,103.6z M76.4,124.3
	C76.4,124.2,76.4,124.2,76.4,124.3l0-12.8h7.3v0.2c0,2.1,1.4,3.8,3.3,4.3v8.2H76.4z M64.4,111.8c0,1-0.8,1.8-1.8,1.8
	s-1.8-0.8-1.8-1.8v-3.1c0-1,0.8-1.8,1.8-1.8s1.8,0.8,1.8,1.8V111.8z M63.8,116c1.8-0.6,3.1-2.2,3.1-4.2v-0.2h6.8v12.7
	c0,0,0,0.1,0,0.1h-9.9V116z M88.1,113.6c-1,0-1.8-0.8-1.8-1.8v-3.1c0-1,0.8-1.8,1.8-1.8c1,0,1.8,0.8,1.8,1.8v3.1
	C89.9,112.8,89.1,113.6,88.1,113.6z M75.1,93.1c-0.7,0-1.3,0.6-1.3,1.3v5.3c-2.4-0.6-4.2-2.7-4.2-5.3c0-3,2.4-5.5,5.5-5.5
	s5.5,2.4,5.5,5.5c0,2.6-1.8,4.7-4.2,5.3v-5.3C76.4,93.7,75.8,93.1,75.1,93.1z M28.2,45.2c-3.5,5.6-6,11.7-7.3,18.1
	c-0.5-0.2-1-0.3-1.6-0.3c1.4-6.7,3.9-13,7.5-18.7C27.2,44.6,27.7,44.9,28.2,45.2z M108.2,30c-6.3-4.7-13.6-8-21.2-9.6
	c0.2-0.5,0.3-1,0.3-1.6c7.9,1.7,15.4,5.1,21.9,10C108.8,29.1,108.5,29.6,108.2,30z M123.5,44.4C123.5,44.4,123.5,44.3,123.5,44.4
	c3.7,5.7,6.2,11.9,7.6,18.6c-0.6,0-1.1,0.1-1.6,0.3c-1.3-6.4-3.7-12.5-7.2-18C122.7,45,123.1,44.7,123.5,44.4z M113.4,29.7
	c0.1,0,0.1,0,0.2,0c0.9,0.1,1.8,0.5,2.4,1.2l6,6.7c0.6,0.7,0.9,1.6,0.9,2.5c-0.1,0.9-0.5,1.8-1.2,2.4c-0.7,0.6-1.6,0.9-2.5,0.9
	c-0.9-0.1-1.8-0.5-2.4-1.2l-6-6.7c-1.3-1.4-1.2-3.7,0.3-4.9C111.7,30,112.6,29.7,113.4,29.7z M72.2,15h9c1.9,0,3.5,1.6,3.5,3.5
	c0,1.9-1.6,3.5-3.5,3.5h-9c-1.9,0-3.5-1.6-3.5-3.5C68.7,16.6,70.3,15,72.2,15z M66.1,18.2c0,0.1,0,0.2,0,0.3c0,0.4,0.1,0.9,0.1,1.3
	c-8.7,1.4-16.9,4.9-24,10.1c-0.2-0.3-0.5-0.6-0.7-0.9c-0.1-0.1-0.2-0.2-0.3-0.3C48.5,23.3,57.1,19.6,66.1,18.2z M28.4,37.2l6.3-6.3
	c0.7-0.7,1.6-1,2.5-1c0.9,0,1.8,0.3,2.5,1c1.4,1.4,1.4,3.6,0,4.9l-6.3,6.3c-1.4,1.4-3.6,1.4-5,0C27,40.8,27,38.6,28.4,37.2z
	 M15.5,69.1c0-1.9,1.6-3.5,3.5-3.5c1.9,0,3.5,1.6,3.5,3.5v9c0,1.9-1.6,3.5-3.5,3.5c-1.9,0-3.5-1.6-3.5-3.5V69.1z M18.9,84.1
	c0,0,0.1,0,0.1,0c0.5,0,1-0.1,1.5-0.2c1.2,7.2,3.8,13.9,7.7,20.1c-0.5,0.2-0.9,0.5-1.3,0.9c0,0,0,0,0,0
	C22.8,98.5,20.2,91.6,18.9,84.1z M34.5,118.4l-6-6.6c-1.3-1.4-1.2-3.6,0.2-4.9c1.4-1.3,3.6-1.2,4.9,0.2l6,6.6
	c1.3,1.4,1.2,3.6-0.2,4.9C38,119.9,35.8,119.8,34.5,118.4z M41.2,120.5c0.4-0.4,0.7-0.8,1-1.3c4.1,3,8.5,5.4,13.2,7.2
	c-0.4,0.4-0.7,0.9-1,1.4C49.8,125.9,45.3,123.5,41.2,120.5z M89.8,134.9H60.3c-2.2,0-4-1.8-4-4c0-2.2,1.8-4,4-4h29.5
	c2.2,0,4,1.8,4,4C93.9,133.1,92,134.9,89.8,134.9z M95.7,127.8c-0.3-0.5-0.6-1-1-1.4c4.7-1.8,9.2-4.2,13.3-7.2
	c0.2,0.4,0.5,0.8,0.9,1.2c0,0,0.1,0.1,0.1,0.1C105,123.5,100.5,126,95.7,127.8z M122.1,112.2l-6.3,6.3c-1.4,1.4-3.6,1.4-4.9,0
	s-1.4-3.6,0-4.9l6.3-6.3c0.7-0.7,1.6-1,2.5-1s1.8,0.3,2.5,1C123.4,108.6,123.4,110.8,122.1,112.2z M123.5,105
	c-0.4-0.4-0.9-0.6-1.4-0.9c3.9-6.2,6.5-13,7.8-20.2c0.5,0.1,1.1,0.2,1.6,0.2C130.2,91.6,127.5,98.6,123.5,105z M146,135h-10.8
	c-0.8,0-1.4-0.6-1.4-1.4c0-0.8,0.6-1.4,1.4-1.4H146c0.8,0,1.4,0.6,1.4,1.4C147.4,134.4,146.8,135,146,135z"/>
</svg>
