<?xml version="1.0" encoding="utf-8"?>
<!-- Generator: Adobe Illustrator 19.2.1, SVG Export Plug-In . SVG Version: 6.00 Build 0)  -->
<svg version="1.1" id="Layer_1" xmlns="http://www.w3.org/2000/svg" xmlns:xlink="http://www.w3.org/1999/xlink" x="0px" y="0px"
	 viewBox="0 0 150 150" style="enable-background:new 0 0 150 150;" xml:space="preserve">
<path d="M146.0666656,14.5154285l-13.7406464-13.741169c-1.0323486-1.0323461-2.7122345-1.0323461-3.7445831,0l-3.1125565,3.1125548
	c-0.4996185,0.4996226-0.7752914,1.1647513-0.7752914,1.8733256s0.2756729,1.373703,0.7747803,1.8722911l0.8114929,0.8114986
	L3.6106598,134.0896606c-0.6108222,0.625824-0.6015124,1.6271362,0.0206883,2.2405396l13.3873997,13.2115479
	C17.3280373,149.8469086,17.7314587,150,18.1348801,150c0.3935947,0,0.7871895-0.1448212,1.093895-0.4365234l5.9407101-5.6383362
	c0.0099564-0.0094452,0.0232735-0.0122223,0.0330353-0.0219879c0.0074997-0.0074921,0.0095692-0.0178375,0.0169392-0.0254669
	l25.0765457-23.8003998c1.0675812,0.9810791,2.4502716,1.5331268,3.9839211,1.5321579
	c0.0894775,0,0.1789551-0.00103,0.2689476-0.0051727c1.699028-0.0672302,3.34478-0.7768402,4.6341782-1.9984894
	l33.9608765-32.1485825c2.6457748-2.5039291,3.0225601-6.435936,0.9199829-8.9204025l6.3881607-6.0630951
	c0.6982346-0.6992645,1.0830307-1.6302414,1.0830307-2.6212082c0-0.9920044-0.3847961-1.9229813-1.0835495-2.6212082
	l-0.0095673-0.0095673c4.5943527-4.7962608,7.0532913-5.7356377,8.3526459-5.7438507
	c0.4820328,0.012413,0.8435669,0.1872292,1.1725082,0.567894c0.5156555,0.596859,0.3811798,1.1699257-0.7556381,3.2273788
	c-1.122345,2.0315857-2.8182678,5.1017303-0.2932587,8.230835c2.0331421,2.5188065,7.7663879,6.9564438,8.0089569,7.1447067
	c0.2896347,0.2234344,0.6309967,0.3310165,0.9702835,0.3310165c0.4753113,0,0.9454575-0.212059,1.2583618-0.6175461
	c0.5363464-0.6951294,0.4080811-1.6923065-0.2860107-2.2291641c-1.573349-1.2144089-5.9840927-4.7727966-7.478302-6.6254349
	c-1.076828-1.3333588-0.6671982-2.4008713,0.6015091-4.6972733c1.0354462-1.8743591,2.4536285-4.4407463,0.3791122-6.8416214
	c-0.9128723-1.0571747-2.1226196-1.6333427-3.498909-1.6674767c-3.7216339-0.0499115-7.8493347,3.7234383-10.6786499,6.6728783
	l-1.7208786-1.7211342c-0.128334-0.1282692-0.2712784-0.2313232-0.4126053-0.336834l42.3457184-42.3457146l0.8021851,0.7285175
	C139.7086334,21.7985172,140.3732452,22,141.0813141,22c0.0005188,0,0.0005188,0,0.0010223,0
	c0.7085876,0,1.373703-0.2014828,1.8712616-0.7011051l3.1125488-3.0746861
	c0.4996338-0.4996223,0.7752991-1.1463337,0.7752991-1.854908
	C146.8414459,15.6607275,146.5657806,15.0140162,146.0666656,14.5154285z M88.5133057,79.424324l-4.4800491-4.4803772
	l5.3324738-5.3324738l4.6194382,4.6194382L88.5133057,79.424324z M43.6660538,121.9892731l-4.8126183-4.8130035
	c0.5425529-0.9322052,0.8376198-1.9918976,0.8376198-3.0994339c0-1.6519623-0.6434059-3.2056503-1.8112602-4.3724747
	c-1.1781349-1.1779404-2.7172813-1.771431-4.2641182-1.7987823l6.3261604-6.4797058l12.3633919,12.3639145L43.6660538,121.9892731z
	 M24.1030025,140.5568237l-11.316371-11.3167572l14.5491762-14.9022369c0.0644569,1.552597,0.6927357,3.0056915,1.7985249,4.1114807
	c1.2056103,1.2061234,2.789299,1.8081589,4.3724728,1.8081589c1.0704231,0,2.1313477-0.2986298,3.0850105-0.8493195
	l4.7688484,4.7692337L24.1030025,140.5568237z M35.6330452,116.2025604c-1.173027,1.1719894-3.0804901,1.1709595-4.2514458,0
	c-0.567894-0.567894-0.8808041-1.3230209-0.8808041-2.1257248c0-0.8037415,0.3129101-1.5578308,0.8802872-2.1257248
	c0.5859947-0.5854797,1.3561153-0.8792496,2.1257229-0.8792496c0.7701225,0,1.5402412,0.2937698,2.1262398,0.8792496
	c0.567894,0.567894,0.8802872,1.3219833,0.8802872,2.1257248C36.5133324,114.8795395,36.2009392,115.6346664,35.6330452,116.2025604
	z M54.6106148,111.6016769L42.1616249,99.1522293l6.0784798-6.2259445l12.6838684,12.6833496L54.6106148,111.6016769z
	 M79.3391495,68.2450104c1.1714706,1.1719971,1.1714706,3.0794525,0,4.2514496
	c-1.1725159,1.1709518-3.0804901,1.1709518-4.2519684,0c-1.1719894-1.1719971-1.1719894-3.0794525,0-4.2514496
	c0.5859985-0.5854797,1.3561172-0.8792496,2.1262436-0.8792496C77.9830322,67.3657608,78.7531509,67.6595306,79.3391495,68.2450104z
	 M72.8404312,74.7432098c1.2056122,1.2061234,2.7887878,1.8081512,4.3724747,1.8081512
	c0.2664948,0,0.5307846-0.041954,0.7954636-0.0760269l-5.4150925,5.4151001
	c0.2367477-1.8371887-0.3239059-3.7590027-1.7316818-5.1673584c-0.0005112,0-0.0005112,0-0.0005112,0
	c-1.3921967-1.3925171-3.28582-1.9545288-5.1036148-1.7393036l5.3582687-5.4882812
	C70.8511887,71.3567886,71.4115829,73.3143539,72.8404312,74.7432098z M68.6143341,83.2212753
	c-1.1725082,1.1719894-3.0804901,1.1699219-4.2519684,0c-1.1719894-1.1719971-1.1719894-3.0794601,0-4.2514496
	c0.5859985-0.5854797,1.3561249-0.8792496,2.1262436-0.8792496c0.7696075,0,1.5397263,0.2937698,2.1257248,0.8792496
	C69.7858047,80.1418152,69.7858047,82.0492783,68.6143341,83.2212753z M62.1156197,85.4680176
	c1.2056122,1.206131,2.788784,1.8081589,4.3724709,1.8081589c0.2664948,0,0.5307846-0.041954,0.7954636-0.0760269
	L57.1456451,97.3380661l-6.6857491-6.6854935l9.9034233-10.1437302
	C60.1950989,82.28228,60.7603416,84.1127472,62.1156197,85.4680176z M63.2293625,103.421524l-3.8369064-3.8367767
	l11.6692352-11.6692352l4.1413498,4.1416702L63.2293625,103.421524z M77.5084229,89.869133l-4.1999817-4.2003708
	l8.4780655-8.4780655l4.4213486,4.421669L77.5084229,89.869133z M83.3180847,71.1656189
	c0.1710663-1.3274765-0.0857849-2.6886368-0.7733536-3.8794479l21.503746-21.5041924
	c0.9322662,0.5423584,1.9920197,0.8375549,3.0993652,0.8375549c0.2596359,0,0.5155258-0.0215302,0.7691498-0.0528221
	L83.3180847,71.1656189z M109.2730484,42.5615234c-1.134758,1.1357841-3.1151428,1.1357841-4.2509308,0
	c-1.1719894-1.1719933-1.1719894-3.0794563,0.0005188-4.2514458c0.5673752-0.567894,1.3219833-0.8802872,2.125206-0.8802872
	s1.5578308,0.3123932,2.125206,0.8802872c0.0005188,0,0.0005188,0,0.0005188,0
	C110.4455566,39.4820671,110.4455566,41.3895302,109.2730484,42.5615234z M101.8164673,43.5204887L80.2982407,65.0391693
	c-1.2556458-0.725708-2.7027283-0.9829559-4.0964737-0.7531891l25.0692368-25.6776047
	C100.7683487,40.2359619,100.9473648,42.01548,101.8164673,43.5204887z M18.1566029,146.200592L6.9885421,135.1789093
	l3.5783-3.6651306l11.2307081,11.2311554L18.1566029,146.200592z M90.9592438,85.1504593l-33.9608765,32.1485825
	c-0.7308121,0.6920242-1.645752,1.0933762-2.57621,1.1306152c-0.6892433,0.0162277-1.3228874-0.1741714-1.8165627-0.544426
	L91.742363,80.7401657C92.6075211,81.9477768,92.296875,83.883812,90.9592438,85.1504593z M94.2269669,65.4996719
	l3.9778366,3.978363c0.1329269,0.1324081,0.1525803,0.2917023,0.1525803,0.3744583s-0.0201721,0.2420502-0.1230927,0.3454971
	l-1.9437332,1.8448105l-4.6780777-4.6780777l1.8650513-1.8650513C93.680275,65.2969284,94.0242157,65.2969284,94.2269669,65.4996719
	z M113.2527008,41.2310066c0.2370071-1.8373146-0.3237076-3.7592583-1.7318726-5.1676788
	c-1.1678543-1.1678543-2.7210236-1.8112602-4.3729858-1.8112602c-0.6648712,0-1.3118973,0.1089363-1.9260178,0.3096123
	l23.3051834-23.8707428l7.6330109,7.6327553L113.2527008,41.2310066z M141.4557648,19.1258163l-0.0015564-0.0020695
	c0.0010376,0.0010338,0.0015564,0.0020695,0.002594,0.0031033
	C141.4562836,19.1258163,141.4562836,19.1258163,141.4557648,19.1258163z M141.0813141,18.751358l-12.991745-12.9912186
	l2.3641663-2.3646727l12.9912109,12.9922523L141.0813141,18.751358z"/>
</svg>
