<?xml version="1.0" encoding="utf-8"?>
<!-- Generator: Adobe Illustrator 19.2.1, SVG Export Plug-In . SVG Version: 6.00 Build 0)  -->
<svg version="1.1" id="Layer_1" xmlns="http://www.w3.org/2000/svg" xmlns:xlink="http://www.w3.org/1999/xlink" x="0px" y="0px"
	 viewBox="0 0 150 150" style="enable-background:new 0 0 150 150;" xml:space="preserve">
<path d="M147.9592133,1.9938184c-2.6603546-2.6587749-6.9871063-2.6582494-9.6453552,0.0005254l-14.9074707,14.9064226
	c-2.1614075,0.1249008-4.2870865,0.6614647-5.9350967,2.3084888L111.3410339,25C111.3405762,25,112,25,112,25
	s0,0.6811981,0,0.6816578l-8.739151,8.4083576c-0.926445-0.5392036-2.1646042-0.8533592-3.3115005-0.8533592
	c-3.4630737,0-6.3637314,2.817955-6.3637314,6.281559c0,1.146698,0.2726746,2.2192574,0.8115463,3.1456375l-2.0791702,2.0588951
	c-0.9265137-0.5390701-2.0096741-0.853096-3.1567001-0.853096c-3.4630814,0-6.2862015,2.817955-6.2862015,6.281559
	c0,1.1468315,0.3115082,2.2195206,0.8505096,3.1458359L65.36203,71.6593246
	c-0.9265137-0.5390701-1.9999809-0.853096-3.147007-0.853096c-3.4630775,0-6.2813568,2.817955-6.2813568,6.2815628
	c0,1.1468964,0.3139305,2.2195206,0.8530006,3.1458969l-1.7041054,1.7042923
	c-0.9264488-0.5392075-1.9991798-0.853363-3.1460075-0.853363c-3.4641304,0-6.2821045,2.817955-6.2821045,6.2815628
	c0,1.1468277,0.3140793,2.2195206,0.8531494,3.1459656l-2.3144798,2.3151321
	c-0.9264488-0.5391998-1.9991417-0.8532944-3.1459694-0.8532944c-3.4641304,0-6.2820854,2.817955-6.2820854,6.2815628
	c0,1.1469574,0.3141556,2.2197189,0.8532906,3.1461639l-13.4979057,13.4979019
	c-0.7754097,0.5837936-7.0513868,5.2748718-10.2362957,6.7747955c-3.3317423,1.5686798-9.8870068,2.7212906-9.9521494,2.7323227
	c-0.4770139,0.0835342-0.8920372,0.376152-1.1294934,0.7985229c-0.1607558,0.2852631-3.8140101,7.1037216,6.5142875,17.4314957
	C13.3950481,148.7155304,18.3038788,150,21.3666439,150c2.1287003,0,3.366415-0.6204376,3.4851437-0.6829529
	c0.4906731-0.2579346,0.8153362-0.751236,0.8573647-1.3044281c0.0052528-0.0588379,0.4801655-5.9237976,2.5248108-10.2642059
	c2.0814209-4.4207916,6.1129227-9.2093048,6.1528511-9.2571259c0.0797195-0.0942993,0.1439438-0.1960144,0.198513-0.3011475
	c0.1402016-0.0746613,0.2731133-0.1622009,0.3856697-0.2751465l38.2074776-38.2072144l0.9678192,0.9678192l-9.4501801,9.4501801
	c-0.6304169,0.6298904-0.6304169,1.6522141,0,2.2820969c0.3152008,0.3152084,0.7281265,0.4728165,1.1410446,0.4728165
	c0.4129257,0,0.8258438-0.157608,1.1410522-0.4728165l13.3301239-13.3301163c0.6304169-0.6298904,0.6304169-1.6522141,0-2.2821045
	c-0.6304169-0.6304169-1.6516876-0.6304169-2.2821045,0l-1.5978394,1.5978394l-0.9678116-0.9678192l27.043808-27.0436821
	l0.9678879,0.9678841l-9.4503174,9.4500504c-0.6304092,0.6298904-0.6304092,1.6516876,0,2.2821045
	c0.3152084,0.3152008,0.7281342,0.4728088,1.1410522,0.4728088c0.4129257,0,0.8258438-0.157608,1.1410522-0.4728088
	l19.7529984-19.7524757c0.6304169-0.6298904,0.6304169-1.6516876,0-2.2821045c-0.6304092-0.6304131-1.6516876-0.6304131-2.2820969,0
	l-8.0205841,8.0203247l-0.9678879-0.9678841l25.6177597-25.6176338c1.5954742-1.5949497,2.515625-3.6852989,2.6438751-5.9314804
	l14.911087-14.9110861C150.618515,8.980917,150.618515,4.6541691,147.9592133,1.9938184z M137.3929291,17.6417675
	l-5.0814056-5.0814075l1.3693085-1.3693132l5.0814056,5.0814066L137.3929291,17.6417675z M130.4042511,19.5487709
	c-0.901886-0.9016247-1.9471893-1.5732784-3.0626984-2.0187721l2.6877289-2.6876678l5.081543,5.0815372l-2.6889801,2.688982
	C131.9693909,21.4779072,131.2918854,20.4361458,130.4042511,19.5487709z M46.4750824,95.109581l2.3145447-2.3152695
	c0.9266434,0.5392685,1.9995956,0.8534241,3.1468849,0.8534241c1.1468315,0,2.2195206-0.3141556,3.1459694-0.8533554
	l1.3858604,1.386055l-8.60746,8.6072693l-1.3857994-1.3861237c0.5390739-0.926384,0.853096-1.9991379,0.853096-3.1460342
	C47.3281784,97.1087189,47.0140877,96.036026,46.4750824,95.109581z M58.7504425,91.8983383l-1.3859901-1.3861923
	c0.5390015-0.926445,0.853096-1.9991379,0.853096-3.1459656s-0.3140945-2.2195206-0.853096-3.1459656l1.704155-1.704422
	c0.9263802,0.5390701,1.9990044,0.8530273,3.145771,0.8530273c1.1469612,0,2.21978-0.3139572,3.146225-0.8528976l1.386261,1.3861237
	L58.7504425,91.8983383z M69.0290298,81.6199493l-1.386055-1.3857956c0.5392609-0.9264526,0.8534851-1.9992752,0.8534851-3.1463623
	c0-1.1470947-0.3142242-2.2199783-0.8534851-3.146492l18.3621445-18.3621483
	c0.926384,0.5390701,1.9990692,0.853096,3.1458359,0.853096c1.1469574,0,2.21978-0.313961,3.1462326-0.8529015l1.3865128,1.3863869
	L69.0290298,81.6199493z M95.9658737,54.6836319l-1.386322-1.3860588c0.5392685-0.9264488,0.8534851-1.9992676,0.8534851-3.1463623
	c0-1.1470909-0.3142166-2.2200432-0.8534851-3.1465569l2.0581055-2.0584373
	c0.9265137,0.5393333,1.9993362,0.8535576,3.1462936,0.8535576c1.1468964,0,2.2196503-0.3141594,3.1461029-0.8533592
	l1.3865814,1.3865852L95.9658737,54.6836319z M99.7839508,36.4643784c0.8345108,0,1.5908813,0.338192,2.1426926,0.8829765
	c0.004921,0.0050545,0.0062332,0.0119514,0.0112228,0.0169411c0.0049286,0.0049248,0.0117569,0.0063057,0.0167465,0.0111656
	c0.5445862,0.5518074,0.8826523,1.3081093,0.8826523,2.1427536c0,1.6837311-1.3701019,3.053833-3.0533142,3.053833
	c-1.6832047,0-3.0533066-1.3701019-3.0533066-3.053833C96.7306442,37.8344803,98.1007462,36.4643784,99.7839508,36.4643784z
	 M89.1509552,47.0973778c1.6842575,0,3.0543594,1.3701019,3.0543594,3.053833c0,1.6837349-1.3701019,3.0533104-3.0543594,3.0533104
	c-1.6832047,0-3.0533066-1.3695755-3.0533066-3.0533104C86.0976486,48.4674797,87.4677505,47.0973778,89.1509552,47.0973778z
	 M62.2143784,74.0339584c1.6842575,0,3.0543594,1.3701019,3.0543594,3.053833s-1.3701019,3.0533066-3.0543594,3.0533066
	c-1.6832085,0-3.0533104-1.3695755-3.0533104-3.0533066S60.5311699,74.0339584,62.2143784,74.0339584z M51.936512,84.3123474
	c1.6832085,0,3.0533104,1.3701019,3.0533104,3.053833s-1.3701019,3.053833-3.0533104,3.053833
	c-1.6842575,0-3.0543594-1.3701019-3.0543594-3.053833S50.2522545,84.3123474,51.936512,84.3123474z M41.0471458,95.2017136
	c1.6832085,0,3.0533104,1.3701019,3.0533104,3.053833s-1.3701019,3.053833-3.0533104,3.053833
	c-1.6842575,0-3.0543594-1.3701019-3.0543594-3.053833S39.3628883,95.2017136,41.0471458,95.2017136z M25.3130417,136.3730621
	c-1.7536049,3.7247009-2.461771,8.2374115-2.7076321,10.2888947c-1.7525539,0.3220367-6.3997612,0.2999725-13.0065098-6.307312
	c-6.7349329-6.7344055-6.540555-11.3401031-6.1801677-12.9413605c2.0341387-0.3950577,6.8893838-1.4294662,9.8397255-2.8190079
	c2.3634644-1.1122818,6.0513926-3.6588974,8.473958-5.4033737c0.4338036,1.5091858,1.4211254,3.3949127,3.5280914,5.5016174
	c1.9976273,1.9979553,3.7994308,2.9936142,5.2673779,3.4613037
	C29.0665703,130.0559692,26.7891979,133.2390442,25.3130417,136.3730621z M33.0303688,125.1488419
	c-0.7102661,0.0640869-2.6929207-0.0153961-5.4877605-2.8097153c-2.8221569-2.8221512-2.9450874-4.78125-2.8894005-5.4437103
	l13.2472477-13.2294235c0.9265785,0.5391998,1.9995346,0.8621979,3.1466904,0.8621979
	c1.1468315,0,2.2195206-0.3097,3.1459007-0.8488312l2.526783,2.5297928c0.3026009,0.302597,0.712368,0.4739304,1.1410522,0.4739304
	c0.4276314,0,0.8384514-0.1696625,1.1410484-0.4722595l58.7378616-58.7370529
	c0.302597-0.302597,0.4728088-0.7127533,0.4728088-1.1409111c0-0.428154-0.1702118-0.8383827-0.4728088-1.1409798
	l-2.5278397-2.5277977c0.5390091-0.926384,0.853035-1.999054,0.853035-3.1458855
	c0-1.1468277-0.3140259-2.2195091-0.853035-3.1458931l7.2688217-7.2688103l8.3687515,8.3902588L101.3642578,57
	C101.3639297,57,102,57,102,57s0-0.0405693,0-0.0402412L72.2537003,86c-0.0001984,0-0.1083374,0-0.1085358,0
	c-0.0001907,0-0.0541306,0-0.0543289,0L33.0303688,125.1488419z M128.1221466,30.2001572l-4.9905167,4.9904556l-8.3687592-8.3692169
	l4.9905243-4.9905224c2.3062668-2.3052177,6.0603867-2.3073177,8.3687515,0
	C130.4294739,24.1381931,130.4294739,27.8928375,128.1221466,30.2001572z M145.6771088,9.3575897l-4.6327667,4.632761
	l-5.0812683-5.081275l4.6328888-4.6326299c1.4005737-1.4000466,3.6784668-1.4010973,5.0811462,0
	C147.0776825,5.6775427,147.0776825,7.9570179,145.6771088,9.3575897z"/>
</svg>
