<?xml version="1.0" encoding="utf-8"?>
<!-- Generator: Adobe Illustrator 19.2.1, SVG Export Plug-In . SVG Version: 6.00 Build 0)  -->
<svg version="1.1" id="Layer_1" xmlns="http://www.w3.org/2000/svg" xmlns:xlink="http://www.w3.org/1999/xlink" x="0px" y="0px"
	 viewBox="0 0 150 150" style="enable-background:new 0 0 150 150;" xml:space="preserve">
<g>
	<path d="M148.1926117,2.7767084l-0.9689789-0.967887c-2.4098358-2.4098413-6.3302155-2.4087439-8.7400665,0l-7.0562744,7.0562758
		c-2.6846619-0.9362693-5.7802963-0.0750332-8.39151,2.5369997l-12.6922684,12.6922693
		c-1.6164322,1.6158886-2.5996857,3.4644222-2.8438492,5.3447781c-0.1386185,1.066103-0.0340195,2.0921497,0.3001328,3.0534515
		L80.3694687,59.922924c-0.9890823-0.5755768-2.1134109-0.8886032-3.2880173-0.8886032
		c-1.7525101,0-3.4002228,0.6820221-4.6391678,1.9215088c0,0,0,0-0.0005417,0
		c-2.1424942,2.143383-2.4647141,5.4028053-1.0163803,7.9111977l-3.4489212,3.4489212
		c-0.9890137-0.5754318-2.1134109-0.8883896-3.2882233-0.8883896c-1.7525139,0-3.3996773,0.6820145-4.6386147,1.9209595
		c0,0.0005493,0,0.0005493,0,0.0005493s0,0-0.0005493,0c-1.2389412,1.2389374-1.9209595,2.8861008-1.9209595,4.6386108
		c0,1.1749496,0.3130264,2.2994156,0.8885994,3.2885666l-3.4255981,3.4256058
		c-2.5085373-1.4481964-5.7681618-1.1268082-7.9116821,1.016304c0,0.0005493,0,0.0005493,0,0.0005493
		c-1.2394905,1.2389374-1.9215088,2.8866501-1.9215088,4.6391678c0,1.1745987,0.3130264,2.2989349,0.8886032,3.2880173
		l-3.4098969,3.4098892c-0.9890137-0.5754318-2.1134109-0.8883896-3.2882233-0.8883896
		c-1.7525139,0-3.3996773,0.6820145-4.6386147,1.9209595c0,0.0005493,0,0.0005493,0,0.0005493s0,0-0.0005493,0
		c-1.2389412,1.2389374-1.9209595,2.8861008-1.9209595,4.6386108c0,1.1748123,0.3129578,2.2992096,0.8883934,3.2882233
		l-3.4256001,3.4256058c-2.50881-1.4483337-5.7684345-1.1255035-7.9114742,1.0166473c0,0.0005493,0,0.0005493,0,0.0005493
		c-2.1434536,2.1434555-2.4658089,5.4028702-1.0170631,7.9113388l-3.4257393,3.4257355
		c-0.9890118-0.5754318-2.1134129-0.8883896-3.2882242-0.8883896c-1.752512,0-3.4002237,0.6820145-4.639164,1.9215088
		c-2.1435213,2.1430359-2.465807,5.4026566-1.0169258,7.9117508L1.8106731,138.48172
		C0.6430633,139.6493225,0,141.2015686,0,142.8520203c0,1.6510162,0.6430633,3.2032471,1.8106731,4.3703156l0.9684356,0.9684296
		c1.2049208,1.2049255,2.7873394,1.8073883,4.370307,1.8073883c1.582418,0,3.1648364-0.6024628,4.3697572-1.8073883
		l8.7640705-8.7640686c1.0970345,0.6504669,2.3710213,0.9984741,3.7410965,0.9984741
		c0.241972,0,0.487236-0.0104218,0.7346954-0.0323639c2.157444-0.1871033,4.2402668-1.1851807,5.864933-2.8103943
		l41.7733231-41.7733231c1.6252213-1.6246643,2.6232834-3.707489,2.8103867-5.8649292
		c0.1431351-1.6470947-0.1990356-3.1860352-0.9648666-4.4770279l43.2692566-43.2692604
		c0.6827011,0.2371025,1.3966141,0.3637123,2.1361084,0.3637123c0.3006821,0,0.6057587-0.0197525,0.9135666-0.0598068
		c1.8803558-0.2441673,3.7288895-1.227417,5.34478-2.843853L138.59935,26.965107
		c1.6158752-1.6158886,2.5996857-3.4644222,2.8438416-5.3447781c0.1383514-1.0659657,0.0335388-2.091877-0.3005371-3.0530415
		l7.0499573-7.0499659C150.6024628,9.10748,150.6024628,5.1870985,148.1926117,2.7767084z M74.8257904,63.3393326
		c1.2038269-1.2049179,3.3047562-1.2060165,4.5107727,0c1.2433243,1.2438812,1.2433243,3.2668915,0,4.5107727
		c-1.2444305,1.2422333-3.2679901,1.2433319-4.5102234,0c-1.2433319-1.2433319-1.2433319-3.2668915,0-4.5107727H74.8257904z
		 M73.8086624,71.2507401c0.4776306,0.275856,0.9795456,0.4822998,1.4992905,0.6279755l-4.312149,4.3121414
		c-0.1479416-0.5225525-0.3625412-1.0216522-0.6358566-1.4914017L73.8086624,71.2507401z M62.4331055,75.7331161
		c0-0.0005493,0-0.0005493,0.0005493-0.0005493c0.6019096-0.6024628,1.4024467-0.9338684,2.2545624-0.9338684
		c0.8521118,0,1.6526489,0.3314056,2.2551117,0.9344177c0.6024628,0.6019135,0.9338684,1.4029999,0.9338684,2.2545624
		c0,0.8521118-0.3314056,1.6531982-0.9338684,2.255661c-1.2433319,1.2433319-3.2668953,1.2433319-4.5102234,0
		c-0.602459-0.6024628-0.9338684-1.4035492-0.9338684-2.255661C61.4992371,77.136116,61.8306465,76.3350296,62.4331055,75.7331161z
		 M61.4160423,83.6439056c0.4775658,0.2757874,0.9794083,0.4820251,1.4990883,0.6276321l-4.3129005,4.3128967
		c-0.1455421-0.5196762-0.3519173-1.0215149-0.6276321-1.4990845L61.4160423,83.6439056z M50.0629158,88.102211v0.0005493
		c1.2427788-1.2444305,3.2668953-1.2438812,4.5107727-0.0005493c1.2433281,1.2438736,1.2433281,3.2668915,0,4.5107651
		c-1.2438774,1.2422333-3.2679939,1.2433319-4.5107727,0c-0.602459-0.6024551-0.9338684-1.4035416-0.9338684-2.2551041
		C49.1290474,89.5057526,49.4604568,88.7046661,50.0629158,88.102211z M49.045784,96.0136185
		c0.4776344,0.2758484,0.9795456,0.4822922,1.4992943,0.6279678l-4.2891006,4.2891006
		c-0.1479416-0.5225525-0.3625488-1.0216522-0.6358643-1.4914017L49.045784,96.0136185z M37.6932755,100.4729462
		c0-0.0005493,0-0.0005493,0.0005493-0.0005493c0.6019096-0.6024551,1.4024467-0.9338684,2.2545624-0.9338684
		c0.8521118,0,1.6526489,0.3314133,2.2551117,0.9344177c0.602459,0.6019135,0.9338684,1.4029999,0.9338684,2.2545624
		c0,0.8521118-0.3314095,1.6531982-0.9338684,2.255661c-1.2433281,1.2433319-3.2668953,1.2433319-4.5102234,0
		c-0.602459-0.6024628-0.9338684-1.4035492-0.9338684-2.255661C36.759407,101.875946,37.0908165,101.0748596,37.6932755,100.4729462
		z M36.675869,108.3835297c0.4776344,0.275856,0.9796829,0.4822311,1.4994316,0.6278381l-4.289032,4.289032
		c-0.1480103-0.5224915-0.3626175-1.0215225-0.6359329-1.491333L36.675869,108.3835297z M25.3230858,112.842041
		c1.24333-1.2433319,3.2663441-1.2433319,4.5107708,0c0.6024609,0.6024551,0.9338684,1.4035416,0.9338684,2.255661
		c0,0.8515625-0.3314075,1.6526489-0.9338684,2.2551041c-1.2438774,1.2433319-3.2679901,1.2433319-4.5107708,0
		C24.0797577,116.1089325,24.0797577,114.0859146,25.3230858,112.842041z M24.305954,120.7534485
		c0.4776344,0.2758484,0.9796162,0.4822235,1.499361,0.6279068l-4.2891693,4.2891617
		c-0.1479397-0.5225525-0.362545-1.0216522-0.6358604-1.4914017L24.305954,120.7534485z M12.9528971,125.2122269
		c0.6024599-0.6024551,1.4035454-0.9338684,2.2556591-0.9338684c0.8515654,0,1.6526518,0.3314133,2.2551107,0.9344177
		c0.6024609,0.6019135,0.9338684,1.4029999,0.9338684,2.2545624c0,0.8521194-0.3314075,1.6532059-0.9338684,2.2556534
		c-1.2438774,1.2438812-3.2674408,1.2427826-4.5102215,0C11.709568,128.479126,11.709568,126.4555588,12.9528971,125.2122269z
		 M9.1356688,145.8072662c-1.0951824,1.0951843-2.8778729,1.0951843-3.9730558,0l-0.9684358-0.9689941
		c-0.530582-0.5300293-0.8230331-1.2356415-0.8230331-1.9862518c0-0.7500458,0.2924511-1.4556732,0.8230331-1.9862518
		l0.6063013-0.6062927l4.9414916,4.9414825L9.1356688,145.8072662z M70.0137939,93.4255905l-41.7733307,41.7733231
		c-1.0650063,1.0650024-2.4049034,1.7168427-3.7727852,1.835907c-0.5850391,0.052475-1.133522-0.0092468-1.6361217-0.1564331
		l48.8599167-48.8599243c0.1467743,0.502739,0.2086411,1.0509491,0.158226,1.6343384
		C71.7306366,91.0206833,71.0787964,92.3605804,70.0137939,93.4255905z M18.9374466,137C18.9369659,137,19,137,19,137
		s0-0.9922485,0-0.9917755l-6.841877,6.8092346l-4.9578161-4.9414978l4.7439632-4.752121
		c1.0116453,0.5838776,2.1329594,0.9008789,3.2684021,0.9008789c1.2379789,0,2.4713621-0.3530884,3.5486441-1.0473785
		c0.2161846-0.0820312,0.419405-0.2033539,0.5936127-0.3775635l62.3656158-62.3661652
		c2.1434555-2.1434555,2.4655685-5.4028702,1.0168304-7.9113426l26.9574356-26.9575615l4.9417419,5.4390221L18.9374466,137z
		 M138.1000366,21.1863155c-0.145401,1.119873-0.8148041,2.3253441-1.884201,3.3952866l-12.6928177,12.6928196
		c-0.8394928,0.8378448-3.7760696,3.3744354-6.3571091,0.7944984l-5.2339401-5.2339401
		c-2.5804825-2.5804844-0.0438919-5.5181637,0.7950516-6.3571091l12.6922684-12.6922703
		c0.5700912-0.5695391,2.1086121-1.9231539,3.8463058-1.9231539c0.8191986,0,1.6833801,0.3012295,2.5108032,1.1281042
		l5.2339478,5.2344913C137.8761749,19.0908737,138.242691,20.0867424,138.1000366,21.1863155z M145.8091125,9.1338167
		l-6.5614929,6.5614958l-4.9414978-4.9420404l6.5609589-6.5609465c1.0951843-1.0951829,2.8778687-1.0957317,3.973053,0.0005484
		l0.9689789,0.9678874C146.9042969,6.2559443,146.9042969,8.0386343,145.8091125,9.1338167z"/>
	<path d="M121.5740814,20.5876961c-3.0715637,3.0721092-3.7563248,7.2004433-1.5582809,9.3979416
		c0.843338,0.8433342,2.0147858,1.2866764,3.3338318,1.2866764c0.4543152,0,0.9261932-0.0526752,1.4073868-0.1596699
		c1.6339951-0.3632317,3.2877502-1.3168526,4.6561737-2.6858311c1.368988-1.3684292,2.3226013-3.0221786,2.6858368-4.6561737
		c0.4175568-1.8792591,0.0065765-3.6076279-1.1270142-4.7412205
		C128.7750702,16.8313732,124.6456375,17.5172329,121.5740814,20.5876961z M128.8079987,23.0397873
		c-0.222229,1.0008068-0.8707733,2.0959911-1.7783051,3.003521c-0.9075317,0.9075317-2.0027161,1.5560818-3.0035248,1.7783012
		c-0.7319489,0.1635094-1.3245316,0.082304-1.6268616-0.2194748c-0.6260529-0.6266041-0.3303146-2.7417984,1.5582733-4.6309338
		c1.3119202-1.311367,2.7330246-1.8545685,3.6882858-1.8545685c0.420845,0,0.751152,0.1047993,0.9426498,0.2962914
		C128.8902893,21.7152519,128.9703979,22.3078346,128.8079987,23.0397873z"/>
</g>
</svg>
