<?xml version="1.0" encoding="utf-8"?>
<!-- Generator: Adobe Illustrator 19.2.1, SVG Export Plug-In . SVG Version: 6.00 Build 0)  -->
<svg version="1.1" id="Слой_1" xmlns="http://www.w3.org/2000/svg" xmlns:xlink="http://www.w3.org/1999/xlink" x="0px" y="0px"
	 viewBox="0 0 150 150" style="enable-background:new 0 0 150 150;" xml:space="preserve">
<style type="text/css">
	.st0{fill:#222221;}
</style>
<g>
	<path class="st0" d="M38.7,142c-0.8,0-1.4-0.6-1.4-1.4v0c0-5.2,4.2-9.4,9.4-9.4h41.1c3.6,0,6.8,2,8.4,5.2c0.3,0.7,0.1,1.5-0.6,1.9
		c-0.7,0.3-1.5,0.1-1.9-0.6c-1.1-2.3-3.4-3.7-5.9-3.7H46.6c-3.6,0-6.6,3-6.6,6.6C40,141.4,39.4,142,38.7,142z"/>
</g>
<g>
	<path class="st0" d="M50.8,133.8c-0.6,0-1.2-0.4-1.3-1.1l-19-81.8c-0.2-0.7,0.3-1.5,1-1.7c0.7-0.2,1.5,0.3,1.7,1l19,81.8
		c0.2,0.7-0.3,1.5-1,1.7C51,133.8,50.9,133.8,50.8,133.8z"/>
</g>
<g>
	<path class="st0" d="M57.9,133.5c-0.6,0-1.2-0.4-1.3-1.1L37,48.9c-0.2-0.7,0.3-1.5,1-1.7c0.7-0.2,1.5,0.3,1.7,1l19.5,83.6
		c0.2,0.7-0.3,1.5-1,1.7C58.1,133.5,58,133.5,57.9,133.5z"/>
</g>
<g>
	<path class="st0" d="M24.2,30.2c-3.1,0-6-2.2-6.7-5.3l-2.6-11.2C14,9.9,16.3,6.2,20,5.3l8.6-2c3.7-0.9,7.4,1.4,8.3,5.2l2.6,11.2
		c0.4,1.8,0.1,3.6-0.9,5.2c-1,1.6-2.5,2.7-4.3,3.1l0,0l-8.6,2C25.2,30.1,24.7,30.2,24.2,30.2z M30.2,5.9c-0.3,0-0.6,0-0.9,0.1
		l-8.6,2c-2.2,0.5-3.6,2.8-3.1,5l2.6,11.2c0.5,2.2,2.8,3.6,5,3.1l8.6-2c2.2-0.5,3.6-2.8,3.1-5L34.2,9.1C33.7,7.2,32,5.9,30.2,5.9z
		 M34,26.6L34,26.6L34,26.6z"/>
</g>
<g>
	<path class="st0" d="M84.1,133.8c-0.2,0-0.4,0-0.6-0.2c-0.7-0.4-0.9-1.2-0.6-1.9L130.4,40c0.1-0.1,4.6-8,0.5-10.7
		c-4.2-2.8-7.4-0.4-10.1,2.1c-0.2,0.2-0.5,0.5-0.8,0.8c-2.8,2.8-8.8,8.8-18.5,5.5c-7.7-2.6-11.1-8.5-14.7-14.8
		c-3.5-6.2-7.2-12.7-15.5-17C56.5-1.8,34.9,7.4,34.7,7.5c-0.7,0.3-1.5,0-1.8-0.7c-0.3-0.7,0-1.5,0.7-1.8c0.9-0.4,23.1-9.8,39-1.6
		C81.6,8,85.7,15.1,89.2,21.4c3.5,6.1,6.5,11.3,13.2,13.6c8.1,2.7,13-2.2,15.6-4.9c0.3-0.3,0.6-0.6,0.8-0.8c2.1-2,7.1-6.6,13.5-2.4
		c6.3,4.2,0.7,14,0.4,14.4L85.4,133C85.1,133.5,84.6,133.8,84.1,133.8z"/>
</g>
<g>
	<path class="st0" d="M63,133.8c-0.3,0-0.5-0.1-0.8-0.2c-0.6-0.4-0.8-1.3-0.4-1.9L118,44.8c-2.2,1.1-5,2-8.4,2.5
		c-14.2,2.3-25-7.8-34.6-19c-10.2-11.9-25-3.3-35.3,4.2c-0.9,0.7-1.6,1.1-2,1.4c-0.7,0.4-1.5,0.2-1.9-0.5c-0.4-0.7-0.2-1.5,0.5-1.9
		c0.3-0.2,1-0.7,1.7-1.2c6.4-4.7,26-18.9,39-3.7c9,10.6,19.2,20.1,32,18.1c7.3-1.2,11.1-4.1,13-6.2l1.8-2.8c0.4-0.6,1.2-0.8,1.8-0.5
		c0.6,0.3,0.9,1.1,0.7,1.7c0,0.1-0.6,1.5-2,3.2l-60.3,93.2C63.9,133.6,63.4,133.8,63,133.8z"/>
</g>
<g>
	<path class="st0" d="M86.6,142H39.8c-0.8,0-1.4-0.6-1.4-1.4c0-0.8,0.6-1.4,1.4-1.4h46.8c0.8,0,1.4,0.6,1.4,1.4
		C88,141.4,87.4,142,86.6,142z"/>
</g>
<g>
	<path class="st0" d="M100.5,145.3h-9.9c-2.5,0-4.5-2-4.5-4.5c0-2.5,2-4.5,4.5-4.5h9.9c2.5,0,4.5,2,4.5,4.5
		C105,143.2,103,145.3,100.5,145.3z M90.6,139c-1,0-1.8,0.8-1.8,1.8c0,1,0.8,1.8,1.8,1.8h9.9c1,0,1.8-0.8,1.8-1.8
		c0-1-0.8-1.8-1.8-1.8H90.6z"/>
</g>
<g>
	<path class="st0" d="M33.1,51.7c-1.2,0-2.5-0.3-3.6-1c-1.5-1-2.6-2.5-3-4.2l-3.9-16.7c-0.2-0.7,0.3-1.5,1-1.7
		c0.7-0.2,1.5,0.3,1.7,1l3.9,16.7c0.2,1,0.9,1.9,1.8,2.5c0.9,0.6,2,0.7,3,0.5l1-0.2c2.2-0.5,3.5-2.7,3-4.8l-4-16.9
		c-0.2-0.7,0.3-1.5,1-1.7c0.7-0.2,1.5,0.3,1.7,1l4,16.9c0.9,3.6-1.4,7.3-5.1,8.2l-1,0.2C34.2,51.7,33.6,51.7,33.1,51.7z"/>
</g>
<g>
	<path class="st0" d="M71.4,134c-0.6,0-1.2-0.4-1.3-1.1L43.3,14.7c-0.2-0.7,0.3-1.5,1-1.7c0.7-0.2,1.5,0.3,1.7,1l26.8,118.2
		c0.2,0.7-0.3,1.5-1,1.7C71.6,134,71.5,134,71.4,134z"/>
</g>
<g>
	<path class="st0" d="M76.6,126c-0.6,0-1.2-0.4-1.3-1.1l-26-111.9c-0.2-0.7,0.3-1.5,1-1.7c0.7-0.2,1.5,0.3,1.7,1l26,111.9
		c0.2,0.7-0.3,1.5-1,1.7C76.8,125.9,76.7,126,76.6,126z"/>
</g>
<g>
	<path class="st0" d="M80.8,119c-0.6,0-1.2-0.4-1.3-1.1l-24-106.1c-0.2-0.7,0.3-1.5,1-1.7c0.7-0.2,1.5,0.3,1.7,1l24,106.1
		c0.2,0.7-0.3,1.5-1,1.7C81,119,80.9,119,80.8,119z"/>
</g>
<g>
	<path class="st0" d="M85.2,112.5c-0.6,0-1.2-0.4-1.3-1.1l-22.4-99c-0.2-0.7,0.3-1.5,1-1.7c0.7-0.2,1.5,0.3,1.7,1l22.4,99
		c0.2,0.7-0.3,1.5-1,1.7C85.4,112.5,85.3,112.5,85.2,112.5z"/>
</g>
<g>
	<path class="st0" d="M89.5,105.3c-0.6,0-1.2-0.4-1.3-1.1L68,15c-0.2-0.7,0.3-1.5,1-1.7c0.7-0.2,1.5,0.3,1.7,1l20.2,89.2
		c0.2,0.7-0.3,1.5-1,1.7C89.7,105.3,89.6,105.3,89.5,105.3z"/>
</g>
<g>
	<path class="st0" d="M93.5,98.6c-0.6,0-1.2-0.4-1.3-1.1L74.2,18.2c-0.2-0.7,0.3-1.5,1-1.7c0.7-0.2,1.5,0.3,1.7,1l17.9,79.3
		c0.2,0.7-0.3,1.5-1,1.7C93.7,98.6,93.6,98.6,93.5,98.6z"/>
</g>
<g>
	<path class="st0" d="M97.5,91.7c-0.6,0-1.2-0.4-1.3-1.1L81.5,25.8c-0.2-0.7,0.3-1.5,1-1.7c0.7-0.2,1.5,0.3,1.7,1L98.9,90
		c0.2,0.7-0.3,1.5-1,1.7C97.7,91.7,97.6,91.7,97.5,91.7z"/>
</g>
<g>
	<path class="st0" d="M101.8,84.7c-0.6,0-1.2-0.4-1.3-1.1L89.5,35.5c-0.2-0.7,0.3-1.5,1-1.7c0.7-0.2,1.5,0.3,1.7,1L103.1,83
		c0.2,0.7-0.3,1.5-1,1.7C102,84.6,101.9,84.7,101.8,84.7z"/>
</g>
<g>
	<path class="st0" d="M106.1,77.4c-0.6,0-1.2-0.4-1.3-1.1l-8.2-36.1c-0.2-0.7,0.3-1.5,1-1.7c0.7-0.2,1.5,0.3,1.7,1l8.2,36.1
		c0.2,0.7-0.3,1.5-1,1.7C106.3,77.4,106.2,77.4,106.1,77.4z"/>
</g>
<g>
	<path class="st0" d="M110.6,69.1c-0.6,0-1.2-0.4-1.3-1.1l-5.9-26.3c-0.2-0.7,0.3-1.5,1-1.7c0.7-0.2,1.5,0.3,1.7,1l5.9,26.3
		c0.2,0.7-0.3,1.5-1,1.7C110.8,69.1,110.7,69.1,110.6,69.1z"/>
</g>
<g>
	<path class="st0" d="M115.5,61.1c-0.6,0-1.2-0.4-1.3-1.1l-4.2-18.7c-0.2-0.7,0.3-1.5,1-1.7c0.7-0.2,1.5,0.3,1.7,1l4.2,18.7
		c0.2,0.7-0.3,1.5-1,1.7C115.7,61.1,115.6,61.1,115.5,61.1z"/>
</g>
<g>
	<path class="st0" d="M72.7,133.5c-0.2,0-0.5-0.1-0.7-0.2c-0.7-0.4-0.9-1.2-0.5-1.9l52.4-88.1c0.4-0.7,1.2-0.9,1.9-0.5
		c0.7,0.4,0.9,1.2,0.5,1.9l-52.4,88.1C73.6,133.3,73.2,133.5,72.7,133.5z"/>
</g>
<g>
	<path class="st0" d="M98,150H36.1c-1.3,0-2.3-1-2.3-2.3v-6c0-1.3,1-2.3,2.3-2.3h50.7c0.8,0,1.4,0.6,1.4,1.4c0,0.8-0.6,1.4-1.4,1.4
		H36.6v5.1h60.9v-2.7c0-0.8,0.6-1.4,1.4-1.4s1.4,0.6,1.4,1.4v3.1C100.3,149,99.3,150,98,150z"/>
</g>
</svg>
