<?xml version="1.0" encoding="utf-8"?>
<!-- Generator: Adobe Illustrator 19.2.1, SVG Export Plug-In . SVG Version: 6.00 Build 0)  -->
<svg version="1.1" id="Layer_1" xmlns="http://www.w3.org/2000/svg" xmlns:xlink="http://www.w3.org/1999/xlink" x="0px" y="0px"
	 viewBox="0 0 150 150" style="enable-background:new 0 0 150 150;" xml:space="preserve">
<path d="M143.4315186,85.8741379c-1.4145508-10.5435104-3.209259-11.9966583-4.9383698-11.9966583
	c-2.3373718,0-3.7660217,2.8427887-4.7557831,9.4629364c-9.9431,12.9335861-19.441864,16.9292603-36.9250946,21.9640121
	c7.299263-9.1076202,11.285408-20.3684158,11.285408-32.1549683c0-28.3913574-23.0988541-51.4897308-51.4902115-51.4897308
	c-11.4365311,0-22.0104408,3.7525139-30.5654068,10.0846424L32.757679,9.3354836l4.4571342-2.8898897
	c0.4631538-0.3005676,0.7207832-0.8331952,0.6686783-1.3831906c-0.0521049-0.5495133-0.4042931-1.0247293-0.9156952-1.2331483
	l-9.0894012-3.7052343c-0.4699078-0.192016-1.0044651-0.1297797-1.4174442,0.1635513s-0.6474514,0.7772308-0.622364,1.2833233
	l0.2570267,5.121232L8.5310907,54.6802177c-0.0227957,0.0621758-0.0341339,0.1252556-0.0482454,0.1881561
	c-2.1669345,5.6850967-3.3646226,11.8444481-3.3646226,18.281086c0,28.1452408,22.7025185,51.0303421,50.7554359,51.4259491
	C56.1345444,124.8548737,56.4721413,125,56.8448334,125c0.0057907,0,0.0115814,0,0.0183334,0
	c0.2306137,0,23.2368393-0.4611969,36.1144562-0.4611969c17.3798599,0,31.0490646,5.2693634,40.7725296,15.8757782
	c0.4863129,3.2318268,1.8113708,9.5599213,4.7429962,9.5599213c1.7291107,0,3.523819-1.4475098,4.9383698-11.9910126
	c0.9349976-6.9714508,1.4502563-16.2225418,1.4502563-26.054924S144.3665161,92.8450928,143.4315186,85.8741379z
	 M138.7172394,77.774971c-0.2163696-0.0322647-0.4346924-0.0140533-0.6423798,0.047699
	c0.1295319-0.3070221,0.2450867-0.5274963,0.3401337-0.6814041
	C138.5143738,77.3121796,138.6153259,77.5243378,138.7172394,77.774971z M33.220108,5.502882l-1.9038773,1.2338114
	l-2.2939415-0.8634686l-0.1066208-2.1250219L33.220108,5.502882z M28.4689178,8.8318033l1.2090244,0.4554348l-7.2435398,24.1718292
	c-0.1172352,0.3901215-0.0653725,0.7905579,0.1124115,1.1235695c-2.0201492,1.7861595-3.9066582,3.7198296-5.6261177,5.7986565
	L28.4689178,8.8318033z M138.3913422,146.3161316c0.0125427,0.0187531,0.026535,0.0358276,0.0390778,0.0546417
	c0.0301514,0.0449219,0.0695953,0.0785217,0.1034851,0.1190948c-0.0086823,0.0175629-0.0176086,0.0439148-0.0262909,0.0608521
	C138.4708252,146.4830017,138.4301758,146.3949585,138.3913422,146.3161316z M139.6037445,142.947525
	c-1.0201416-1.399826-2.0840759-2.7411041-3.205658-4.0048981c-0.1009521-0.1605377-0.2302399-0.2994843-0.381134-0.4100189
	c-10.2878113-11.3414307-24.7178421-17.0820084-43.0393295-17.0820084c-12.0559998,0-32.9587326,0.2919998-35.8202782,0.3324661
	c-0.1703072-0.0682678-0.3552055-0.1080704-0.5498772-0.1080704c-26.7568073,0-48.5250587-21.7682495-48.5250587-48.5255356
	s21.7682495-48.5255432,48.5250587-48.5255432c26.7577744,0,48.5260239,21.7682495,48.5260239,48.5255432
	c0,12.4602966-4.7154922,24.304985-13.2780533,33.3509674c-0.0703201,0.0743561-0.1039658,0.1660233-0.1559525,0.2497253
	c-1.1560745,0.3227005-2.3342285,0.6502228-3.5569992,0.9896927c-4.1104965,1.1411209-8.3886414,1.9741974-12.4460678,2.5850983
	c13.4759827-6.9479141,22.7184448-20.9980774,22.7184448-37.1754837c0-20.6428108-15.0426254-37.8277054-34.7394676-41.1972733
	c-0.0385971-0.0091667-0.0779152-0.0149555-0.1177177-0.0210476c-2.2619781-0.3802929-4.5816116-0.5885906-6.9502106-0.5885906
	c-17.527977,0-32.5609512,10.8475189-38.7642021,26.1778641c-0.0325661,0.0659752-0.0587387,0.1347275-0.0812931,0.2058258
	c-1.9030333,4.7759171-2.9609308,9.9768181-2.9609308,15.4232216c0,5.9467621,1.2563066,11.6029129,3.5041723,16.729454
	c0.0387173,0.1226044,0.0891323,0.2391739,0.156435,0.3457413c6.3473854,14.123909,20.3054562,24.1061554,36.6263351,24.6931763
	c0.105175,0.0236969,0.213604,0.0385361,0.3258972,0.0385361c0.0822563,0,0.3859596-0.0009689,0.8647957-0.0083237
	c0.1099968,0.0008469,0.2185478,0.0083237,0.3287888,0.0083237c0.9031525,0,1.7970161-0.0388947,2.6860542-0.0955887
	c1.0610352-0.0426941,2.3068466-0.1048737,3.7045097-0.194725c0.1080704,0.0250244,0.2192764,0.0413666,0.3348236,0.0413666
	c0.183815,0,0.3577385-0.0376892,0.5200844-0.0988388c6.6053734-0.4596024,16.1293449-1.5272675,25.0826988-4.012619
	c25.4353714-7.0615921,37.1249466-10.3139877,50.5576324-30.1934967c1.2543793,5.4177551,2.4243164,16.4092865,2.4243164,31.528923
	C141.9175873,126.6045761,140.8156738,137.3712921,139.6037445,142.947525z M56.5298233,111.9822922
	C55.9122849,111.9761963,55,111.9582291,55,111.9234314V96h6v15.6284103c-1,0.1094589-1.040535,0.1929245-1.8625145,0.2518387
	C57.7237816,111.9418869,57.2109261,111.969986,56.5298233,111.9822922z M94.6357269,73.1494598
	C94.6357269,91.7514954,82,107.3338013,64,111.1115799V96h16.3904419c3.2854996,0,5.9582825-2.7147369,5.9582825-6.0002441
	C86.3487244,86.7147369,83.6759415,84,80.3904419,84H64v-4h16.3904419c3.2854996,0,5.9582825-2.7147369,5.9582825-6.0002441
	C86.3487244,70.7147369,83.6759415,68,80.3904419,68H64v-4h16.3904419c3.2854996,0,5.9582825-2.2147408,5.9582825-5.5002403
	C86.3487244,55.2147408,83.6759415,53,80.3904419,53H64V35.1873322C82,38.9651146,94.6357269,54.5474205,94.6357269,73.1494598z
	 M45.0875931,93c0.5148964-1,0.8152237-1.9082108,0.8152237-3.0002441C45.9028168,88.9079056,45.6024895,88,45.0877113,87h7.7665176
	c0.0130272,0,0.0252113,0.0038605,0.0383568,0.0038605S52.9179153,87,52.9309387,87h9.728653
	c0.2028732,0,0.4293823,0.1688614,0.6732635,0.1688614C63.5767326,87.1688614,63.8032455,87,64.0062408,87h16.384201
	c1.6509476,0,2.9940948,1.3492889,2.9940948,2.9997559C83.3845367,91.6507111,82.0413895,93,80.3904419,93H45.0875931z
	 M42.9386292,89.4360809c0,1.6509552-1.3431473,2.9941025-2.9940987,2.9941025
	c-1.6509552,0-2.9941025-1.3431473-2.9941025-2.9941025c0-1.6504669,1.3431473-2.9936142,2.9941025-2.9936142
	C41.5954819,86.4424667,42.9386292,87.785614,42.9386292,89.4360809z M42.9386292,73.8041458
	c0,1.6509552-1.3431473,2.9941025-2.9940987,2.9941025c-1.6509552,0-2.9941025-1.3431473-2.9941025-2.9941025
	c0-1.6504669,1.3431473-2.9936142,2.9941025-2.9936142C41.5954819,70.8105316,42.9386292,72.1536789,42.9386292,73.8041458z
	 M45.0877113,71h35.3027306c1.6509476,0,2.9940948,1.3492889,2.9940948,2.9997559
	C83.3845367,75.6507111,82.0413895,77,80.3904419,77H45.0875931c0.5148964-1,0.8152237-1.9082108,0.8152237-3.0002441
	C45.9028168,72.9079056,45.6024895,72,45.0877113,71z M42.9386292,58.1722069c0,1.6509514-1.3431473,2.9940987-2.9940987,2.9940987
	c-1.6509552,0-2.9941025-1.3431473-2.9941025-2.9940987c0-1.6504707,1.3431473-2.993618,2.9941025-2.993618
	C41.5954819,55.1785889,42.9386292,56.5217361,42.9386292,58.1722069z M45.0877113,55h35.3027306
	c1.6509476,0,2.9940948,1.3492889,2.9940948,2.9997597C83.3845367,59.6507111,82.0413895,61,80.3904419,61H45.0875931
	c0.5148964-1,0.8152237-1.9082108,0.8152237-3.0002403C45.9028168,56.9079094,45.6024895,56,45.0877113,55z M61,64v4h-6v-4H61z
	 M61,80v4h-6v-4H61z M61,53h-6V34.3754845c0-0.0421524,0.745018-0.0687485,1.4947472-0.0687485
	C58.2737923,34.306736,60,34.4377823,61,34.6705055V53z M52,53H39.9445305c-2.7728958,0-5.1026573,2-5.7641029,4H21.4357262
	C26.9383373,45,38,36.4508133,52,34.6645927V53z M20.186657,60h13.9937706c0.6614456,2,2.9910851,4,5.7641029,4H52v4H39.9445305
	c-2.7728958,0-5.1026573,2-5.7641029,5H17.7862148C17.8798122,68,18.714695,64,20.186657,60z M34.1804276,76
	c0.6614456,2,2.9910851,4,5.7641029,4H52v4H39.9445305c-2.7728958,0-5.1026573,2-5.7641029,4H20.703846
	c-1.6309299-4-2.6339493-8-2.8772259-12H34.1804276z M34.1804276,91c0.6614456,3,2.9910851,5,5.7641029,5H52v15.6343231
	C39,109.9154663,27.7879353,103,22.0853481,91H34.1804276z"/>
</svg>
