<?xml version="1.0" encoding="utf-8"?>
<!-- Generator: Adobe Illustrator 19.2.1, SVG Export Plug-In . SVG Version: 6.00 Build 0)  -->
<svg version="1.1" id="Layer_1" xmlns="http://www.w3.org/2000/svg" xmlns:xlink="http://www.w3.org/1999/xlink" x="0px" y="0px"
	 viewBox="0 0 150 150" style="enable-background:new 0 0 150 150;" xml:space="preserve">
<path d="M149.4880219,0.4861834c-0.6482391-0.6482445-1.6983948-0.6482445-2.3466492,0L135.4939728,12.133584
	c-0.7087402-0.3504572-1.4856262-0.5559368-2.3017426-0.5559368c-1.3948059,0-2.7031708,0.540204-3.6831055,1.5212135
	l-9.8570938,9.8570986c-0.3449249-0.0428791-0.6929474-0.0723877-1.0463791-0.0723877
	c-2.2213135,0-4.3054199,0.8600044-5.8417587,2.3963432l-0.9377289,0.8972797h-0.0000687L95.7881241,41.5224915
	c-2.4001312-1.1401672-5.352272-0.7425079-7.3355637,1.2394981c0,0.0005417,0,0.0005417,0,0.0005417
	c-1.9040833,1.9040833-2.363121,4.708889-1.3879166,7.0533028l-4.7593307,4.5439262
	c-2.4527969-1.3432846-5.5887451-1.0051842-7.6614456,1.0683861c-1.21978,1.21978-1.8917923,2.8420143-1.8917923,4.5674248
	c0,1.0053864,0.2344513,1.9728928,0.666275,2.8488998l-4.5641098,4.3574867
	c-2.4981766-1.5958328-5.8597298-1.3133011-8.0428276,0.8675003c0,0.0005417,0,0.0005417,0,0.0005417
	c-1.21978,1.21978-1.8917923,2.8420105-1.8917923,4.567421c0,1.1510391,0.3052826,2.2529831,0.8664856,3.2231216
	l-9.8793793,9.431488c-1.0037003-0.6152954-2.1568336-0.9505539-3.3631744-0.9505539
	c-1.7254105,0-3.3481827,0.6714706-4.5679626,1.8917923c-2.0725594,2.0725555-2.4107971,5.2031708-1.0721016,7.6543503
	l-4.461071,4.2590332c-0.9088249-0.4734192-1.9229927-0.7268448-2.9771996-0.7268448
	c-1.7254105,0-3.3471012,0.6714706-4.5668812,1.8912506c0,0.0005417,0,0.0005417,0,0.0005417
	c-1.2208614,1.21978-1.8917942,2.8414688-1.8917942,4.5668869c0,0.9511566,0.2110176,1.8678207,0.5986137,2.7060089
	L9.5266285,123.8449554l-4.022357,0.1561203c-0.4170375,0.0162048-0.8135471,0.1896057-1.1084981,0.4850998
	c-5.8266377,5.827179-5.8266377,15.3088379,0,21.1360168C7.2188783,148.4452972,10.9722137,150,14.9643202,150
	s7.7454405-1.5547028,10.5674658-4.3778076c0.2992725-0.2992706,0.4732189-0.7017212,0.4851036-1.1252441l0.1177635-4.0563965
	l14.578886-15.2700729c1.1299706,0.7452087,2.4474602,1.1517181,3.8290977,1.1513062
	c0.0702248,0,0.1415329-0.0005341,0.2117615-0.0027008c1.8691025-0.0550995,3.6009979-0.8308334,4.8769569-2.1840439
	L98.567337,72.233345c1.2759628-1.3537521,1.9479752-3.1283188,1.892868-4.9974213
	c-0.0345688-1.1819687-0.3576126-2.3093719-0.9323883-3.3011894c-0.0232315-0.0891991-0.0661774-0.2471886-0.1041946-0.3322716
	L123.889267,38C123.8895416,38,124,38,124,38s0,0.1473656,0,0.1470947l0.7689743-0.9113884
	c1.8841629-1.8845024,2.6120911-4.4562759,2.3012695-6.9154873l9.8293076-9.8551388
	c0.9810181-0.9810104,1.5096588-2.2893848,1.5096588-3.6831093c0-0.8160458-0.2120056-1.5928593-0.5624695-2.3015394
	l11.6444397-11.647603C150.1394348,2.1851242,150.136261,1.1338876,149.4880219,0.4861834z M90.799202,45.1091766
	c1.2230225-1.224102,3.2142181-1.2251854,4.4415588,0c1.2230225,1.224102,1.2230225,3.2169113,0,4.4410133
	c-1.2273407,1.224102-3.2185364,1.2230225-4.4415588,0C89.5751038,48.3255501,89.5751038,46.3338165,90.799202,45.1091766z
	 M76.9905167,57.7758713c0-0.0005379,0-0.0005379,0-0.0005379c0.612587-0.6120529,1.4164124-0.9183464,2.2202377-0.9183464
	c0.8049011,0,1.6087265,0.3062935,2.2213135,0.9188843c0.5931473,0.5926056,0.9194336,1.380764,0.9194336,2.2196999
	s-0.3262863,1.6270943-0.9194336,2.2202377c-1.2262573,1.224102-3.217453,1.2235603-4.4415512-0.0005417
	c-0.5931473-0.5926018-0.919426-1.3807602-0.919426-2.219696S76.3973694,58.3684769,76.9905167,57.7758713z M71.103508,69.6440125
	l4.5010452-4.2972488c1.0864868,0.7328491,2.3446884,1.1047821,3.6072769,1.1047821
	c1.6530304,0,3.3082123-0.6298752,4.5668869-1.8885498c1.21978-1.2197838,1.8917923-2.8420143,1.8917923-4.5674248
	c0-1.2039795-0.3339157-2.3541412-0.946167-3.3558159l4.3963165-4.1973801
	c1.1509705,0.8778954,2.5176849,1.3435516,3.8987808,1.3435516c1.6541061,0,3.309288-0.6298752,4.5679626-1.8890915
	c2.2323303-2.2332687,2.4750824-5.7029305,0.7482529-8.2177162l14.6385117-14.0072117l3.5486603,3.548666L72.7925949,77.7041931
	l-1.8293991-1.8295364c0.5664673-0.9737167,0.874855-2.080658,0.874855-3.237236
	C71.8380508,71.5772018,71.5821304,70.5570297,71.103508,69.6440125z M57.2322922,98.2665787l15.5804901-15.8488388
	l2.1128082,2.1130066L59.5748863,100.609169L57.2322922,98.2665787z M57.2826004,103.01017l-10.9109001,11.4281464
	l-2.5401077-2.5401001l11.0741119-11.2649384L57.2826004,103.01017z M63.1580582,70.4166412v0.0005417
	c1.2230225-1.2246399,3.2142105-1.226265,4.4415588-0.0005417c0.5931396,0.5931473,0.919426,1.3818436,0.919426,2.2207794
	c0,0.8383942-0.3262863,1.6270905-0.919426,2.2202377c-1.2273483,1.2246399-3.2185364,1.2230225-4.4415588-0.0005417
	c-0.5931435-0.5926056-0.919426-1.3813019-0.919426-2.219696C62.2386322,71.7984848,62.5649147,71.0097885,63.1580582,70.4166412z
	 M62.1437569,78.1990891c0.9992447,0.5803146,2.1120644,0.8943024,3.2356224,0.8943024
	c1.1172714,0,2.2256393-0.3123703,3.2217712-0.8875504l1.8648529,1.8650513L54.8855133,95.9197922l-2.4722443-2.4722366
	c0.8238792-1.833992,0.7394066-3.9584808-0.2326241-5.73703L62.1437569,78.1990891z M44.3222351,88.5799103
	c0.5931435-0.5931396,1.3818398-0.919426,2.2213173-0.919426c0.8383942,0,1.6270943,0.3262863,2.2202377,0.919426
	c1.2230186,1.2241058,1.2230186,3.2169189,0,4.4410172c-1.226265,1.2240982-3.217453,1.2230225-4.441555,0
	C43.0981331,91.7962875,43.0981331,89.8045578,44.3222351,88.5799103z M43.1857796,96.2981415
	c1.0285492,0.6275101,2.1891098,0.9585266,3.3566933,0.9585266c1.3233643,0,2.6373405-0.4221039,3.7584648-1.228157
	l2.2579842,2.257988L41.484745,109.5513687l-2.4356422-2.4356461c0.5664711-0.9737167,0.8747902-2.0806656,0.8747902-3.237236
	c0-1.2565155-0.3603134-2.4561081-1.0251007-3.4874268L43.1857796,96.2981415z M31.2449818,101.658783
	c0-0.0005341,0-0.0005341,0-0.0005341c0.5931435-0.5931473,1.3807583-0.9194336,2.2202358-0.9194336
	c0.838398,0,1.6270943,0.3262863,2.2202377,0.9199677c0.5931435,0.5926056,0.919426,1.3807602,0.919426,2.2197037
	c0,0.8389359-0.3262825,1.6270905-0.919426,2.2202301c-1.1873665,1.1868286-3.2541885,1.1862946-4.4404736-0.0005341
	c-0.5931454-0.5926056-0.9194279-1.3807602-0.9194279-2.219696
	C30.3255539,103.0395432,30.6518364,102.2513885,31.2449818,101.658783z M22.7194843,143.7163544
	c-2.1348839,1.9166412-4.8639946,2.9646301-7.7551641,2.9646301c-3.1061716,0-6.0254335-1.2095184-8.2219019-3.4054413
	c-4.3821325-4.3832092-4.5269074-11.4247742-0.4343238-15.9840851l1.3519278-0.0523376
	c-0.4894924,1.3017578-0.7566233,2.6903534-0.7566233,4.1227722c0,3.1266937,1.2176194,6.0670319,3.429214,8.2780762
	c2.2818203,2.2823639,5.2799511,3.4238129,8.2780819,3.4238129c1.4090538,0,2.8154068-0.2618561,4.150116-0.7660675
	L22.7194843,143.7163544z M24.5667801,137.2769165c-0.0073605,0.0070953-0.017355,0.0091248-0.0246468,0.0164032
	c-3.2714748,3.270401-8.5914011,3.270401-11.8628759,0c-1.5838766-1.5844116-2.4568462-3.6912079-2.4568462-5.931427
	c0-2.2407684,0.8729696-4.347023,2.4568462-5.9314423c0.0051327-0.005127,0.0064831-0.0122223,0.0115471-0.0174179
	l17.0414047-16.2697906c1.0839176,0.7720184,2.3750038,1.1939163,3.7330093,1.1939163
	c1.1567802,0,2.2636566-0.3081818,3.2373085-0.8747253l2.4556313,2.4556351l-6.3012085,6.4097824
	c-0.6428413,0.6536484-0.634201,1.7043457,0.0194473,2.3471909c0.32304,0.3176346,0.7433205,0.475914,1.1635971,0.475914
	c0.4289246,0,0.8589249-0.1658401,1.1830482-0.495903l6.2819633-6.3901367l2.5744057,2.5744095L24.5667801,137.2769165z
	 M96.1515427,69.9563904l-48.9359779,51.9022369c-0.6666107,0.7082062-1.576313,1.1138992-2.558403,1.1425323
	c-0.5479698,0.0231552-1.0818291-0.0947418-1.5751686-0.3115005l53.8611526-56.4147568
	c0.1125641,0.3383026,0.189209,0.690918,0.2002106,1.0587921C97.1714478,68.31633,96.8203125,69.2476425,96.1515427,69.9563904z
	 M96.2329102,62.2133102c-0.0963593,0.0643501-0.2016983,0.110405-0.2855606,0.1969719
	c-0.0911636,0.093792-0.1397095,0.2086525-0.2042694,0.3161545L77.2179413,82.1298141l-2.0785675-2.0787735l43.7303009-44.4836197
	l1.4340439,1.4340401L96.2329102,62.2133102z M122.5722351,34.5766869l-2.5479355-2.56147
	C120.0238266,32.0147476,120.0236206,32,120.0231476,32s-0.0010834,0-0.0015564,0l-4.627449-4.6144638
	c0.8955231-0.7615509,2.0125961-1.1894474,3.2115097-1.1894474c1.3343048,0,2.5843353,0.5608044,3.5199661,1.4958973
	l0.1955566,0.175806C124.1571274,29.7042828,124.2333603,32.5994759,122.5722351,34.5766869z M134.5276184,18.1178932
	l-8.7555542,8.7565022c-0.313385-0.4860497-0.6791687-0.947855-1.104248-1.3729954l-0.195549-0.1955547
	c-0.4212952-0.421629-0.8833008-0.7874146-1.3731995-1.1036358l8.7567062-8.7567034
	c0.7076569-0.7076674,1.9609375-0.7092876,2.6718445,0.0005398c0.3543701,0.3538342,0.5499268,0.8281336,0.5499268,1.3359251
	C135.0775452,17.2892208,134.8819885,17.7635212,134.5276184,18.1178932z"/>
</svg>
