<?xml version="1.0" encoding="utf-8"?>
<!-- Generator: Adobe Illustrator 19.2.1, SVG Export Plug-In . SVG Version: 6.00 Build 0)  -->
<svg version="1.1" id="Слой_1" xmlns="http://www.w3.org/2000/svg" xmlns:xlink="http://www.w3.org/1999/xlink" x="0px" y="0px"
	 viewBox="0 0 150 150" style="enable-background:new 0 0 150 150;" xml:space="preserve">
<path d="M145.4,64.9V43.3c0-1.4,0-5.2-21.4-8.2c-13.1-1.8-30.5-2.9-49-2.9c-18.5,0-35.9,1-49,2.9C4.5,38,4.5,41.8,4.5,43.3v21.6
	C1.9,65.5,0,67.8,0,70.5v11.3c0,2.8,1.9,5.1,4.5,5.6v16.3c0,7.9,37.9,14,70.5,14s70.5-6.1,70.5-14V87.5c2.6-0.6,4.6-2.9,4.6-5.6
	V70.5C150,67.8,148,65.5,145.4,64.9z M142.7,87.5v5.1c0,0.6-3.4,4-19.1,7.5c-2.8,0.6-6.5,1.3-11.2,2.1v-7.5c2.6-0.6,4.6-2.9,4.6-5.6
	V77.7c0-2.8-2-5.1-4.6-5.6v-8.6c4.2-0.4,8.1-0.8,11.7-1.3c10.6-1.5,15.9-3.2,18.6-4.7v7.4c-2.6,0.6-4.6,2.9-4.6,5.6v11.3
	C138.1,84.6,140.1,86.9,142.7,87.5z M7.3,87.5c2.6-0.5,4.6-2.9,4.6-5.7V70.5c0-2.8-2-5.1-4.6-5.7v-7.4c2.7,1.5,8.1,3.2,18.6,4.7
	c3.5,0.5,7.3,0.9,11.3,1.3V72c-2.6,0.6-4.6,2.9-4.6,5.6V89c0,2.8,2,5.1,4.6,5.6v7.4c-4.5-0.7-8.1-1.4-10.8-2
	c-15.7-3.4-19.1-6.8-19.1-7.5V87.5z M142.7,53.9c0,0-0.8,2.9-19,5.5c-3.5,0.5-7.3,0.9-11.3,1.3v-1.8c0-0.8-0.6-1.4-1.4-1.4
	s-1.4,0.6-1.4,1.4v2.1c-9.7,0.8-20.7,1.2-32.2,1.3v-2.4c0-0.8-0.6-1.4-1.4-1.4c-0.8,0-1.4,0.6-1.4,1.4v2.4
	c-12.3,0-24.1-0.5-34.5-1.3v-2c0-0.8-0.6-1.4-1.4-1.4s-1.4,0.6-1.4,1.4v1.8c-3.9-0.4-7.6-0.8-10.9-1.2c-18.2-2.6-19-5.5-19-5.5v-7.1
	c2.7,1.5,8.1,3.2,18.6,4.7c13.1,1.8,30.5,2.9,49,2.9c18.5,0,35.9-1,49-2.9c10.6-1.5,15.9-3.2,18.6-4.7V53.9z M75.9,89.2
	c-0.8,0-1.4,0.6-1.4,1.4v2.1c-1-0.5-1.8-1.5-1.8-2.7V78.6c0-1.2,0.7-2.3,1.8-2.7v1.5c0,0.8,0.6,1.4,1.4,1.4c0.8,0,1.4-0.6,1.4-1.4
	v-1.5c1,0.5,1.8,1.5,1.8,2.7V90c0,1.2-0.7,2.3-1.8,2.7v-2.1C77.3,89.8,76.6,89.2,75.9,89.2z M38.6,88.3c-0.8,0-1.4,0.6-1.4,1.4v2.1
	c-1-0.5-1.8-1.5-1.8-2.7V77.7c0-1.2,0.7-2.3,1.8-2.7v1.5c0,0.8,0.6,1.4,1.4,1.4s1.4-0.6,1.4-1.4V75c1,0.5,1.8,1.5,1.8,2.7V89
	c0,1.2-0.7,2.3-1.8,2.7v-2.1C40,88.9,39.4,88.3,38.6,88.3z M40,94.6c2.6-0.6,4.6-2.9,4.6-5.6V77.7c0-2.8-2-5.1-4.6-5.6v-8.4
	C50.4,64.5,62.2,65,74.5,65v8c-2.6,0.6-4.6,2.9-4.6,5.6V90c0,2.8,2,5.1,4.6,5.6v9.2c-13.9,0-25.6-1.1-34.5-2.4V94.6z M77.3,95.6
	c2.6-0.6,4.6-2.9,4.6-5.6V78.6c0-2.8-2-5.1-4.6-5.6v-8c11.5-0.1,22.5-0.5,32.2-1.3V72c-2.6,0.6-4.6,2.9-4.6,5.6V89
	c0,2.8,2,5.1,4.6,5.6v7.9c-8.4,1.2-19.3,2.2-32.2,2.3V95.6z M110.9,88.3c-0.8,0-1.4,0.6-1.4,1.4v2.1c-1-0.5-1.8-1.5-1.8-2.7V77.7
	c0-1.2,0.7-2.3,1.8-2.7v1.5c0,0.8,0.6,1.4,1.4,1.4s1.4-0.6,1.4-1.4V75c1,0.5,1.8,1.5,1.8,2.7V89c0,1.2-0.7,2.3-1.8,2.7v-2.1
	C112.3,88.9,111.7,88.3,110.9,88.3z M26.3,37.8c13-1.8,30.3-2.8,48.6-2.8s35.7,1,48.6,2.8c18.2,2.6,19,5.5,19,5.5s-0.8,2.9-19,5.5
	c-13,1.8-30.3,2.8-48.6,2.8s-35.7-1-48.6-2.8c-18.2-2.6-19-5.5-19-5.5S8.1,40.3,26.3,37.8z M2.8,81.8V70.5c0-1.2,0.7-2.2,1.7-2.7
	v1.6c0,0.8,0.6,1.4,1.4,1.4s1.4-0.6,1.4-1.4v-1.6c1.1,0.5,1.8,1.5,1.8,2.8v11.3c0,1.2-0.7,2.3-1.8,2.7v-1.7c0-0.8-0.6-1.4-1.4-1.4
	s-1.4,0.6-1.4,1.4v1.6C3.5,84.1,2.8,83,2.8,81.8z M123.6,110.8c-13.9,2.8-31.1,4.3-48.6,4.3s-34.7-1.5-48.6-4.3
	c-15.9-3.2-19.1-6.3-19.1-7v-7.4c4.9,3.4,16,6.4,30,8.5v4.3c0,0.8,0.6,1.4,1.4,1.4s1.4-0.6,1.4-1.4v-3.9c10.5,1.4,22.4,2.3,34.5,2.3
	v2.6c0,0.8,0.6,1.4,1.4,1.4c0.8,0,1.4-0.6,1.4-1.4v-2.6c11.2-0.1,22.4-0.9,32.2-2.3v3.9c0,0.8,0.6,1.4,1.4,1.4s1.4-0.6,1.4-1.4V105
	c14.1-2.1,25.4-5.2,30.4-8.6v7.4C142.7,104.5,139.4,107.6,123.6,110.8z M147.2,81.8c0,1.2-0.7,2.3-1.8,2.7v-1.7
	c0-0.8-0.6-1.4-1.4-1.4s-1.4,0.6-1.4,1.4v1.7c-1-0.5-1.8-1.5-1.8-2.7V70.5c0-1.2,0.7-2.3,1.8-2.7v1.3c0,0.8,0.6,1.4,1.4,1.4
	s1.4-0.6,1.4-1.4v-1.3c1,0.5,1.8,1.5,1.8,2.7V81.8z"/>
</svg>
