<?xml version="1.0" encoding="utf-8"?>
<!-- Generator: Adobe Illustrator 19.2.1, SVG Export Plug-In . SVG Version: 6.00 Build 0)  -->
<svg version="1.1" id="Слой_1" xmlns="http://www.w3.org/2000/svg" xmlns:xlink="http://www.w3.org/1999/xlink" x="0px" y="0px"
	 viewBox="0 0 150 150" style="enable-background:new 0 0 150 150;" xml:space="preserve">
<path d="M142.4,140.2h-2.1L114.3,78c11.5-9.2,19.8-22.5,22.6-38c2.9-0.3,5.2-2.8,5.2-5.8v-7.7c0-2.7-1.9-5-4.3-5.6
	c0.1-2.2,0.1-5,0.1-7.2l0-0.6c0,0,0,0,0,0c0,0,0,0,0,0l0-0.7c0-0.5-0.2-0.9-0.5-1.2C132.7,3,98.4,0,74.8,0
	C49.7,0,12.5,3.4,11.6,12.8c0,0.1,0,0.2,0,0.4c0,2.6,0.1,5.5,0.3,7.9c-2.4,0.7-4.2,2.9-4.2,5.6v7.7c0,3,2.2,5.4,5.1,5.8
	c2.9,15.7,11.3,29.2,23.2,38.4l-25.9,61.7H7.6c-2.7,0-4.9,2.2-4.9,4.9s2.2,4.9,4.9,4.9h13.3c2.7,0,4.9-2.2,4.9-4.9s-2.2-4.9-4.9-4.9
	h-0.7l15.9-38c7.3,4.6,18.9,10,34.2,11v27H68c-2.7,0-4.9,2.2-4.9,4.9s2.2,4.9,4.9,4.9h13.3c2.7,0,4.9-2.2,4.9-4.9s-2.2-4.9-4.9-4.9
	h-1.9v-27c16.4-1.3,28.3-8,34.5-12.4l16.5,39.4h-1.2c-2.7,0-4.9,2.2-4.9,4.9s2.2,4.9,4.9,4.9h13.3c2.7,0,4.9-2.2,4.9-4.9
	S145.1,140.2,142.4,140.2z M85.5,87.7c9-13.2,9.6-34.1,9.6-39.4c2.2-0.8,3.7-3,3.7-5.4v-2.4l7.6-0.6c8.9-1,16.4-2.4,21.8-4.1
	l2.3-0.7c0.3,1.9,1.5,3.5,3.2,4.3C129.3,64.4,109.8,83.3,85.5,87.7z M70.2,104.7c-15.4-1-24.9-7-30.7-10.8l4.3-10.2
	c7.9,4.5,16.9,7.2,26.4,7.9V104.7z M64.5,87.7C55,76.1,54.2,54.5,54.1,48.6c2.9-0.4,5.1-2.8,5.1-5.8v-1.8c5.1,0.3,9.6,0.4,15.6,0.4
	c4.2,0,8.3-0.1,12.4-0.2v1.6c0,2.8,2,5.2,4.7,5.7c-0.1,5.8-0.9,28-10.8,39.6c0,0-0.1,0.1-0.1,0.1c-2,0.2-4.1,0.3-6.2,0.3
	C71.3,88.6,67.9,88.3,64.5,87.7z M47.5,35.2v2.2c-9.9-0.8-23.3-4.1-28.3-5.6v-5.1c0-2.7-1.8-4.9-4.2-5.6c-0.1-1.1-0.2-2.2-0.2-3.4
	c6.4,4.1,21.4,6.5,36.9,7.7v4.3C49.3,30.3,47.5,32.6,47.5,35.2z M130.5,26.6v5.2l-3.2,1c-5.2,1.6-12.5,3-21.2,3.9l-7.3,0.6v-2.1
	c0-2.7-1.8-4.9-4.2-5.6v-4c16.6-1.1,33.3-3.6,40.1-8c0,1.2-0.1,2.4-0.1,3.4C132.2,21.7,130.5,24,130.5,26.6z M93,45.5
	c-1.4,0-2.6-1.2-2.6-2.6v-7.7c0-1.4,1.2-2.6,2.6-2.6c1.4,0,2.6,1.2,2.6,2.6v7.7C95.6,44.3,94.5,45.5,93,45.5z M91.4,29.6
	c-2.4,0.7-4.2,2.9-4.2,5.6V38c-4.1,0.2-8.2,0.2-12.4,0.2c-6,0-10.5-0.1-15.5-0.4c0,0-0.1,0-0.1,0v-2.7c0-2.7-1.8-4.9-4.2-5.6v-4
	c6.9,0.4,13.7,0.6,19.9,0.6c5.2,0,10.8-0.1,16.6-0.5V29.6z M50.7,35.2c0-1.4,1.2-2.6,2.6-2.6c1.4,0,2.6,1.2,2.6,2.6v7.7
	c0,1.4-1.2,2.6-2.6,2.6c-1.4,0-2.6-1.2-2.6-2.6V35.2z M79.4,91.6c9.8-0.7,19.1-3.6,27.2-8.3l4,9.5c-4.9,3.6-15,10.5-31.1,11.9V91.6z
	 M138.9,26.6v7.7c0,1.4-1.2,2.6-2.6,2.6s-2.6-1.2-2.6-2.6v-7.7c0-1.4,1.2-2.6,2.6-2.6S138.9,25.1,138.9,26.6z M74.8,3.2
	c39.2,0,59.8,6.4,59.9,9.9l0,0.1c-0.1,3.5-20.7,9.9-59.9,9.9c-39.4,0-60.1-6.5-60.1-9.9S35.4,3.2,74.8,3.2z M10.9,34.3v-7.7
	c0-1.4,1.2-2.6,2.6-2.6s2.6,1.2,2.6,2.6v7.7c0,1.4-1.2,2.6-2.6,2.6S10.9,35.8,10.9,34.3z M15.9,39.6c1.8-0.8,3-2.5,3.3-4.5
	c5.7,1.7,18.7,4.8,28.3,5.5v2.3c0,2.3,1.4,4.3,3.3,5.3c0,5,0.5,25.3,9,38.6C37.6,81.1,20.2,63,15.9,39.6z M22.5,145.1
	c0,0.9-0.8,1.7-1.7,1.7H7.6c-0.9,0-1.7-0.8-1.7-1.7s0.8-1.7,1.7-1.7h13.3C21.7,143.4,22.5,144.2,22.5,145.1z M13.6,140.2l25-59.8
	c0.8,0.6,1.6,1.1,2.4,1.6l-24.4,58.2H13.6z M37.3,99.3l1-2.4c6.1,4,16,10,31.9,11v2.1C55.4,109,44.2,103.7,37.3,99.3z M82.9,145.1
	c0,0.9-0.8,1.7-1.7,1.7H68c-0.9,0-1.7-0.8-1.7-1.7s0.8-1.7,1.7-1.7h13.3C82.2,143.4,82.9,144.2,82.9,145.1z M73.4,140.2V91.8
	c0.5,0,0.9,0,1.4,0c0.4,0,0.9,0,1.3,0v48.4H73.4z M79.4,110v-2.1c16.5-1.4,27-8.1,32.4-12.1l0.8,2C106.9,102,95.4,108.7,79.4,110z
	 M109.3,81.7c0.8-0.5,1.6-1.1,2.4-1.7l25.2,60.2h-3.1L109.3,81.7z M142.4,146.8h-13.3c-0.9,0-1.7-0.8-1.7-1.7s0.8-1.7,1.7-1.7h13.3
	c0.9,0,1.7,0.8,1.7,1.7S143.4,146.8,142.4,146.8z"/>
</svg>
