<?xml version="1.0" encoding="utf-8"?>
<!-- Generator: Adobe Illustrator 19.2.1, SVG Export Plug-In . SVG Version: 6.00 Build 0)  -->
<svg version="1.1" id="Layer_1" xmlns="http://www.w3.org/2000/svg" xmlns:xlink="http://www.w3.org/1999/xlink" x="0px" y="0px"
	 viewBox="0 0 150 150" style="enable-background:new 0 0 150 150;" xml:space="preserve">
<path d="M136.6945496,84.0000916h-5.6913452c-0.0790558,0-0.1560822,0.008461-0.2308197,0.0232773
	c-0.0747223-0.0148163-0.1517639-0.0232773-0.2308197-0.0232773H65V62.1466789
	c12,0.6935768,24.4251556,1.8105736,32.0379181,3.6103706c8.6539612,2.0464478,14.3583755,4.0723114,17.4087067,5.2523422
	c0.597641,4.7558823,0.8545227,5.901825,2.1609879,5.901825c1.6942444,0,2.3512726-0.7978745,2.3512726-20.8087502
	s-0.70327-20.8087578-2.3975143-20.8087578c-1.3453217,0-1.6550217,1.2154312-2.2728577,6.3313026
	c-3.0622635,1.1822014-8.8803711,2.8966408-17.4933624,4.9334183C75.9979324,51.4757423,25.950737,51,25.4390774,51h-5.2096901
	C9.0752182,51,0,60.345829,0,71.5S9.0752182,92,20.2293873,92H79v11H67.4705353l-5.2719193-2.2760315
	c-0.5392647-0.4981003-1.2452965-0.7671814-2.0263443-0.8049316c-0.0477028-0.0062561-0.0952148,0.0076065-0.1427269,0.0071716
	c-0.0040398,0-0.0075989,0.0096436-0.0115395,0.0096436c-0.0282784,0-0.0545349,0.0130463-0.0827141,0.0137711
	c-0.0457802,0.0033188,0.0120316,0.0079422-0.0328827,0.0165024C58.2279739,100.0812454,57,101.4689865,57,103.1720276v8.3081131
	c0,1.7788849,1.3435783,3.2261505,3.1216888,3.2261505c0.0001945,0-0.0515518-0.3531952-0.0514565-0.3531952
	c0.0001907,0-0.0515556-0.353096-0.0514603-0.353096c0.0013466,0,0.0026932,0,0.0041389,0
	c0.968689,0,1.8284111-0.550087,2.4193192-1.2295303L67.5045776,110h69.1899719C144.030899,110,150,104.3367767,150,97.0004272
	C150,89.6633148,144.030899,84.0000916,136.6945496,84.0000916z M62,84.0000916h-2V61.9048424c1,0.0368843,2,0.0749702,2,0.114933
	V84.0000916z M40,84.0000916V61.4098701c0-0.0632362,0.0400009-0.124115,0.0303841-0.1846581
	C45.4672432,61.3410072,51,61.5201378,58,61.7967911v22.2033005H40z M35,84.0000916V61.1372604
	c1,0.0125008,1.3839378,0.0262527,2.1889343,0.0414009C37.1741219,61.2534866,37,61.3306694,37,61.4098701v22.5902214H35z
	 M24,84.0000916v-6.4536743c1-1.1464233,2.8406696-3.0967407,2.8406696-5.3070679S25,68.0787048,24,66.9322815v-5.9120216
	c1,0.0084152,5,0.0297661,8,0.0811729v22.8986588H24z M20.2763214,84.0000916C19.8223686,84.0000916,19,84.2693481,19,84.2062607
	V78.514534c0,0.068428,0.5918274,0.1093979,0.9853821,0.1093979C20.3890343,78.6239319,21,78.5820007,21,78.5100555v5.490036
	H20.2763214z M20.0478058,76.2602997c-2.2174454,0-4.0209484-1.8035049-4.0209484-4.0209503s1.803503-4.0209503,4.0209484-4.0209503
	s4.0209484,1.8035049,4.0209484,4.0209503S22.2652531,76.2602997,20.0478058,76.2602997z M19.9853821,65.8547668
	C19.5918274,65.8547668,19,65.8957367,19,65.9641647V61h1.2809372C20.321043,61,21,61.0149689,21,61.0150681v4.9535675
	C21,65.896698,20.3890343,65.8547668,19.9853821,65.8547668z M17,66.9144897c-3,1.1437759-3.1033421,3.1023178-3.1033421,5.3248596
	c0,2.2386551,1.2767982,4.208107,3.025095,5.3482285C16.8989601,77.6791916,17,77.7735367,17,77.8722153v5.7540054
	c-5-1.5812378-9-5.8067551-10-11.3660965v-1.2795334c0-5.2239761,4-9.5139771,10-9.9255142V66.9144897z M81,92h3v11h-3V92z M102,92
	v11h-3V92H102z M137.105423,92c3.063797,0,5.5559235,2.4369659,5.5559235,5.5s-2.4921265,5.5-5.5559235,5.5H104V92H137.105423z
	 M97,103H86V92h11V103z M59.7286682,112.2999039C59.3580055,112.2034912,59,111.8807678,59,111.4801407v-8.3081131
	c0-0.4136505,0.3763733-0.7434387,0.7654076-0.8264923l1.0126801,0.409523C60.8494492,102.8804245,61,103.0177155,61,103.1720276
	v8.3081131c0,0.1009369-0.1247749,0.1957703-0.1583405,0.2866592L59.7286682,112.2999039z M63,103.8694077l2.912735,1.2505341
	l-0.064888,3.9081345L63,110.4929886V103.8694077z M136.6945496,108H68.3953629l0.0023117-2h68.7077484
	c4.3671875,0,7.9195557-3.6335831,7.9195557-8s-3.5523682-8-7.9195557-8H20.2293873
	c-9.8515549,0-17.8657532-8.1484451-17.8657532-18s8.0141983-18,17.8657532-18h5.2043056
	c2.0651016,0,50.8289108,0.1598701,71.9008102-4.8228455c10.1320038-2.3959007,16.4004974-4.7413483,19.0519943-5.8309326
	c0.118103,3.1070824,0.1779251,7.3530884,0.1779251,12.7603264c0,5.6442146-0.0651169,10.0321541-0.193512,13.1691933
	c-2.6596603-1.0922775-8.9224854-3.42659-19.0364075-5.8182144c-9.0261688-2.1340103-24.042984-3.3233109-38.4404182-3.9848137
	c-0.0852127-0.0195236-0.1730194-0.0322838-0.2640991-0.0322838c-0.0467415,0-0.0910797,0.0083389-0.1363792,0.0136261
	c-19.0643044-0.8637123-36.9328461-0.8078003-38.2165146-0.801693l-2.9435902-0.0015717
	C10.5349722,58.6507912,5,64.1820602,5,70.9805908v1.3295441c0,0.0323181,0.0052066,0.2270966,0.0075145,0.2594147
	C5.7038326,80.9784546,13.6147499,87,20.2763214,87h110.2652435c0.0790558,0,0.1560974-0.0085144,0.2308197-0.0233231
	C130.8471222,86.9914856,130.9241486,87,131.0032043,87h5.6913452c6.032959,0,10.9418182,4.4666519,10.9418182,10.5003815
	C147.6363678,103.5333481,142.7275085,108,136.6945496,108z"/>
</svg>
