<?xml version="1.0" encoding="utf-8"?>
<!-- Generator: Adobe Illustrator 19.2.1, SVG Export Plug-In . SVG Version: 6.00 Build 0)  -->
<svg version="1.1" id="Слой_1" xmlns="http://www.w3.org/2000/svg" xmlns:xlink="http://www.w3.org/1999/xlink" x="0px" y="0px"
	 viewBox="0 0 150 150" style="enable-background:new 0 0 150 150;" xml:space="preserve">
<style type="text/css">
	.st0{fill:#222221;}
</style>
<path class="st0" d="M147.2,44.9c-1.5,0-1.8,1.1-2.6,8.1c-3.9,1.6-11.6,4.2-23,6.9c-10.4,2.5-28.1,3.9-46,4.8v-2.6
	c0-1.6-1.3-2.9-2.9-2.9H72v-4.4h2.4c0.7,0,1.2-0.6,1.2-1.2s-0.6-1.2-1.2-1.2h-7.1c-0.7,0-1.2,0.6-1.2,1.2s0.6,1.2,1.2,1.2h2.4v4.4
	h-0.7c-1.6,0-2.9,1.3-2.9,2.9v3c-0.7,0-1.2,0.1-1.9,0.1v-3.1c0-1.6-1.3-2.9-2.9-2.9h-0.7v-4.4H63c0.7,0,1.2-0.6,1.2-1.2
	s-0.6-1.2-1.2-1.2h-7.1c-0.7,0-1.2,0.6-1.2,1.2s0.6,1.2,1.2,1.2h2.4v4.4h-0.7c-1.6,0-2.9,1.3-2.9,2.9v3.5c-0.7,0-1.4,0-2.1,0.1v-3.4
	c0-1.6-1.3-2.9-2.9-2.9h-0.7V55h2.4c0.7,0,1.2-0.6,1.2-1.2c0-0.7-0.6-1.2-1.2-1.2h-7.1c-0.7,0-1.2,0.6-1.2,1.2
	c0,0.7,0.6,1.2,1.2,1.2h2.4v4.4h-0.7c-1.6,0-2.9,1.3-2.9,2.9V66c-14.3,0.2-24.8,0.2-25,0.2c-0.3,0-0.7,0.2-0.9,0.3
	c-0.2,0.2-0.3,0.5-0.3,0.8H5.9c-0.5-1-1.6-1.7-2.8-1.7C1.4,65.7,0,67,0,68.8v6.1C0,76.6,1.4,78,3.1,78c1.2,0,2.3-0.7,2.8-1.7h10.7
	c0,0.3,0.2,0.6,0.3,0.8c0.2,0.2,0.6,0.3,0.9,0.3c0.1,0,1.7,0,4.7,0c-0.4,1.3-0.6,2.7-0.6,4.2c0,8.6,7,15.6,15.6,15.6h5.3v5.1
	c0,1.6,1.3,2.9,2.9,2.9h3.9c1.6,0,2.9-1.3,2.9-2.9v-5.1h1.8v5.1c0,1.6,1.6,2.8,3.2,2.8h3.9c1.6,0,2.8-1.1,2.8-2.8v-5.1h2v5.1
	c0,1.6,1.3,2.9,2.9,2.9h3.9c1.6,0,2.9-1.3,2.9-2.9v-5.1h28.9c8,0,14.6-6.1,15.5-13.9c0.6,0.1,1.1,0.2,1.6,0.3
	c11.3,2.7,19,5.3,23,6.8c0.8,6.9,1.2,8,2.6,8c2,0,2.8-1.1,2.8-26.7C150,46.1,149.2,44.9,147.2,44.9z M147.1,52
	C147.1,52,147.1,52,147.1,52C147.1,52,147.1,52,147.1,52C147.1,52,147.1,52,147.1,52z M68.5,62.2c0-0.2,0.2-0.4,0.4-0.4h3.9
	c0.2,0,0.4,0.2,0.4,0.4v2.7c-1.6,0.1-3.1,0.2-4.7,0.2V62.2z M57,62.2c0-0.2,0.2-0.4,0.4-0.4h3.9c0.2,0,0.4,0.2,0.4,0.4v3.2
	c-1.6,0.1-3.1,0.1-4.7,0.2V62.2z M45.3,62.2c0-0.2,0.2-0.4,0.4-0.4h3.9c0.2,0,0.4,0.2,0.4,0.4v3.5c-1.6,0-3.2,0.1-4.7,0.1V62.2z
	 M6.2,69.8h2.5v3.9H6.2V69.8z M11.2,69.8h5.3v3.9h-5.4L11.2,69.8L11.2,69.8z M3,75.5c-0.4,0-0.7-0.3-0.7-0.7v-6.1
	c0-0.4,0.3-0.7,0.7-0.7c0.4,0,0.7,0.3,0.7,0.7v6.1C3.8,75.2,3.4,75.5,3,75.5z M19,75v-1.2L42.8,74v1.2C31.3,75,22.2,74.9,19,75z
	 M75.7,78.7c8,0.4,15.2,0.9,22.8,1.6c4.8,0.4,8.9,0.9,12.5,1.4c-0.2,3.6-3.1,6.5-6.7,6.5H75.7V78.7z M98.7,77.9
	c-7.7-0.7-15-1.2-23-1.6v-1.9l28.5,0.2c3,0,5.5,1.9,6.4,4.6C107.1,78.7,103.3,78.3,98.7,77.9z M73.2,88.2h-4.7V74.3l4.7,0.1V88.2z
	 M52.5,77.9c0.5,0,1,0,1.4,0.1h0.4v10.2h-1.8V77.9z M56.7,74.7h4.9v13.5h-4.9V74.7z M64.1,78.3c0.7,0,1.3,0.1,2,0.1v9.8h-2V78.3z
	 M66.1,75.9c-0.7,0-1.3-0.1-2-0.1v-1.6h2V75.9z M54.3,75.5h-0.3c-0.5,0-1,0-1.5-0.1v-1.3h1.8V75.5z M50,88.2h-4.7V74l4.7,0.1V88.2z
	 M32.5,77.5c3.1,0,6.6,0.1,10.3,0.2v10.5H38c-3.8,0-6.8-3-6.8-6.8C31.2,79.7,31.6,78.6,32.5,77.5z M50,102.2c0,0.2-0.2,0.4-0.4,0.4
	h-3.9c-0.2,0-0.4-0.2-0.4-0.4v-5.1H50V102.2z M61.6,102.2c0,0.1,0,0.3-0.3,0.3h-3.9c-0.3,0-0.7-0.2-0.7-0.3v-5.1h4.9
	C61.6,97.1,61.6,102.2,61.6,102.2z M73.2,102.2c0,0.2-0.2,0.4-0.4,0.4h-3.9c-0.2,0-0.4-0.2-0.4-0.4v-5.1h4.7V102.2z M104.6,94.7h-67
	c-7.2,0-13.1-5.9-13.1-13.1c0-1.5,0.2-2.9,0.7-4.2c1.3,0,2.9,0,4.5,0c-0.6,1.1-0.8,2.4-0.8,3.9c0,5.1,4.2,9.3,9.3,9.3h66.1
	c5.1,0,9.3-4.2,9.3-9.3c0-0.2,0-0.5,0-0.8v-0.1c-0.4-4.7-4.4-8.4-9.2-8.4L19,71.3v-2.7l0,0c2.7,0,9.3,0,18.1-0.2c0.1,0,0.2,0,0.2,0
	h67c7.2,0,13.1,5.9,13.1,13.1C117.5,88.8,111.8,94.7,104.6,94.7z M120.1,80.7c-0.4-8.2-7.2-14.7-15.5-14.7h-9.7
	c10.8-0.9,20.5-2,27.3-3.7c13.7-3.3,22-6.4,25.2-7.7c0.2,5.9,0.2,13.6,0.2,17c0,3.4,0,11.2-0.2,17.1c-3.2-1.3-11.4-4.4-25.2-7.6
	C121.5,81.1,120.8,80.9,120.1,80.7z M147.1,91.5L147.1,91.5L147.1,91.5L147.1,91.5z"/>
</svg>
