<?xml version="1.0" encoding="utf-8"?>
<!-- Generator: Adobe Illustrator 19.2.1, SVG Export Plug-In . SVG Version: 6.00 Build 0)  -->
<svg version="1.1" id="Layer_1" xmlns="http://www.w3.org/2000/svg" xmlns:xlink="http://www.w3.org/1999/xlink" x="0px" y="0px"
	 viewBox="0 0 150 150" style="enable-background:new 0 0 150 150;" xml:space="preserve">
<path d="M112.7643967,7.1152887c3.6848145-0.441328,6.0722122-0.9400234,6.0722122-2.907392
	c0-1.5065548-0.7513428-2.5570765-10.7976227-3.406208C101.9140091,0.2846575,93.7789993,0,85.1337357,0
	S68.3534622,0.2846575,62.2284851,0.8016886c-10.0462799,0.8491316-10.7976227,1.8996533-10.7976227,3.406208
	c0,1.6170535,1.3297348,2.4813132,9.0021744,3.2394319c7.0081177,6.5249758,10.6142654,19.0613441,11.0874863,29.8837147
	c0.065834,1.5034714,0.1304703,4.1145859,0.1932831,7.4993134c-3.2579498-4.5577278-8.6762466-8.1230888-14.3641968-8.7514648
	c-7.8580971-0.867527-13.9915009,0.7561798-18.5421486,4.8314323C33.5955162,45.5790939,31,53.3945885,31,63.5125198v57.9132843
	C31,136.9144745,43.8935356,150,59.3483124,150c17.8133621,0,27.544342-9.3588409,30.796608-29.4523697
	c1.9732361-12.186058,4.7081528-39.3882828,6.734642-59.2504044c1.1066818-10.8431282,2.0423126-20.2077827,2.5632095-24.1823349
	c0.1788864-1.3649521,0.6600189-2.7725067,0.9090958-4.1995468C103.8749847,31.7615242,108,31.0893364,112,30.9569302v1.1890392
	c0,1.8890038,1.1114807,3.4265404,3.0004807,3.4265404c1.8890076,0,2.9995193-1.5375366,2.9995193-3.4265404v-5.4210796
	c0-1.8890038-1.1105118-3.4255733-2.9995193-3.4255733C113.1114807,23.2993164,112,24.835886,112,26.7248898v1.2575397
	c-4,0.1143112-7.6477585,0.6605091-11.0113678,1.6041031C102.9192734,20.6026344,106.2032318,11.4477835,112.7643967,7.1152887z
	 M115,26.7248898c0-0.2449608,0-0.4511929,0-0.4511929C116,26.2736969,115,26.479929,115,26.7248898v5.4210796
	c0,0.2449608,1,0.4521599,0,0.4521599c0,0,0-0.2071991,0-0.4521599V26.7248898z M72.4512253,122.4782028
	c-0.0078659,9.0529404-5.595787,14.6754227-14.247345,14.6754227C49.3853073,137.1536255,42,129.9800568,42,121.1614838v-5.6786346
	c0-5.1386566,5-9.8462753,10-10.6661835v5.8754196c0,6.6129608,5.0958481,11.9933777,11.7097778,11.9933777
	c3.5869064,0,6.6599655-1.5909729,8.8597717-4.0949173C72.5828629,120.7067184,72.4488068,122.0748138,72.4512253,122.4782028z
	 M41.4995155,67.0726776C42.5229263,67.0726776,44,67.9053497,44,68.9277878v24.9985504
	c0,1.0224457-1.4770737,1.8551178-2.5004845,1.8551178C40.4770737,95.781456,39,94.9487839,39,93.9263382V68.9277878
	C39,67.9053497,40.4770737,67.0726776,41.4995155,67.0726776z M54.0004845,67.0726776
	C55.0229263,67.0726776,56,67.9053497,56,68.9277878v24.9985504c0,1.0224457-0.9770737,1.8551178-1.9995155,1.8551178
	C52.9770737,95.781456,52,94.9487839,52,93.9263382V68.9277878C52,67.9053497,52.9770737,67.0726776,54.0004845,67.0726776z
	 M96.4735641,36.7276001c-0.5267181,4.0171585-1.4842834,13.4011726-2.5929031,24.26754
	c-2.0226135,19.8263016-4.7927017,46.9781723-6.7514191,59.0780563
	c-3.016983,18.6402283-11.4613113,26.9524231-27.7719955,26.9524231C45.5184364,147.0256195,34,135.3023834,34,121.4258041
	V63.5125198c0-6.4493332,1.037426-15.2214317,6.80513-20.3859329c3.8922539-3.4856033,9.3208237-4.866291,16.3036499-4.090744
	c7.6214905,0.8422318,14.8961029,8.1236954,14.7877808,14.729393c0.0655975,4.8521919,0.1062012,10.3654327,0.1642914,16.1073608
	c-0.0009689,0.1338577-0.0192719,0.2647476-0.0192719,0.399086c0,0.04702,0.004158,0.0913162,0.0083923,0.1371841
	c0.1002121,9.9789276,0.1844101,20.6072311,0.2519455,29.6535263c-0.1682281,0.2409668-0.2697906,0.5327606-0.2697906,0.8487015
	c0,1.6469498-0.8686295,2.9860001-2.5155792,2.9860001S67,102.5580444,67,100.9110947v-2.4137802c2-0.63134,3-2.4302979,3-4.5709763
	V68.9277878c0-2.1406784-1-3.9396973-3-4.5710373v-6.0706978C67,58.2336464,66.0476379,58,66.0423203,58h2.1165314
	c0.8210526,0,1.4871902-0.6789474,1.4871902-1.5S68.9799042,55,68.1588516,55h-6.6855774
	c-0.8210564,0-1.4871902,0.6789474-1.4871902,1.5s0.6661339,1.5,1.4871902,1.5h1.6256447C63.0935936,58,64,58.2336464,64,58.2860527
	v6.0708809c-2,0.6315231-4,2.4303589-4,4.5708542v24.9985504c0,2.1404953,2,3.9393387,4,4.5708618v2.4138947
	c0,3.2861481,2.2159424,5.9603806,5.5030594,5.9603806c1.2183914,0,2.122551-0.369072,3.0676575-0.9992065
	c0.0147629,2.0941467-0.0861282,4.0547409-0.074028,5.8415375c-0.5096436,4.4929733-4.08992,7.9972763-8.7168159,7.9972763
	c-4.9737625,0-8.7798729-4.0462036-8.7798729-9.0189972V98.6119919c2-0.5077744,4-2.4096069,4-4.6856537V68.9277878
	c0-2.1404953-2-3.9393921-4-4.5709152v-6.0708199C55,58.2336464,54.7639732,58,54.7586479,58h1.5026817
	c0.8210526,0,1.4871902-0.6789474,1.4871902-1.5S57.0823822,55,56.2613297,55h-6.6855812
	c-0.8210526,0-1.4871902,0.6789474-1.4871902,1.5s0.6661377,1.5,1.4871902,1.5h2.239502C51.8099251,58,52,58.2336464,52,58.2860527
	v6.0706978c-3,0.63134-3,2.4303589-3,4.5710373v24.9985504c0,2.005188,0,3.7271118,3,4.4562454v3.4201279
	c-4,0.4426575-7,2.4427032-10,5.2780838v-8.4690475c3-0.5079498,5-2.4095993,5-4.6854095V68.9277878
	c0-2.1406784-2-3.9396973-5-4.5710373v-6.0706978C42,58.2336464,42.7812462,58,42.7759209,58h1.8715744
	c0.8210526,0,1.4871902-0.6789474,1.4871902-1.5S45.4685478,55,44.6474953,55h-6.6855812
	c-0.8210526,0-1.4871902,0.6789474-1.4871902,1.5s0.6661377,1.5,1.4871902,1.5h1.8706093C39.827198,58,39,58.2336464,39,58.2860527
	v6.0708809c-1,0.6315231-3,2.4303589-3,4.5708542v24.9985504c0,2.0133591,1.2537079,3.7392731,3.0090981,4.4632034
	C38.9985657,98.4610062,39,98.5323563,39,98.6067276v22.5547562c0,10.4577789,8.7332954,18.9665222,19.1910706,18.9665222
	c10.0983276,0,17.2979889-6.9985046,17.4002609-17.4347382C75.5933838,122.6588364,76,122.6248245,76,122.590271
	c0-0.0132523,0-0.0562744,0-0.1153946c0-0.0054474,0-0.0105286,0-0.015976c0-0.0027237,0-0.0052032,0-0.0079269
	c0-0.7641754-0.3155136-4.717186-0.3549728-10.5608292c0.0393372-0.394249-0.08284-0.7936478-0.08284-1.1980591
	c0-0.151886-0.1013336-0.2955475-0.143692-0.4336395c-0.0720139-10.5221634-0.224823-26.1601181-0.3684845-40.4078751
	c0.139183-16.860878,8.5523987-29.9570007,21.8233414-35.7177467
	C96.7398605,34.9867363,96.5895081,35.8425827,96.4735641,36.7276001z M64.9995193,67.0726776
	C66.0229263,67.0726776,67,67.9053497,67,68.9277878v24.9985504c0,1.0224457-0.9770737,1.8551178-2.0004807,1.8551178
	C63.9770737,95.781456,63,94.9487839,63,93.9263382V68.9277878C63,67.9053497,63.9770737,67.0726776,64.9995193,67.0726776z
	 M97.4623642,30.6487942C86.8145676,34.6276474,78.8044662,42.8019905,74.828331,53.7316513
	c-0.1051712-7.8014565-0.2184525-13.9219551-0.3353653-16.5950394c-0.4980316-11.370203-4.3865356-26.1709423-13.5784798-33.2227516
	c5.4103127-0.5232639,13.7159691-0.9394789,24.2192497-0.9394789c12.301033,0,21.5971832,0.5702834,26.7435303,1.2156041
	c-0.0358276,0.0214825-0.0716476,0.0434489-0.1074753,0.0651736c-0.3146744,0.0747948-0.58638,0.2433262-0.7858353,0.4768496
	C104.5404358,9.0965757,99.9391937,17.9265862,97.4623642,30.6487942z"/>
</svg>
