<?xml version="1.0" encoding="utf-8"?>
<!-- Generator: Adobe Illustrator 19.2.1, SVG Export Plug-In . SVG Version: 6.00 Build 0)  -->
<svg version="1.1" id="Слой_1" xmlns="http://www.w3.org/2000/svg" xmlns:xlink="http://www.w3.org/1999/xlink" x="0px" y="0px"
	 viewBox="0 0 150 150" style="enable-background:new 0 0 150 150;" xml:space="preserve">
<style type="text/css">
	.st0{fill:#000;}
</style>
<g>
	<path class="st0" d="M27.7,99.2c0.8,0.5,1.6,0.7,2.3,0.7c3.4,0,6.8-4.1,8.8-6.5l0.6-0.7c0.3-0.3,0.6-0.7,0.9-1.1
		c0.9-1.1,2.3-3,3.2-3.1c0.1,0,0.3,0,0.6,0.3c0.2,0.2,0.2,0.3,0.2,0.4c0,0.3-0.6,0.9-1.1,1.3c-0.7,0.4-0.9,1.3-0.4,2
		c0.4,0.7,1.3,0.9,2,0.4c0.2-0.1,2.2-1.5,2.4-3.4c0.1-0.7,0-1.8-1.1-2.8c-1.1-1.1-2.1-1.2-2.9-1.2c-2.2,0.1-4,2.4-5.4,4.2
		c-0.3,0.4-0.6,0.7-0.8,1l-0.6,0.7c-1.6,1.9-5.4,6.5-7.2,5.2c-0.5-0.3-0.7-0.7-0.7-1c0.1-0.5,0.8-1.1,1.4-1.2
		c0.8-0.2,1.3-0.9,1.2-1.7c-0.2-0.8-0.9-1.3-1.7-1.2c-1.5,0.3-3.3,1.6-3.7,3.5C25.4,96.7,26.1,98.2,27.7,99.2z"/>
	<path class="st0" d="M60.1,102.8c-2.1,0.3-3.3,2.6-3.5,3.1c-0.4,0.7-0.1,1.6,0.7,2c0.7,0.4,1.6,0.1,2-0.7c0.3-0.5,0.9-1.4,1.4-1.5
		c0.2,0,0.4,0.2,0.5,0.3c0.3,0.3,0.4,0.5,0.4,0.7c0,0.6-1.5,1.8-2.5,2.5c-0.6,0.5-1.3,1-1.8,1.6c-0.3,0.3-0.7,0.6-1.1,1
		c-3,2.7-7.7,6.9-5.3,10.6c0.8,1.3,2.1,2.1,3.4,2.1c0.4,0,0.8-0.1,1.2-0.2c1.8-0.6,3-2.3,2.9-4c-0.1-0.8-0.8-1.4-1.6-1.4
		c-0.8,0.1-1.4,0.8-1.4,1.6c0,0.3-0.4,0.8-0.9,1c-0.2,0.1-0.7,0.2-1.2-0.6c-1-1.6,2.9-5.2,4.8-6.9c0.4-0.4,0.8-0.7,1.1-1
		c0.5-0.5,1.1-0.9,1.6-1.4c1.7-1.3,3.5-2.7,3.6-4.7c0.1-1-0.4-2-1.3-2.9C62,102.7,60.8,102.6,60.1,102.8z"/>
	<path class="st0" d="M148.5,21.8c-0.9-0.9-2.1-1.4-3.4-1.4c-0.8,0-1.5,0.2-2.2,0.6l-1.2-1.2c-0.1-0.1-0.2-0.2-0.3-0.2l3.4-4.8
		c0.4-0.6,0.3-1.4-0.2-1.9l-7.3-7.3c-0.5-0.5-1.3-0.6-1.9-0.2l-4.7,3.4c-0.1-0.1-0.1-0.2-0.2-0.3L129,7c0,0,0,0,0,0
		c0.3-0.7,0.6-1.4,0.6-2.2c0-1.3-0.5-2.5-1.4-3.4C127.2,0.5,126,0,124.7,0c-1.3,0-2.5,0.5-3.4,1.4c-1.9,1.9-1.9,4.9,0,6.8
		c0.9,0.9,2.1,1.4,3.4,1.4c0.8,0,1.5-0.2,2.2-0.6c0,0,0,0,0,0l1.3,1.3l-2.7,1.9c-0.4,0.3-0.6,0.6-0.6,1.1c0,0.4,0.1,0.9,0.4,1.2
		l0.3,0.3l-5.1,3.5c0,0,0,0,0,0l-1.4-1.4c0,0,0,0,0,0c0.9-1.8,0.7-4.1-0.9-5.6c-0.9-0.9-2.1-1.4-3.4-1.4c-1.3,0-2.5,0.5-3.4,1.4
		c-1.9,1.9-1.9,4.9,0,6.8c0.9,0.9,2.2,1.4,3.4,1.4c0.8,0,1.5-0.2,2.2-0.6c0,0,0,0,0,0l1.1,1.1l-5.2,3.6c-0.4,0.2-0.6,0.6-0.6,1.1
		c0,0.4,0.1,0.9,0.4,1.2l0.9,0.9L87,52.1c-2.5-1.7-12.4-7.8-22.3-3.9c-7.7,3.1-10.3,8-11.8,10.9c-0.4,0.7-0.7,1.4-1,1.6
		c-0.6,0.7-2,1.2-3,1.3c-0.9,0.2-1.7,0.9-2,1.8l-0.5,1.7c-0.3,1.2,0.2,2.4,1.3,2.9c1.3,0.6,2.1,1.4,2.1,1.9c0,0.9-1.1,4-4.1,6.7
		c-3.1,2.8-7.2,4.1-12.2,4l-1.2-2.1c-0.4-0.8-1.3-1.2-2.2-1.1c0,0-0.1,0-0.1,0l-2,0.4c-1.1,0.1-1.9,1-2,2c-0.1,0.7-0.5,1.6-0.8,1.8
		c-0.7,0.3-2.1,1.1-3.9,2c-1.4,0.7-3.1,1.6-4.9,2.4c-2.9,1.4-14,9.3-16,21.7c-1.5,9.3,2.5,18.8,11.9,28.2l1.4,1.4
		C21.8,145.9,30,150,38,150c1.3,0,2.6-0.1,3.8-0.3c12.3-2,20.2-13.2,21.7-16c1.1-2.2,2.3-4.4,3.2-6.2c0.7-1.3,1.2-2.4,1.5-2.9
		c0.1-0.2,0.9-0.5,1.6-0.6c1.1-0.1,1.9-0.9,2-2l0.3-1.9c0,0,0-0.1,0-0.1c0.1-0.9-0.4-1.7-1.1-2.2l-2.1-1.2c-0.1-5,1.2-9.1,4-12.2
		c2.7-3,5.9-4.1,6.7-4.1c0.6-0.1,1.3,0.8,1.9,2.1c0.5,1.1,1.7,1.6,2.9,1.3l1.7-0.5c0.9-0.3,1.6-1,1.8-2c0.2-1,0.6-2.4,1.3-3
		c0.3-0.3,0.9-0.6,1.6-1c2.9-1.5,7.9-4.1,10.9-11.8c3.9-9.9-2.2-19.8-3.9-22.3l25.4-26.6l0.9,0.9c0.3,0.3,0.7,0.4,1,0.4
		c0,0,0.1,0,0.1,0c0.4,0,0.8-0.3,1.1-0.6l3.6-5.2l0.9,0.9c-0.9,1.8-0.7,4.1,0.9,5.6c0.9,0.9,2.2,1.4,3.4,1.4s2.5-0.5,3.4-1.4
		c0.9-0.9,1.4-2.1,1.4-3.4c0-1.3-0.5-2.5-1.4-3.4c-0.9-0.9-2.1-1.4-3.4-1.4c-0.8,0-1.5,0.2-2.2,0.6l-1.2-1.2c0,0,0,0,0,0l3.5-5
		l0.3,0.3c0.3,0.3,0.7,0.4,1,0.4c0,0,0.1,0,0.1,0c0.4,0,0.8-0.3,1.1-0.6l1.9-2.7l1.2,1.2c-0.3,0.7-0.6,1.4-0.6,2.2
		c0,1.3,0.5,2.5,1.4,3.4c0.9,0.9,2.1,1.4,3.4,1.4s2.5-0.5,3.4-1.4C150.4,26.7,150.4,23.7,148.5,21.8z M126,6.2c-0.7,0.7-2,0.7-2.7,0
		c-0.7-0.7-0.7-1.9,0-2.7c0.4-0.4,0.8-0.6,1.3-0.6c0.5,0,1,0.2,1.3,0.6c0.4,0.4,0.6,0.8,0.6,1.3S126.4,5.8,126,6.2
		C126,6.2,126,6.2,126,6.2z M113.5,16c-0.7-0.7-0.7-1.9,0-2.7c0.4-0.4,0.8-0.6,1.3-0.6c0.5,0,1,0.2,1.3,0.6c0.7,0.7,0.7,1.9,0,2.7
		C115.4,16.7,114.2,16.7,113.5,16z M136.6,33.7c0.4,0.4,0.6,0.8,0.6,1.3c0,0.5-0.2,1-0.6,1.3c-0.7,0.7-1.9,0.7-2.7,0
		c-0.7-0.7-0.7-1.9,0-2.7C134.6,33,135.8,33,136.6,33.7z M117.4,30.6L57.6,90.4l-2.8-2.8c-0.1-0.2,0-0.8,0.3-1.1l60.5-57.7
		L117.4,30.6z M3.3,108.7c1.8-11,12-18.3,14.5-19.5c1.7-0.9,3.4-1.7,4.9-2.5c1.8-0.9,3.2-1.6,3.9-1.9c1.5-0.7,2.1-2.7,2.3-3.6L30,81
		l1.3,2.4c0.2,0.4,0.7,0.7,1.2,0.7c7.7,0.4,12.5-2.3,15.1-4.7c3.5-3.2,5-7.1,5.1-8.8c0.1-1.8-1.1-3.4-3.4-4.6l0.3-1.1
		c1.1-0.2,3.1-0.8,4.4-2.2c0.5-0.6,0.9-1.3,1.4-2.3c1.4-2.7,3.6-6.9,10.3-9.6c7.9-3.1,16.2,1.4,19,3.2L53.1,84.4
		c-0.6,0.6-1,1.5-1.2,2.4c-0.2,1.1,0.1,2.2,0.8,2.9l2.8,2.8l-8.5,8.5l-1.9-1.9c-0.9-0.9-2.1-1.4-3.4-1.4s-2.5,0.5-3.4,1.4l-0.2,0.2
		c-0.9,0.9-1.4,2.1-1.4,3.4c0,1.3,0.5,2.5,1.4,3.4l1.9,1.9l-7.8,7.8l-3.7-3.7c-0.4-0.4-0.9-0.5-1.5-0.4c-0.5,0.1-4.6,1.6-8.5,10.6
		c-2.8,6.7-6.7,9.3-6.8,9.3c0,0,0,0-0.1,0.1C5,123.9,2.1,116.2,3.3,108.7z M48.9,106.9c0.7,0.7,0.7,1.9,0,2.7l-0.2,0.2
		c-0.7,0.7-2,0.7-2.7,0c0,0,0,0,0,0l-1.9-1.9l2.8-2.8L48.9,106.9z M42.2,105.9l-1.9-1.9c-0.4-0.4-0.6-0.8-0.6-1.3
		c0-0.5,0.2-1,0.6-1.3l0.2-0.2c0.4-0.4,0.8-0.6,1.3-0.6c0.5,0,1,0.2,1.3,0.6L45,103L42.2,105.9z M13.9,133.8
		c1.2-0.9,4.8-3.9,7.5-10.4c2.4-5.6,4.8-7.8,5.9-8.6l2.9,2.9l-5.6,5.6c-0.6,0.6-0.6,1.5,0,2.1c0.3,0.3,0.7,0.4,1,0.4
		c0.4,0,0.8-0.1,1-0.4l5.6-5.6l2.9,2.9c-0.8,1.2-3,3.5-8.6,5.9c-6.2,2.6-9.4,6.1-10.4,7.5c-0.2-0.1-0.3-0.3-0.5-0.4l-1.4-1.4
		C14.2,134.2,14.1,134,13.9,133.8z M99.2,84.4c-2.7,6.7-6.8,8.8-9.6,10.3c-1,0.5-1.7,0.9-2.3,1.4c-1.4,1.3-2,3.3-2.2,4.4l-1.1,0.3
		c-1.2-2.3-2.8-3.5-4.6-3.4c-1.7,0.1-5.6,1.6-8.8,5.1c-2.4,2.7-5.1,7.5-4.7,15.1c0,0.5,0.3,1,0.8,1.2l2.4,1.3l-0.2,1
		c-0.9,0.2-2.7,0.7-3.4,2.2c-0.2,0.5-0.8,1.5-1.4,2.8c-0.9,1.7-2.1,4-3.2,6.2c-1.2,2.4-8.5,12.7-19.5,14.5c-7.5,1.2-15.2-1.7-23-8.6
		c0.5-0.7,3.3-4.2,9.4-6.8c9.1-3.8,10.5-8,10.6-8.5c0.1-0.5,0-1.1-0.4-1.5l-3.7-3.7l7.8-7.8l1.9,1.9c0.9,0.9,2.1,1.4,3.4,1.4
		c1.3,0,2.5-0.5,3.4-1.4l0.2-0.2c1.9-1.9,1.9-4.9,0-6.8l-1.9-1.9l8.5-8.5l2.8,2.8c0.6,0.6,1.4,0.9,2.2,0.9c0.2,0,0.4,0,0.6,0
		c0.9-0.1,1.8-0.6,2.4-1.2l30.2-31.7C97.7,68.1,102.3,76.5,99.2,84.4z M63.6,94.9c-0.3,0.3-0.9,0.4-1.1,0.4l-2.8-2.8l59.8-59.8
		l1.8,1.8L63.6,94.9z M125.1,34.1l-3.5-3.5l4.9-4.9c0.6-0.6,0.6-1.5,0-2.1c-0.6-0.6-1.5-0.6-2.1,0l-4.9,4.9L116,25l11.7-8l5.4,5.4
		L125.1,34.1z M136.3,21.4l-7.7-7.7l7.4-5.3l5.5,5.5L136.3,21.4z M146.4,26.5c-0.7,0.7-2,0.7-2.7,0c-0.4-0.4-0.6-0.8-0.6-1.3
		c0-0.5,0.2-1,0.6-1.3c0,0,0,0,0,0c0.4-0.4,0.8-0.6,1.3-0.6c0.5,0,1,0.2,1.3,0.6C147.1,24.6,147.1,25.8,146.4,26.5z"/>
</g>
</svg>
