<?xml version="1.0" encoding="utf-8"?>
<!-- Generator: Adobe Illustrator 19.2.1, SVG Export Plug-In . SVG Version: 6.00 Build 0)  -->
<svg version="1.1" id="Layer_1" xmlns="http://www.w3.org/2000/svg" xmlns:xlink="http://www.w3.org/1999/xlink" x="0px" y="0px"
	 viewBox="0 0 1148.7 325.5" style="enable-background:new 0 0 1148.7 325.5;" xml:space="preserve">
<style type="text/css">
	.st0{clip-path:url(#SVGID_2_);fill:#FFFFFF;fill-opacity:0;}
	.st1{clip-path:url(#SVGID_4_);}
	.st2{clip-path:url(#SVGID_6_);}
	.st3{clip-path:url(#SVGID_8_);}
	.st4{clip-path:url(#SVGID_10_);}
	.st5{opacity:0;enable-background:new    ;}
	.st6{clip-path:url(#SVGID_12_);}
	.st7{clip-path:url(#SVGID_14_);fill:#FFFFFF;}
	.st8{clip-path:url(#SVGID_17_);}
	.st9{clip-path:url(#SVGID_18_);fill:#EC1C29;}
	.st10{clip-path:url(#SVGID_20_);}
	.st11{clip-path:url(#SVGID_30_);}
	.st12{clip-path:url(#SVGID_31_);}
	.st13{clip-path:url(#SVGID_32_);}
	.st14{clip-path:url(#SVGID_33_);}
	.st15{clip-path:url(#SVGID_34_);}
	.st16{clip-path:url(#SVGID_35_);}
	.st17{clip-path:url(#SVGID_36_);}
	.st18{clip-path:url(#SVGID_37_);}
	.st19{clip-path:url(#SVGID_38_);fill:#FFFFFF;}
	.st20{clip-path:url(#SVGID_38_);fill:#EC1C29;}
	.st21{clip-path:url(#SVGID_38_);fill:#231F20;}
	.st22{clip-path:url(#SVGID_38_);}
	.st23{fill:#231F20;}
	.st24{font-family:'STHeiti';}
	.st25{font-size:74.4889px;}
	.st26{clip-path:url(#SVGID_40_);}
	.st27{clip-path:url(#SVGID_43_);}
	.st28{clip-path:url(#SVGID_44_);fill:#EC1C29;}
	.st29{clip-path:url(#SVGID_46_);}
	.st30{clip-path:url(#SVGID_48_);}
	.st31{font-size:72.5846px;}
	.st32{enable-background:new    ;}
	.st33{clip-path:url(#SVGID_50_);}
	.st34{clip-path:url(#SVGID_52_);fill:none;stroke:#010101;stroke-width:3.3296;stroke-miterlimit:8;}
	.st35{clip-path:url(#SVGID_54_);}
	.st36{clip-path:url(#SVGID_56_);}
	.st37{clip-path:url(#SVGID_58_);}
	.st38{clip-path:url(#SVGID_60_);}
	.st39{clip-path:url(#SVGID_62_);}
	.st40{clip-path:url(#SVGID_64_);fill:#FFFFFF;}
	.st41{clip-path:url(#SVGID_67_);}
	.st42{clip-path:url(#SVGID_68_);fill:#FFFFFF;}
	.st43{clip-path:url(#SVGID_70_);}
	.st44{clip-path:url(#SVGID_80_);}
	.st45{clip-path:url(#SVGID_81_);}
	.st46{clip-path:url(#SVGID_82_);}
	.st47{clip-path:url(#SVGID_83_);}
	.st48{clip-path:url(#SVGID_84_);}
	.st49{clip-path:url(#SVGID_85_);}
	.st50{clip-path:url(#SVGID_86_);}
	.st51{clip-path:url(#SVGID_87_);}
	.st52{clip-path:url(#SVGID_88_);fill:#FFFFFF;}
	.st53{clip-path:url(#SVGID_88_);}
	.st54{fill:#221F1F;}
	.st55{clip-path:url(#SVGID_90_);}
	.st56{clip-path:url(#SVGID_93_);}
	.st57{clip-path:url(#SVGID_94_);fill:#FFFFFF;}
	.st58{clip-path:url(#SVGID_96_);}
	.st59{clip-path:url(#SVGID_98_);}
	.st60{fill:#FFFFFF;}
	.st61{clip-path:url(#SVGID_100_);}
	.st62{clip-path:url(#SVGID_102_);fill:none;stroke:#FFFFFF;stroke-width:3.3296;stroke-miterlimit:8;}
</style>
<g>
	<g>
		<defs>
			<rect id="SVGID_1_" x="-1.3" width="576" height="326"/>
		</defs>
		<clipPath id="SVGID_2_">
			<use xlink:href="#SVGID_1_"  style="overflow:visible;"/>
		</clipPath>
		<rect x="-1.3" class="st0" width="576" height="326"/>
	</g>
</g>
<g>
	<g>
		<defs>
			<rect id="SVGID_3_" x="-1.3" y="0" width="576" height="326"/>
		</defs>
		<clipPath id="SVGID_4_">
			<use xlink:href="#SVGID_3_"  style="overflow:visible;"/>
		</clipPath>
		<g class="st1">
			<g>
				<defs>
					<rect id="SVGID_5_" x="-1.3" y="0" width="576" height="326"/>
				</defs>
				<clipPath id="SVGID_6_">
					<use xlink:href="#SVGID_5_"  style="overflow:visible;"/>
				</clipPath>
				<g class="st2">
					<g>
						<g>
							<defs>
								<rect id="SVGID_7_" x="-1.3" y="0" width="576" height="326"/>
							</defs>
							<clipPath id="SVGID_8_">
								<use xlink:href="#SVGID_7_"  style="overflow:visible;"/>
							</clipPath>
							<g class="st3">
								<g>
									<defs>
										<rect id="SVGID_9_" x="-1.3" y="0" width="576" height="326"/>
									</defs>
									<clipPath id="SVGID_10_">
										<use xlink:href="#SVGID_9_"  style="overflow:visible;"/>
									</clipPath>
									<g class="st4">
										<g>
											<g class="st5">
												<defs>
													<rect id="SVGID_11_" x="-1.3" y="0" class="st5" width="576" height="326"/>
												</defs>
												<clipPath id="SVGID_12_">
													<use xlink:href="#SVGID_11_"  style="overflow:visible;"/>
												</clipPath>
												<g class="st6">
													<g>
														<defs>
															<rect id="SVGID_13_" x="-1.3" y="0" width="576" height="326"/>
														</defs>
														<clipPath id="SVGID_14_">
															<use xlink:href="#SVGID_13_"  style="overflow:visible;"/>
														</clipPath>
														<rect x="-3.9" y="-7" class="st7" width="578.7" height="333"/>
													</g>
												</g>
											</g>
											<g>
												<defs>
													<rect id="SVGID_15_" x="-1.3" y="0" width="576" height="326"/>
												</defs>
												<defs>
													<rect id="SVGID_16_" x="-1.3" y="0" width="576" height="326"/>
												</defs>
												<clipPath id="SVGID_17_">
													<use xlink:href="#SVGID_15_"  style="overflow:visible;"/>
												</clipPath>
												<clipPath id="SVGID_18_" class="st8">
													<use xlink:href="#SVGID_16_"  style="overflow:visible;"/>
												</clipPath>
												<polygon class="st9" points="0,124.7 19.9,124.7 56.3,171.6 56.5,171.6 56.5,124.7 76.4,124.7 76.4,201.4 56.5,201.4 
													20.1,154.4 19.9,154.4 19.9,201.4 0,201.4 												"/>
												<polygon class="st9" points="81.7,124.7 105.5,124.7 119.9,145.5 134.2,124.7 158,124.7 129.8,164.6 129.8,201.4 
													109.9,201.4 109.9,164.6 												"/>
											</g>
											<g>
												<defs>
													<rect id="SVGID_19_" x="-1.3" y="0" width="576" height="326"/>
												</defs>
												<clipPath id="SVGID_20_">
													<use xlink:href="#SVGID_19_"  style="overflow:visible;"/>
												</clipPath>
												<g class="st10">
													<g>
														<defs>
															<rect id="SVGID_21_" x="-1.3" y="0" width="576" height="210.7"/>
														</defs>
														<defs>
															<rect id="SVGID_22_" x="-1.3" y="0" width="576" height="210.7"/>
														</defs>
														<defs>
															<rect id="SVGID_23_" x="-1.3" y="0" width="576" height="210.7"/>
														</defs>
														<defs>
															<rect id="SVGID_24_" x="-1.3" y="0" width="576" height="210.7"/>
														</defs>
														<defs>
															<rect id="SVGID_25_" x="-1.3" y="0" width="576" height="210.7"/>
														</defs>
														<defs>
															<rect id="SVGID_26_" x="-1.3" y="0" width="576" height="210.7"/>
														</defs>
														<defs>
															<rect id="SVGID_27_" x="-1.3" y="0" width="576" height="210.7"/>
														</defs>
														<defs>
															<rect id="SVGID_28_" x="-1.3" y="0" width="576" height="210.7"/>
														</defs>
														<defs>
															<rect id="SVGID_29_" x="-1.3" y="0" width="576" height="210.7"/>
														</defs>
														<clipPath id="SVGID_30_">
															<use xlink:href="#SVGID_21_"  style="overflow:visible;"/>
														</clipPath>
														<clipPath id="SVGID_31_" class="st11">
															<use xlink:href="#SVGID_22_"  style="overflow:visible;"/>
														</clipPath>
														<clipPath id="SVGID_32_" class="st12">
															<use xlink:href="#SVGID_23_"  style="overflow:visible;"/>
														</clipPath>
														<clipPath id="SVGID_33_" class="st13">
															<use xlink:href="#SVGID_24_"  style="overflow:visible;"/>
														</clipPath>
														<clipPath id="SVGID_34_" class="st14">
															<use xlink:href="#SVGID_25_"  style="overflow:visible;"/>
														</clipPath>
														<clipPath id="SVGID_35_" class="st15">
															<use xlink:href="#SVGID_26_"  style="overflow:visible;"/>
														</clipPath>
														<clipPath id="SVGID_36_" class="st16">
															<use xlink:href="#SVGID_27_"  style="overflow:visible;"/>
														</clipPath>
														<clipPath id="SVGID_37_" class="st17">
															<use xlink:href="#SVGID_28_"  style="overflow:visible;"/>
														</clipPath>
														<clipPath id="SVGID_38_" class="st18">
															<use xlink:href="#SVGID_29_"  style="overflow:visible;"/>
														</clipPath>
														<path class="st19" d="M214.1,100.3L214.1,100.3c0.4,0.3,0.9,0.5,1.3,0.7L214.1,100.3z"/>
														<path class="st20" d="M249.3,63.1c-1.8-4.7-4.3-9-7.3-13c-5.5-6.5-11.1-13-16.6-19.5c-3.3-4.1-5.5-8.8-6.7-14
															c-0.3-1.2-0.9-8.8-1.9-15.9H214v125.2l3.4,1.9l0.2-83.3c3.8,0,6.9,1.3,11.2,4.1c4.3,2.7,7.8,6,10.6,9.8
															c2.5,3.3,4.5,7,5.9,11s2.2,8,2.2,11.9c0,6.2-1.2,13-3.6,20.3c-0.9,2.7-2.9,8.2-6.2,15.9l2.3-0.2
															c3.4-5.8,6-11.9,7.9-17.5c2.8-8,4.2-15.5,4.2-22.5C252,72.5,251.1,67.8,249.3,63.1"/>
														<path class="st20" d="M217.5,128.3V156l0,0v1.8v-0.1c0.1,7.2-3.5,15.3-10.2,21.6c-10.8,10.2-25.6,11.9-33.2,3.9
															c-7.5-8-4.9-22.8,5.9-33c10.8-10.2,25.6-11.9,33.2-3.9c0.3,0.3,0.3,0.2,0.6,0.5v-20.7c-6.2-3.1-13.1-4.7-20.3-4.7
															c-22.6,0-43.5,16.7-43.5,40.6c0,25.5,18.2,43.5,43.5,43.5c25.2,0,43.5-18,43.5-43.5
															C236.9,146.4,229.3,135.7,217.5,128.3"/>
														<path class="st21" d="M315,190.7c-3.2,3.5-7,6.2-11.5,8.1c-4.5,1.9-9.7,2.8-15.6,2.8c-5.2,0-10.1-1-14.8-3
															c-4.6-2-8.7-4.7-12.1-8.2c-3.4-3.4-6.2-7.5-8.1-12.2c-2-4.6-3-9.6-3-14.8s1-10.2,3-14.8s4.7-8.7,8.1-12.2
															s7.5-6.2,12.1-8.2s9.6-3,14.8-3c5.9,0,11.1,1,15.6,2.9s8.3,4.6,11.5,8l-5.9,5.2c-2.8-2.8-6-4.9-9.6-6.3
															c-3.7-1.4-7.6-2.2-11.9-2.2c-4.2,0-8.1,0.8-11.8,2.4c-3.7,1.6-6.9,3.8-9.6,6.5c-2.8,2.8-4.9,6-6.5,9.6
															c-1.6,3.7-2.4,7.6-2.4,11.8s0.8,8.2,2.4,11.8c1.6,3.7,3.8,6.9,6.5,9.6c2.8,2.8,6,4.9,9.6,6.5
															c3.7,1.6,7.6,2.4,11.8,2.4c4.3,0,8.3-0.8,12.1-2.4c3.8-1.6,7.1-3.9,10-7L315,190.7z"/>
														<polygon class="st21" points="385.9,201.6 385.9,166 337,166 337,201.6 328.7,201.6 328.7,125.3 337,125.3 337,158 
															385.9,158 385.9,125.3 393.9,125.3 393.9,201.6 														"/>
														<rect x="406" y="125.3" class="st21" width="8" height="76.3"/>
														<polygon class="st21" points="432.5,143.1 432.5,201.6 424.5,201.6 424.5,123.2 482.1,182.8 482.1,125.3 489.9,125.3 
															489.9,203.2 														"/>
														<path class="st21" d="M498.6,201.6l36.9-79.5l36.8,79.5h-8.6L553,178.3h-35l-11.2,23.3H498.6z M535.6,141.9
															l-13.7,28.3h27.3L535.6,141.9z"/>
														<g class="st22">
															<text transform="matrix(0.9968 0 0 1 -3.8608 273.5508)" class="st23 st24 st25">中华青年交响乐团</text>
														</g>
													</g>
													<g>
														<defs>
															<rect id="SVGID_39_" x="-1.3" y="0" width="576" height="326"/>
														</defs>
														<clipPath id="SVGID_40_">
															<use xlink:href="#SVGID_39_"  style="overflow:visible;"/>
														</clipPath>
														<g class="st26">
															<g>
																<defs>
																	<rect id="SVGID_41_" x="259.9" y="0" width="115.2" height="104.5"/>
																</defs>
																<defs>
																	<rect id="SVGID_42_" x="259.9" y="0" width="115.2" height="104.5"/>
																</defs>
																<clipPath id="SVGID_43_">
																	<use xlink:href="#SVGID_41_"  style="overflow:visible;"/>
																</clipPath>
																<clipPath id="SVGID_44_" class="st27">
																	<use xlink:href="#SVGID_42_"  style="overflow:visible;"/>
																</clipPath>
																<path class="st28" d="M308.3,36.7c-1.4-3.1-3.4-5.8-6-8.3s-5.6-4.5-8.9-6.2c-5.7-2.5-11.4-5.1-17.2-7.6
																	c-3.4-1.7-6.4-4-8.8-7c-0.6-0.7-2.2-3.2-5-7.5l-1.9,0.8L295,76.7l1.4,3c-4.1-2.5-10.4-2.6-16.4,0
																	c-8.4,3.8-13,11.7-10.2,17.8c2.8,6,11.8,7.9,20.2,4.1c8.4-3.8,13-11.7,10.2-17.8l0,0l-26-57.6
																	c2.6-1.2,5.8-1.5,9.5-1.1s7.1,1.5,10.1,3.1c2.7,1.4,5.1,3.2,7.3,5.3c2.2,2.2,3.8,4.5,5,7.1c1.8,4,3,8.8,3.6,14.3
																	c0.2,2,0.4,6.3,0.5,12.2l1.5-0.8c0.6-4.8,0.6-9.6,0.2-13.8C311.6,46.6,310.4,41.2,308.3,36.7"/>
																<path class="st28" d="M371.1,36.3L371.1,36.3l-38.6-24.9c1.1-1.7,2.9-3.2,5.4-4.4c2.4-1.2,4.9-1.9,7.4-2.1
																	c2.2-0.2,4.4-0.1,6.5,0.4c2.2,0.5,4.1,1.3,5.8,2.4c2.7,1.7,5.3,4.2,7.8,7.3c0.9,1.2,2.7,3.6,5.1,7.3l0.6-1.1
																	c-1.5-3.2-3.4-6.1-5.3-8.5c-2.7-3.5-5.6-6.3-8.6-8.2c-2.1-1.3-4.4-2.2-6.9-2.7c-2.6-0.5-5.2-0.6-7.8-0.3
																	c-4.5,0.7-9,1.4-13.4,2.1c-2.8,0.3-5.5,0-8.1-0.9c-0.6-0.2-2.6-1.1-6-2.7l-0.8,1.2L365.1,34l2.1,1.3
																	c-3.5,0.1-7.4,2.5-10,6.4c-3.6,5.6-3.3,12.2,0.8,14.8c4.1,2.6,10.3,0.2,13.9-5.4C375.5,45.6,375.2,38.9,371.1,36.3"
																	/>
															</g>
															<g>
																<defs>
																	<rect id="SVGID_45_" x="-1.3" y="0" width="576" height="326"/>
																</defs>
																<clipPath id="SVGID_46_">
																	<use xlink:href="#SVGID_45_"  style="overflow:visible;"/>
																</clipPath>
																<g class="st29">
																	<g>
																		<defs>
																			<rect id="SVGID_47_" x="-1.3" y="256.8" width="576" height="69.2"/>
																		</defs>
																		<clipPath id="SVGID_48_">
																			<use xlink:href="#SVGID_47_"  style="overflow:visible;"/>
																		</clipPath>
																		<g class="st30">
																			<text transform="matrix(1.0194 0 0 1 -9.9834 317.4922)" class="st23 st24 st31">中华青年交响乐团</text>
																		</g>
																	</g>
																	<g class="st32">
																		<defs>
																			<rect id="SVGID_49_" x="-1.3" y="0" class="st32" width="576" height="326"/>
																		</defs>
																		<clipPath id="SVGID_50_">
																			<use xlink:href="#SVGID_49_"  style="overflow:visible;"/>
																		</clipPath>
																		<g class="st33">
																			<g>
																				<defs>
																					<rect id="SVGID_51_" x="-1.3" y="0" width="576" height="326"/>
																				</defs>
																				<clipPath id="SVGID_52_">
																					<use xlink:href="#SVGID_51_"  style="overflow:visible;"/>
																				</clipPath>
																				<line class="st34" x1="-0.1" y1="229.9" x2="573.3" y2="229.9"/>
																			</g>
																		</g>
																	</g>
																</g>
															</g>
														</g>
													</g>
												</g>
											</g>
										</g>
									</g>
								</g>
							</g>
						</g>
					</g>
				</g>
			</g>
		</g>
	</g>
</g>
<g>
	<g>
		<defs>
			<rect id="SVGID_53_" x="573" y="0" width="576" height="326"/>
		</defs>
		<clipPath id="SVGID_54_">
			<use xlink:href="#SVGID_53_"  style="overflow:visible;"/>
		</clipPath>
		<g class="st35">
			<g>
				<defs>
					<rect id="SVGID_55_" x="573" y="0" width="576" height="326"/>
				</defs>
				<clipPath id="SVGID_56_">
					<use xlink:href="#SVGID_55_"  style="overflow:visible;"/>
				</clipPath>
				<g class="st36">
					<g>
						<g>
							<defs>
								<rect id="SVGID_57_" x="573" y="0" width="576" height="326"/>
							</defs>
							<clipPath id="SVGID_58_">
								<use xlink:href="#SVGID_57_"  style="overflow:visible;"/>
							</clipPath>
							<g class="st37">
								<g>
									<defs>
										<rect id="SVGID_59_" x="573" y="0" width="576" height="326"/>
									</defs>
									<clipPath id="SVGID_60_">
										<use xlink:href="#SVGID_59_"  style="overflow:visible;"/>
									</clipPath>
									<g class="st38">
										<g>
											<g class="st5">
												<defs>
													<rect id="SVGID_61_" x="573" y="0" class="st5" width="576" height="326"/>
												</defs>
												<clipPath id="SVGID_62_">
													<use xlink:href="#SVGID_61_"  style="overflow:visible;"/>
												</clipPath>
												<g class="st39">
													<g>
														<defs>
															<rect id="SVGID_63_" x="573" y="0" width="576" height="326"/>
														</defs>
														<clipPath id="SVGID_64_">
															<use xlink:href="#SVGID_63_"  style="overflow:visible;"/>
														</clipPath>
														<rect x="570.4" y="-7" class="st40" width="578.7" height="333"/>
													</g>
												</g>
											</g>
											<g>
												<defs>
													<rect id="SVGID_65_" x="573" y="0" width="576" height="326"/>
												</defs>
												<defs>
													<rect id="SVGID_66_" x="573" y="0" width="576" height="326"/>
												</defs>
												<clipPath id="SVGID_67_">
													<use xlink:href="#SVGID_65_"  style="overflow:visible;"/>
												</clipPath>
												<clipPath id="SVGID_68_" class="st41">
													<use xlink:href="#SVGID_66_"  style="overflow:visible;"/>
												</clipPath>
												<polygon class="st42" points="574.2,124.7 594.2,124.7 630.5,171.6 630.8,171.6 630.8,124.7 650.7,124.7 650.7,201.4 
													630.8,201.4 594.4,154.4 594.2,154.4 594.2,201.4 574.2,201.4 												"/>
												<polygon class="st42" points="656,124.7 679.8,124.7 694,145.5 708.4,124.7 732.2,124.7 704.1,164.6 704.1,201.4 
													684.2,201.4 684.2,164.6 												"/>
											</g>
											<g>
												<defs>
													<rect id="SVGID_69_" x="573" y="0" width="576" height="326"/>
												</defs>
												<clipPath id="SVGID_70_">
													<use xlink:href="#SVGID_69_"  style="overflow:visible;"/>
												</clipPath>
												<g class="st43">
													<g>
														<defs>
															<rect id="SVGID_71_" x="573" y="0" width="576" height="210.7"/>
														</defs>
														<defs>
															<rect id="SVGID_72_" x="573" y="0" width="576" height="210.7"/>
														</defs>
														<defs>
															<rect id="SVGID_73_" x="573" y="0" width="576" height="210.7"/>
														</defs>
														<defs>
															<rect id="SVGID_74_" x="573" y="0" width="576" height="210.7"/>
														</defs>
														<defs>
															<rect id="SVGID_75_" x="573" y="0" width="576" height="210.7"/>
														</defs>
														<defs>
															<rect id="SVGID_76_" x="573" y="0" width="576" height="210.7"/>
														</defs>
														<defs>
															<rect id="SVGID_77_" x="573" y="0" width="576" height="210.7"/>
														</defs>
														<defs>
															<rect id="SVGID_78_" x="573" y="0" width="576" height="210.7"/>
														</defs>
														<defs>
															<rect id="SVGID_79_" x="573" y="0" width="576" height="210.7"/>
														</defs>
														<clipPath id="SVGID_80_">
															<use xlink:href="#SVGID_71_"  style="overflow:visible;"/>
														</clipPath>
														<clipPath id="SVGID_81_" class="st44">
															<use xlink:href="#SVGID_72_"  style="overflow:visible;"/>
														</clipPath>
														<clipPath id="SVGID_82_" class="st45">
															<use xlink:href="#SVGID_73_"  style="overflow:visible;"/>
														</clipPath>
														<clipPath id="SVGID_83_" class="st46">
															<use xlink:href="#SVGID_74_"  style="overflow:visible;"/>
														</clipPath>
														<clipPath id="SVGID_84_" class="st47">
															<use xlink:href="#SVGID_75_"  style="overflow:visible;"/>
														</clipPath>
														<clipPath id="SVGID_85_" class="st48">
															<use xlink:href="#SVGID_76_"  style="overflow:visible;"/>
														</clipPath>
														<clipPath id="SVGID_86_" class="st49">
															<use xlink:href="#SVGID_77_"  style="overflow:visible;"/>
														</clipPath>
														<clipPath id="SVGID_87_" class="st50">
															<use xlink:href="#SVGID_78_"  style="overflow:visible;"/>
														</clipPath>
														<clipPath id="SVGID_88_" class="st51">
															<use xlink:href="#SVGID_79_"  style="overflow:visible;"/>
														</clipPath>
														<path class="st52" d="M788.2,100.3L788.2,100.3c0.4,0.3,0.9,0.5,1.3,0.7L788.2,100.3z"/>
														<path class="st52" d="M823.6,63.1c-1.8-4.7-4.3-9-7.3-13c-5.5-6.5-11.1-13-16.6-19.5c-3.3-4.1-5.5-8.8-6.7-14
															c-0.3-1.2-0.9-8.8-1.9-15.9h-2.7v125.2l3.4,1.9l0.2-83.3c3.8,0,6.9,1.3,11.2,4.1c4.3,2.7,7.8,6,10.6,9.8
															c2.5,3.3,4.5,7,5.9,11c1.4,4,2.2,8,2.2,11.9c0,6.2-1.2,13-3.6,20.3c-0.9,2.7-2.9,8.2-6.2,15.9l2.3-0.2
															c3.4-5.8,6-11.9,7.9-17.5c2.8-8,4.2-15.5,4.2-22.5C826.2,72.5,825.4,67.8,823.6,63.1"/>
														<path class="st52" d="M791.7,128.3V156l0,0v1.8v-0.1c0.1,7.2-3.5,15.3-10.2,21.6c-10.8,10.2-25.6,11.9-33.2,3.9
															c-7.5-8-4.9-22.8,5.9-33s25.6-11.9,33.2-3.9c0.3,0.3,0.3,0.2,0.6,0.5v-20.7c-6.2-3.1-13.1-4.7-20.3-4.7
															c-22.6,0-43.5,16.7-43.5,40.6c0,25.5,18.2,43.5,43.5,43.5c25.2,0,43.5-18,43.5-43.5
															C811.2,146.4,803.6,135.7,791.7,128.3"/>
														<path class="st52" d="M889.2,190.7c-3.2,3.5-7,6.2-11.5,8.1c-4.5,1.9-9.7,2.8-15.6,2.8c-5.2,0-10.1-1-14.8-3
															c-4.6-2-8.7-4.7-12.1-8.2c-3.4-3.4-6.2-7.5-8.1-12.2c-2-4.6-3-9.6-3-14.8s1-10.2,3-14.8s4.7-8.7,8.1-12.2
															c3.4-3.5,7.5-6.2,12.1-8.2c4.6-2,9.6-3,14.8-3c5.9,0,11.1,1,15.6,2.9s8.3,4.6,11.5,8l-5.9,5.2c-2.8-2.8-6-4.9-9.6-6.3
															c-3.7-1.4-7.6-2.2-11.9-2.2c-4.2,0-8.1,0.8-11.8,2.4c-3.7,1.6-6.9,3.8-9.6,6.5c-2.8,2.8-4.9,6-6.5,9.6
															c-1.6,3.7-2.4,7.6-2.4,11.8s0.8,8.2,2.4,11.8c1.6,3.7,3.8,6.9,6.5,9.6c2.8,2.8,6,4.9,9.6,6.5
															c3.7,1.6,7.6,2.4,11.8,2.4c4.3,0,8.3-0.8,12.1-2.4c3.8-1.6,7.1-3.9,10-7L889.2,190.7z"/>
														<polygon class="st52" points="960.2,201.6 960.2,166 911.2,166 911.2,201.6 903,201.6 903,125.3 911.2,125.3 
															911.2,158 960.2,158 960.2,125.3 968.2,125.3 968.2,201.6 														"/>
														<rect x="980.2" y="125.3" class="st52" width="8" height="76.3"/>
														<polygon class="st52" points="1006.8,143.1 1006.8,201.6 998.8,201.6 998.8,123.2 1056.2,182.8 1056.2,125.3 
															1064.2,125.3 1064.2,203.2 														"/>
														<path class="st52" d="M1072.8,201.6l36.9-79.5l36.8,79.5h-8.6l-10.9-23.3h-35l-11.2,23.3H1072.8z M1109.8,141.9
															l-13.7,28.3h27.3L1109.8,141.9z"/>
														<g class="st53">
															<text transform="matrix(0.9968 0 0 1 570.3632 273.5508)" class="st54 st24 st25">中华青年交响乐团</text>
														</g>
													</g>
													<g>
														<defs>
															<rect id="SVGID_89_" x="573" y="0" width="576" height="326"/>
														</defs>
														<clipPath id="SVGID_90_">
															<use xlink:href="#SVGID_89_"  style="overflow:visible;"/>
														</clipPath>
														<g class="st55">
															<g>
																<defs>
																	<rect id="SVGID_91_" x="834.1" y="0" width="115.2" height="104.5"/>
																</defs>
																<defs>
																	<rect id="SVGID_92_" x="834.1" y="0" width="115.2" height="104.5"/>
																</defs>
																<clipPath id="SVGID_93_">
																	<use xlink:href="#SVGID_91_"  style="overflow:visible;"/>
																</clipPath>
																<clipPath id="SVGID_94_" class="st56">
																	<use xlink:href="#SVGID_92_"  style="overflow:visible;"/>
																</clipPath>
																<path class="st57" d="M882.6,36.7c-1.4-3.1-3.4-5.8-6-8.3c-2.6-2.5-5.6-4.5-8.9-6.2c-5.7-2.5-11.4-5.1-17.2-7.6
																	c-3.4-1.7-6.4-4-8.8-7c-0.6-0.7-2.2-3.2-5-7.5l-1.9,0.8l34.5,75.8l1.4,3c-4.1-2.5-10.4-2.6-16.4,0
																	c-8.4,3.8-13,11.7-10.2,17.8c2.8,6,11.8,7.9,20.2,4.1c8.4-3.8,13-11.7,10.2-17.8l0,0l-26-57.6
																	c2.6-1.2,5.8-1.5,9.5-1.1s7.1,1.5,10.1,3.1c2.7,1.4,5.1,3.2,7.3,5.3c2.2,2.2,3.8,4.5,5,7.1c1.8,4,3,8.8,3.6,14.3
																	c0.2,2,0.4,6.3,0.5,12.2l1.5-0.8c0.6-4.8,0.6-9.6,0.2-13.8C885.9,46.6,884.6,41.2,882.6,36.7"/>
																<path class="st57" d="M945.4,36.3L945.4,36.3l-38.6-24.9c1.1-1.7,2.9-3.2,5.4-4.4c2.4-1.2,4.9-1.9,7.4-2.1
																	c2.2-0.2,4.4-0.1,6.5,0.4c2.2,0.5,4.1,1.3,5.8,2.4c2.7,1.7,5.3,4.2,7.8,7.3c0.9,1.2,2.7,3.6,5.1,7.3l0.6-1.1
																	c-1.5-3.2-3.4-6.1-5.3-8.5c-2.7-3.5-5.6-6.3-8.6-8.2c-2.1-1.3-4.4-2.2-6.9-2.7c-2.6-0.5-5.2-0.6-7.8-0.3
																	c-4.5,0.7-9,1.4-13.4,2.1c-2.8,0.3-5.5,0-8.1-0.9c-0.6-0.2-2.6-1.1-6-2.7l-0.8,1.2L939.4,34l2.1,1.3
																	c-3.5,0.1-7.4,2.5-10,6.4c-3.6,5.6-3.3,12.2,0.8,14.8c4.1,2.6,10.3,0.2,13.9-5.4C949.8,45.6,949.4,38.9,945.4,36.3"
																	/>
															</g>
															<g>
																<defs>
																	<rect id="SVGID_95_" x="573" y="0" width="576" height="326"/>
																</defs>
																<clipPath id="SVGID_96_">
																	<use xlink:href="#SVGID_95_"  style="overflow:visible;"/>
																</clipPath>
																<g class="st58">
																	<g>
																		<defs>
																			<rect id="SVGID_97_" x="573" y="256.8" width="576" height="69.2"/>
																		</defs>
																		<clipPath id="SVGID_98_">
																			<use xlink:href="#SVGID_97_"  style="overflow:visible;"/>
																		</clipPath>
																		<g class="st59">
																			<text transform="matrix(1.0194 0 0 1 564.2401 317.4922)" class="st60 st24 st31">中华青年交响乐团</text>
																		</g>
																	</g>
																	<g class="st32">
																		<defs>
																			<rect id="SVGID_99_" x="573" y="0" class="st32" width="576" height="326"/>
																		</defs>
																		<clipPath id="SVGID_100_">
																			<use xlink:href="#SVGID_99_"  style="overflow:visible;"/>
																		</clipPath>
																		<g class="st61">
																			<g>
																				<defs>
																					<rect id="SVGID_101_" x="573" y="0" width="576" height="326"/>
																				</defs>
																				<clipPath id="SVGID_102_">
																					<use xlink:href="#SVGID_101_"  style="overflow:visible;"/>
																				</clipPath>
																				<line class="st62" x1="574.2" y1="229.9" x2="1147.6" y2="229.9"/>
																			</g>
																		</g>
																	</g>
																</g>
															</g>
														</g>
													</g>
												</g>
											</g>
										</g>
									</g>
								</g>
							</g>
						</g>
					</g>
				</g>
			</g>
		</g>
	</g>
</g>
</svg>
