<?xml version="1.0" encoding="utf-8"?>
<!-- Generator: Adobe Illustrator 19.2.1, SVG Export Plug-In . SVG Version: 6.00 Build 0)  -->
<svg version="1.1" id="Layer_1" xmlns="http://www.w3.org/2000/svg" xmlns:xlink="http://www.w3.org/1999/xlink" x="0px" y="0px"
	 viewBox="0 0 172.5 165.5" style="enable-background:new 0 0 172.5 165.5;" xml:space="preserve">
<style type="text/css">
	.st0{fill:#20d091;}
</style>
<g>
	<path class="st0" d="M72.5,76.5c0.5,0,1-0.1,1.6-0.2c1.9-0.4,3.6-1.6,4.7-3.2c1.1-1.7,1.4-3.6,1-5.6c-0.1-0.6-0.4-1.2-0.7-1.8
		l33.4-26.5c0.6-0.5,0.8-1.5,0.2-2.1c-0.5-0.6-1.5-0.8-2.1-0.2L77.2,63.4c-1.7-1.4-4-2-6.3-1.5c-4,0.9-6.5,4.8-5.7,8.8
		C66,74.1,69.1,76.5,72.5,76.5z M71.6,64.8c2.4-0.5,4.7,1,5.2,3.4c0.2,1.1,0,2.3-0.6,3.3c-0.6,1-1.6,1.7-2.8,1.9
		c-2.4,0.5-4.7-1-5.2-3.4C67.7,67.7,69.2,65.3,71.6,64.8z"/>
	<path class="st0" d="M115.4,76.2l-41,11.1c-1-2-2.8-3.5-5.2-3.9c-1.9-0.4-3.9,0-5.6,1.1c-1.6,1.1-2.8,2.8-3.1,4.7
		c-0.8,4,1.8,7.9,5.8,8.7c0.5,0.1,1,0.1,1.4,0.1c1.5,0,2.9-0.4,4.1-1.3c1.6-1.1,2.8-2.8,3.1-4.7c0.1-0.6,0.2-1.3,0.1-1.9l41-11.1
		c0.8-0.2,1.3-1,1.1-1.8C117,76.4,116.2,75.9,115.4,76.2z M72.1,91.5c-0.2,1.2-0.9,2.1-1.9,2.8c-1,0.7-2.2,0.9-3.3,0.7
		c-2.4-0.5-3.9-2.8-3.5-5.2c0.2-1.2,0.9-2.1,1.9-2.8c0.7-0.5,1.6-0.7,2.4-0.7c0.3,0,0.6,0,0.9,0.1C71,86.8,72.6,89.1,72.1,91.5z"/>
	<path class="st0" d="M86.4,15.2c-31.2,0-56.6,25.4-56.6,56.6c0,31.2,25.4,56.6,56.6,56.6S143,103,143,71.8
		C143,40.6,117.6,15.2,86.4,15.2z M86.4,125.4c-29.6,0-53.6-24-53.6-53.6c0-29.6,24-53.6,53.6-53.6s53.6,24,53.6,53.6
		C140,101.4,116,125.4,86.4,125.4z"/>
	<path class="st0" d="M172,33.7l-6.6-11.3c-0.4-0.7-1.3-0.9-2-0.6l-6.9,3.6c-0.2,0.1-0.4,0.3-0.6,0.5c-1-0.8-2.5-1-3.9-0.3
		l-15.2,8.7c-0.6-0.8-1.2-1.6-1.8-2.3c0.5-0.3,1-0.6,1.4-1.1l0.8-0.8c2.5-2.5,2.5-6.5,0-9c0,0,0,0,0,0c-2.5-2.5-6.5-2.5-9,0
		l-0.8,0.8c-0.4,0.4-0.8,0.9-1.1,1.4c-9.6-8-21.2-12.9-33.8-14.1c0.1-0.5,0.2-1.1,0.2-1.7V6.6c0-3.5-2.9-6.4-6.4-6.4S80,3.1,80,6.6
		v1.1c0,0.6,0.1,1.1,0.2,1.7c-12.4,1.2-24.2,6.1-33.8,14c-0.3-0.5-0.6-1-1-1.4l-0.8-0.8c-2.5-2.5-6.5-2.5-9,0c-2.5,2.5-2.5,6.5,0,9
		l0.8,0.8c0.4,0.4,0.9,0.8,1.5,1.1c-0.6,0.8-1.3,1.6-1.9,2.4l-15.4-8.9c-0.8-0.5-1.8-0.7-2.7-0.4c-0.4,0.1-0.9,0.3-1.2,0.6L9,21.9
		c-0.7-0.4-1.6-0.1-2,0.6L0.5,33.8c-0.4,0.7-0.2,1.6,0.5,2l6.6,4.3c0.2,0.1,0.4,0.2,0.6,0.2c-0.1,0.4,0,0.9,0.1,1.3
		c0.2,0.9,0.9,1.7,1.6,2.1l16.6,9.6c-1.3,4.1-2.1,8.4-2.5,12.7c-0.6-0.2-1.3-0.3-2-0.3h-1.1c-3.5,0-6.4,2.9-6.4,6.4s2.9,6.4,6.4,6.4
		H22c0.7,0,1.4-0.1,2-0.3c1.3,12.3,6.2,24.1,14.2,33.7c-0.7,0.3-1.3,0.7-1.9,1.3l-0.8,0.8c-2.5,2.5-2.5,6.5,0,9
		c1.2,1.2,2.9,1.9,4.5,1.9c1.6,0,3.3-0.6,4.5-1.9l0.8-0.8c0.5-0.5,1-1.1,1.3-1.8c8.4,6.9,18.6,11.4,29.3,13.3V152
		c0,1.4,0.9,2.7,2.1,3.2l0.4,8.7c0,0.8,0.7,1.4,1.5,1.4h13c0.8,0,1.5-0.6,1.5-1.4l0.4-7.9c0-0.3,0-0.5-0.1-0.7
		c1.3-0.5,2.3-1.8,2.3-3.3v-18.4c10.7-1.8,20.8-6.4,29.3-13.3c0.3,0.7,0.7,1.3,1.3,1.9l0.8,0.8c1.2,1.2,2.9,1.9,4.5,1.9
		s3.3-0.6,4.5-1.9c2.5-2.5,2.5-6.5,0-9l-0.8-0.8c-0.6-0.6-1.2-1-1.9-1.3c8.1-9.7,13-21.3,14.2-33.7c0.6,0.2,1.3,0.3,2,0.3h1.1
		c3.5,0,6.4-2.9,6.4-6.4s-2.9-6.4-6.4-6.4h-1.1c-0.7,0-1.3,0.1-1.9,0.3c-0.4-4.4-1.3-8.7-2.5-12.8l16.1-9.3c0.8-0.4,1.4-1.2,1.6-2.1
		c0.1-0.4,0.1-0.8,0.1-1.3l7.3-4.7C172.2,35.3,172.4,34.4,172,33.7z M146.1,67.8c-1,1.1-1.7,2.6-1.7,4.3c0,1.6,0.6,3,1.6,4.2
		c-0.9,13-6.1,25.1-14.9,35.1c-1.3,0.2-2.6,0.8-3.7,1.8c-1,1-1.6,2.3-1.8,3.6c-9.9,8.7-22.4,13.8-35.4,14.6
		c-1.1-0.8-2.4-1.3-3.8-1.3c-1.4,0-2.8,0.5-3.9,1.3c-13.2-0.9-25.5-5.9-35.4-14.5c-0.2-1.4-0.8-2.7-1.8-3.7c0,0,0,0,0,0
		c-1-1-2.3-1.6-3.7-1.8c-8.6-9.8-13.9-22.2-14.9-35.1c1-1.1,1.5-2.6,1.5-4.2c0-1.6-0.6-3.1-1.6-4.2c0.9-12.9,5.9-25.3,14.2-35
		c1.6-0.1,3.1-0.7,4.3-1.9c1.2-1.2,1.8-2.7,1.9-4.4c9.6-8.4,21.9-13.5,34.7-14.4c1.2,1.1,2.7,1.9,4.5,1.9c1.7,0,3.3-0.7,4.5-1.8
		c13,1,25,6,34.7,14.5c0.1,1.6,0.7,3.1,1.9,4.3c1.2,1.2,2.8,1.8,4.4,1.9C140.3,42.7,145.2,54.8,146.1,67.8z M83,136.5
		c0-1.9,1.5-3.4,3.4-3.4s3.4,1.5,3.4,3.4v1.1c0,1.9-1.5,3.4-3.4,3.4s-3.4-1.5-3.4-3.4V136.5z M130.4,23.4c0.7-0.7,1.5-1,2.4-1
		s1.7,0.3,2.4,1c1.3,1.3,1.3,3.5,0,4.8l-0.8,0.8c-1.3,1.3-3.5,1.3-4.8,0c-0.6-0.6-1-1.5-1-2.4c0-0.9,0.3-1.8,1-2.4L130.4,23.4z
		 M83,6.6c0-1.9,1.5-3.4,3.4-3.4s3.4,1.5,3.4,3.4v1.1c0,1.9-1.5,3.4-3.4,3.4S83,9.6,83,7.7V6.6z M37.7,23.4c0.7-0.7,1.5-1,2.4-1
		s1.7,0.3,2.4,1l0.8,0.8c0.6,0.6,1,1.5,1,2.4c0,0.9-0.4,1.8-1,2.4c0,0,0,0,0,0c-1.3,1.3-3.5,1.3-4.8,0l-0.8-0.8
		C36.3,26.8,36.3,24.7,37.7,23.4z M9.4,37.7c-0.1-0.1-0.1-0.1-0.2-0.2L3.8,34l5.1-8.8l6,3.1L9.4,37.7z M11.4,41.1
		c-0.1-0.1-0.1-0.1-0.2-0.2c0-0.1,0-0.2,0.1-0.4l7-12.2c0.1-0.1,0.1-0.1,0.2-0.2c0.1,0,0.2,0,0.4,0.1L34.2,37
		c-2.8,4.2-5,8.6-6.7,13.3L11.4,41.1z M20.9,75.5c-1.9,0-3.4-1.5-3.4-3.4s1.5-3.4,3.4-3.4H22c1.9,0,3.4,1.5,3.4,3.4
		c0,0.9-0.4,1.8-1,2.4c0,0-0.1,0-0.1,0.1c-0.6,0.6-1.4,0.9-2.3,0.9H20.9z M42.4,120.8c-1.3,1.3-3.5,1.3-4.8,0
		c-1.3-1.3-1.3-3.5,0-4.8l0.8-0.8c0.6-0.6,1.5-1,2.4-1c0.9,0,1.8,0.3,2.4,1c0,0,0,0,0,0c0.6,0.6,0.9,1.4,1,2.2c0,0.1,0,0.2,0,0.3
		c0,0.9-0.4,1.7-1,2.3L42.4,120.8z M91.5,162.3H81.3l-0.3-6.8h10.8c0,0.1,0,0.2-0.1,0.3L91.5,162.3z M93.9,152
		c0,0.3-0.2,0.5-0.5,0.5h-14c-0.3,0-0.5-0.2-0.5-0.5v-17.9c0.5,0.1,1,0.1,1.5,0.2c-0.3,0.7-0.4,1.5-0.4,2.3v1.1
		c0,3.5,2.9,6.4,6.4,6.4s6.4-2.9,6.4-6.4v-1.1c0-0.8-0.2-1.6-0.4-2.3c0.5,0,1-0.1,1.5-0.2V152z M135.1,120.8c-1.3,1.3-3.5,1.3-4.8,0
		l-0.8-0.8c-0.6-0.6-1-1.5-1-2.4c0-0.9,0.3-1.8,1-2.4c0.7-0.7,1.5-1,2.4-1s1.7,0.3,2.4,1l0.8,0.8
		C136.5,117.4,136.5,119.5,135.1,120.8z M151.9,68.7c1.9,0,3.4,1.5,3.4,3.4s-1.5,3.4-3.4,3.4h-1.1c-1.9,0-3.4-1.5-3.4-3.4
		s1.5-3.4,3.4-3.4H151.9z M161.3,40.9c0,0.1-0.1,0.2-0.2,0.3l-15.6,9c-1.7-4.7-4-9.2-6.8-13.4l14.9-8.5c0.3-0.2,0.6-0.1,0.7,0.1
		l7,12.1C161.3,40.7,161.3,40.8,161.3,40.9z M163,37.7l-5.4-9.4c0.1,0,0.2-0.1,0.3-0.1l5.6-2.9l5.2,8.8L163,37.7z"/>
</g>
</svg>
